<svg xmlns="http://www.w3.org/2000/svg" viewBox="0 0 512 512" xml:space="preserve">
  <path fill="#FEFEFE" d="M1 141V1h512v512H1V141m468.287-12.569c26.795-21.787 31.188-60.905 11.462-88.12-15.628-21.563-44.738-31.436-70.385-23.67-13.867 4.2-24.807 12.396-34.477 22.77-6.234-2.931-12.31-6.278-18.733-8.707-13.657-5.165-27.338-10.366-41.3-14.596-15.17-4.595-30.901-6.08-46.783-6.646-22.414-.797-44.597.078-66.52 5.23-23.794 5.592-46.51 13.914-67.828 25.957-16.245 9.178-31.77 19.497-45.118 32.513-11 10.728-21.725 21.964-31.008 34.164-9.508 12.498-18.386 25.827-25.21 39.921-7.33 15.143-12.637 31.39-17.517 47.552-3.434 11.369-6.103 23.34-6.58 35.146-.819 20.197-.598 40.551 1.016 60.693 1.062 13.252 4.382 26.546 8.38 39.291 6.955 22.166 15.863 43.66 29.317 62.837 7.542 10.749 15.078 21.663 23.95 31.272 9.166 9.925 19.922 18.386 30.027 27.437 13.971 12.511 30.032 21.925 46.894 29.714 12.17 5.621 24.915 10.296 37.812 13.957 13.568 3.851 27.5 7.188 41.49 8.621 24.991 2.56 50.126 2.351 74.908-2.78 19.677-4.073 39.112-9.053 57.254-18.073 18.631-9.263 36.265-19.934 52.589-33.043 18.902-15.18 35.321-32.676 48.623-52.594 14.431-21.61 27.138-44.491 32.925-70.316 3.125-13.947 6.826-27.895 8.315-42.048 2.42-22.993 2.47-46.186-1.87-69.036-2.566-13.507-5.764-26.96-9.742-40.115-5.03-16.628-13.41-31.842-21.891-47.331z"/>
  <path fill="#150F0B" d="M468.938 129.004c8.83 14.916 17.21 30.13 22.24 46.758 3.978 13.155 7.176 26.608 9.741 40.115 4.34 22.85 4.29 46.043 1.87 69.036-1.488 14.153-5.189 28.101-8.314 42.048-5.787 25.825-18.494 48.707-32.925 70.316-13.302 19.918-29.72 37.413-48.623 52.594-16.324 13.109-33.958 23.78-52.59 33.043-18.141 9.02-37.576 14-57.253 18.073-24.782 5.131-49.917 5.34-74.908 2.78-13.99-1.433-27.922-4.77-41.49-8.621-12.897-3.66-25.643-8.336-37.812-13.957-16.862-7.789-32.923-17.203-46.894-29.714-10.105-9.051-20.861-17.512-30.026-27.437-8.873-9.609-16.41-20.523-23.951-31.272-13.454-19.176-22.362-40.671-29.317-62.837-3.998-12.745-7.318-26.039-8.38-39.29-1.614-20.143-1.835-40.497-1.017-60.694.478-11.805 3.147-23.777 6.58-35.146 4.881-16.161 10.188-32.409 17.519-47.552 6.823-14.094 15.7-27.423 25.209-39.92C67.88 95.125 78.605 83.89 89.605 73.161c13.348-13.016 28.873-23.335 45.118-32.513 21.318-12.043 44.034-20.365 67.828-25.957 21.923-5.152 44.106-6.027 66.52-5.23 15.882.565 31.612 2.05 46.784 6.646 13.961 4.23 27.642 9.431 41.299 14.596 6.423 2.429 12.5 5.776 18.936 9.322-.262 1.129-.727 1.642-1.521 2.016-53.806-28.831-110.446-37.275-169.697-24.774C83.785 42.814 1.425 154.517 11.822 278.095c4.353 51.73 22.968 97.842 56.722 137.118 55.084 64.094 125.798 92.93 209.669 86.24 68.138-5.436 124.582-35.945 167.942-88.926 36.828-45 55.12-96.797 55.108-155.397-.009-45.428-11.657-87.128-34.337-126.357.736-.786 1.374-1.277 2.012-1.769z"/>
  <path fill="#9C3C27" d="M374.898 42.181c.465-.513.93-1.026 1.438-1.892 9.22-11.252 20.161-19.448 34.028-23.647 25.647-7.767 54.757 2.106 70.385 23.668 19.726 27.216 15.333 66.334-11.637 88.408-.812.778-1.45 1.269-2.53 2.084-1.739 1.036-3.049 1.73-4.336 2.465-9.622 5.494-19.837 9.414-30.987 9.645-21.198.439-39.056-7.467-52.433-23.854-11.556-14.155-16.608-30.606-14.103-49.131 1.362-10.07 5.708-18.894 10.175-27.746m-3.484 49.622c.177.641.356 1.283.53 1.925 8.424 31.007 40.016 49.44 71.212 41.552 30.913-7.817 49.925-38.872 42.875-70.03-7.067-31.23-38.064-51.016-69.479-44.467-30.277 6.312-52.42 36.336-45.138 71.02z"/>
  <path fill="#D87A26" d="M374.569 42.042c-4.138 8.99-8.484 17.815-9.846 27.885-2.505 18.525 2.547 34.976 14.103 49.131 13.377 16.387 31.235 24.293 52.433 23.854 11.15-.231 21.365-4.151 30.987-9.645a48.355 48.355 0 0 1 4.24-2.17c23.12 38.905 34.768 80.605 34.777 126.033.012 58.6-18.28 110.396-55.108 155.397-43.36 52.981-99.804 83.49-167.942 88.926-83.871 6.69-154.585-22.146-209.67-86.24-33.753-39.276-52.368-85.389-56.72-137.118C1.425 154.517 83.785 42.815 204.872 17.268c59.251-12.501 115.89-4.057 169.697 24.774m-24.023 336.189c-.3.165-.532.4-1.257.952-.483.886-.966 1.77-2.169 2.722-7.024 5.049-14.048 10.098-21.722 15.162-1.062.666-2.125 1.332-3.739 2.098-.227.279-.453.558-1.343.918-.949.596-1.897 1.193-3.436 1.888-.97.648-1.94 1.297-3.633 2.044-4.126 2.269-8.251 4.537-12.482 6.703 0 0-.14.047-.813.098l-1.554 1c.404.352.769.934 1.219 1.01 1.109.188 2.257.143 4.033.645 2.108.18 4.216.36 6.9 1.076 3.1.31 6.203.62 10.07 1.207.809-.004 1.617-.008 2.886.109 0 0 .476 0 1.322.201 1.648.14 3.294.353 4.945.405 15.967.51 31.718-.381 47.213-7.428 12.506-5.392 22.17-14.231 28.784-25.887 7.066-12.454 9.051-25.71 2.313-39.999-2.718-9.005-5.95-17.766-12.089-25.87-1.296-1.798-2.592-3.596-4.234-5.971-4.844-5.747-8.858-12.344-16.184-15.898 3.6 10.751 4.926 21.58 4.092 33.239a747.345 747.345 0 0 0-.667 6.345s-.01-.015-.578.453c-4.129 16.83-14.313 29.793-26.959 41.687-.156.291-.312.583-.918 1.091m-52.48-263.27s.1-.085-.078-.573c-.279-.19-.558-.381-.865-.455 0 0 .095-.074-.01-.643-.374-.423-.748-.846-1.297-1.855-.888-.837-1.775-1.675-2.98-3.015-.523-.242-1.047-.484-1.51-.792 0 0-.01-.088-.13-.602-.386-.358-.772-.716-1.198-1.03 0 0 .055-.023-.093-.52-.28-.19-.558-.38-.852-.47 0 0 .037-.096-.157-.64-.662.192-1.324.384-2.562.618-.052.672-.104 1.344-.217 2.6.271.477.543.954.875 1.947.066.161.13.322.135 1.07.274.484.55.967.874 1.406 0 0-.063.02-.038.831 1.05 4.045 2.1 8.09 3.087 12.67.05.173.099.345.038 1.372.196 4.717.392 9.433.276 14.784-.013.466-.025.932-.24 2.187-.998 4.395-1.996 8.79-3.082 13.216 0 0 .043.083-.449.543-.884 2.123-1.769 4.246-3.225 6.708-2.561 3.186-5.167 6.337-7.67 9.568-2.558 3.302-5.015 6.683-7.723 10.572-.304.226-.608.451-1.578.664-1.473 1.608-2.946 3.216-4.975 5.092-.225.548-.45 1.096-.546 1.682 0 0-.012-.136-.623-.088-.47.377-.94.754-1.962 1.477-1.348 1.939-2.695 3.877-4.384 6.02-.226.188-.307.426-.799 1.18-1.69 2.542-3.38 5.084-5.599 8.032-1.078 2.5-2.156 5-3.408 7.652 0 0 .033.23-.524.607-.52 2.073-1.04 4.147-1.58 6.223 0 0 .007.018-.547.462-.113 1.18-.226 2.359-.45 3.57 0 0 .035.11-.305.19-.238.177-.26.379-.375 1.316.012.51.024 1.021-.076 1.954 0 0 .094.427-.065 1.006.029.198.058.396-.145 1.32-.199 2.008-.397 4.015-.784 6.925.072 2.142.145 4.285.042 7.19.307 2.332.614 4.665.802 7.9.18 1.798.36 3.595.333 5.79.224.318.447.635.656 1.716.056.248.113.496-.035 1.435.111.701.222 1.402.225 2.845.162.466.325.932.2 1.957.25.783.498 1.566.601 3.112.104.768.207 1.535.172 2.922l.955 1.927c.625-.83 1.25-1.662 2.315-2.95.513-1.149 1.027-2.297 2.084-3.805.507-.917 1.013-1.833 2.08-3.06 1.144-1.772 2.287-3.545 3.864-5.684.151-.342.302-.684 1.042-1.28.818-1.218 1.637-2.436 2.984-3.926a19.54 19.54 0 0 1 2.081-2.112c.418-.703.836-1.406 1.775-2.244.24-.472.48-.944.634-1.436 0 0 .002.09.483-.117.169-.3.338-.6.458-.923 0 0 .03.044.566-.188.453-.61.906-1.218 1.428-1.82 0 0-.007-.069.607-.267 1.453-1.575 2.905-3.15 4.977-4.974 2.156-1.88 4.311-3.76 7.008-5.991.341-.547.683-1.093 1.671-1.72 3.79-2.876 7.616-5.706 11.363-8.637 9.558-7.476 18.167-15.796 24.046-27.468.606-.984 1.294-1.927 1.805-2.958 9.36-18.845 10.389-37.654-.387-56.902-.32-.376-.64-.751-1.08-1.806A681.104 681.104 0 0 0 312 131s.014-.016-.1-.669c-1.282-1.47-2.563-2.939-3.894-4.344 0 0 .077-.027-.095-.525-.268-.208-.535-.417-.806-.53 0 0 .088-.034-.017-.6-.377-.407-.754-.813-1.232-1.725-.258-.214-.515-.428-1.109-1.203-1.568-1.502-3.136-3.004-4.867-4.929-.164-.271-.397-.455-.93-1.028-.277-.203-.555-.405-.885-.486m-42.04 195.105s.053.103-.41.346c-.08.495-.161.99-.453 2.188.035.484.07.969-.026 2.082.012.428.024.855-.163 2.192.978 6.382 1.956 12.764 3.007 19.665.083.155.165.309.22 1.177 1.618 3.074 3.236 6.149 5.042 9.812.598.813 1.196 1.627 2.054 3.061 8.808 12.87 23.082 19.099 35.353 28.883l4.738 9.647c4.45-4.697 8.619-9.094 13.444-13.452 1.379-1.233 2.757-2.467 4.701-3.852.518-.575 1.036-1.149 2.104-2.053.5-.888 1-1.775 1.429-2.73 0 0 .007.098.476-.11.133-.309.267-.617.457-.917 0 0-.012-.056.54-.229.484-.592.968-1.184 1.986-2.01.177-.544.354-1.088 1.061-1.894.453-.632.906-1.265 1.417-1.88 0 0-.031-.052.468-.381.549-.836 1.098-1.671 2.157-2.854.436-.93.872-1.86 1.329-2.754 0 0 .025-.034.567-.451 1.897-5.188 3.794-10.376 5.86-15.796 0 0-.118-.262.314-.868.197-1.647.395-3.294.971-5.786-.029-4.02-.058-8.04.046-12.809-.356-1.741-.711-3.483-.963-5.907-.097-.446-.195-.89-.173-2.107-1.632-8.074-3.265-16.147-4.763-25.024-.11-1.07-.219-2.139-.118-4.128-.098-5.725-.196-11.45-.007-17.89-.006-.762-.012-1.524.229-3.037.357-2.067.713-4.135 1.575-6.66.454-1.529.91-3.058 1.447-4.615 0 0-.04-.079.48-.522 1.896-3.786 3.793-7.572 5.903-11.637 0 0 .038-.35.438-.78.423-.65.846-1.302 1.772-2.362.843-1.752 1.687-3.504 2.422-5.928.563-.917 1.126-1.835 2.43-2.751l23.441-24.607-1.169-1.637c-5.566 3.249-11.19 6.403-16.668 9.795-1.96 1.214-3.564 3.003-5.734 5.079-1.053.652-2.093 1.325-3.16 1.952-5.948 3.495-11.902 6.979-18.627 10.358-7.697 4.51-15.75 8.515-23.008 13.646-11.438 8.086-22.34 16.93-34.056 25.705a151.021 151.021 0 0 0-2.575 3.562s.022.036-.474.329c.067.476.135.953.369 1.932.177-.002.353-.005.499.121 0 0-.12.058-.43-.766-.291.04-.582.08-1.527.24-.481.44-.962.879-1.837 2.105.278.46.557.919.77 1.384 0 0 .017.064-.577-.468-1.516 1.84-3.033 3.678-5.071 5.93-2.191 5.463-4.383 10.926-6.55 16.395 0 0-.015-.02-.555.444-.188 1.175-.375 2.351-.48 3.54 0 0-.04-.074-.616.413-.18 1.512-.359 3.024-.431 4.533 0 0-.079-.073-.57.263-.02.577-.041 1.154-.24 2.421.027.471.053.942-.072 1.906.032.169.064.337-.013.546m-89.058-200.674c-.31-.164-.621-.328-1.241-1.014-.904-.796-1.809-1.591-2.935-2.926-.594-.423-1.188-.845-2.208-1.432 0 0-.448-.096-.749-.695l-3.137-2.37-.624.742c.982 1.414 1.964 2.828 3 4.93.441.785.884 1.571 1.374 2.991.873 1.388 1.746 2.776 2.636 4.864a116.637 116.637 0 0 1 1.924 3.52s.08.008.069.624c.285.514.57 1.028.927 2.233.703 1.715 1.405 3.429 2.14 5.893 1.683 5.534 4.157 10.966 4.889 16.623 1.61 12.444 2.339 25.002 3.272 38.067.08.369.158.738-.094 1.65.002.632.003 1.263-.125 2.404.02.174.039.349-.147 1.307a2424.454 2424.454 0 0 1-2.845 17.71c.02.174.042.347-.463 1.066-.979 4.408-1.958 8.816-2.86 13.204 0 0-.047.063-.538.598a13497.7 13497.7 0 0 1-8.016 37.312c.027.446.054.892-.143 2.108-.183 2.085-.366 4.17-.78 7.155.072 5.664.143 11.327-.019 17.788 1.92 8.39 3.839 16.78 5.848 25.918 5.41 14.884 12.325 29.02 22.627 41.122 7.958 9.348 16.727 17.985 28.482 23.754.578.07 1.156.138 2.437.34 1.696.72 3.392 1.44 5.371 2.83.798.572 1.52 1.46 2.405 1.67 10.908 2.582 21.84 5.065 32.86 7.852l.274.093s.114-.266.886.084a82.49 82.49 0 0 1 3.294.562l13.715 2.124.28-1.325c-4.932-1.46-9.864-2.92-15.512-4.624-6.816-3.606-13.626-7.224-20.451-10.812-2.63-1.383-5.296-2.698-8.009-4.092 0 0-.053-.058.69-.466-2.586-2.53-5.17-5.06-7.64-7.622 0 0-.057.107.29-.532-.697-.886-1.393-1.773-2.234-3.338-10.647-13.984-13.9-29.697-11.007-46.868 2.55-15.137 5.057-30.28 7.884-46.3.077-2.183.154-4.366.473-6.442l.134-.222s-.24-.102.207-.946c.054-2.519.107-5.037.273-7.997 0 0-.16-.426.036-1.261-.005-.286-.01-.572.462-1.123-.04-.911-.08-1.823.255-3.654-.126-7.607-.252-15.214-.092-23.248-.21-.55-.42-1.1-.614-2.49-.07-.271-.14-.542-.052-1.236 0 0-.101-.441.11-1.19a31.798 31.798 0 0 1-.011-3.166c-1.3-6.395-2.602-12.79-3.941-19.137 0 0 .056-.026.079-.76-.335-1.104-.67-2.21-1.066-3.236 0 0 .082-.054.095-.867-1.678-5.05-3.356-10.1-5.07-15.655-.062-.157-.123-.314-.165-1.14-.6-1.141-1.201-2.283-1.862-3.351 0 0 .087-.037.042-.782-1.333-2.775-2.667-5.551-4.082-8.888-.3-.448-.599-.895-.95-1.96-.339-.467-.678-.934-1.133-1.848 0 0-.159-.434-.137-1.05a44.373 44.373 0 0 1-2.018-3.042c-.902-1.15-1.805-2.3-2.77-4.053-.287-.489-.575-.978-1.15-1.99-.637-.715-1.274-1.43-1.859-2.287 0 0-.149-.03-.229-.598-.578-.474-1.157-.949-1.895-2.014-.126-.16-.252-.321-.433-1.01-.466-.485-.932-.97-1.4-1.479 0 0-.025.004-.205-.464-.254-.203-.508-.405-.785-.534 0 0 .063-.044-.256-.597a322.159 322.159 0 0 0-4.276-3.753c-1.142-1.558-2.284-3.115-3.716-5.272-1.568-1.19-3.136-2.379-4.962-4.143-1.477-1.129-2.954-2.257-4.64-4.059-.874-.654-1.749-1.308-2.66-2.101 0 0-.055-.134-.18-.79-.765-.78-1.529-1.558-2.512-2.804-.3-.147-.602-.294-1.167-.954-.513-.242-1.025-.483-1.568-.629 0 0 .1-.009-.107-.5m-56.447 217.76c-.27.229-.396.52-.869 1.372-2.896 9.289-6.98 18.4-8.4 27.909-1.944 13.02 2.392 24.872 11.835 35.253 4.077 3.82 7.888 7.984 12.285 11.392 9.997 7.747 21.874 10.688 34.142 12.446 18.564 2.66 36.772-.003 56.152-3.107-8.515-4.57-16.132-8.207-23.277-12.61-8.825-5.437-17.258-11.512-26.162-17.75-.364-.39-.729-.78-1.438-1.713-1.22-.831-2.44-1.663-3.737-2.438 0 0 .092.022-.11-.477-.3-.194-.6-.387-1.211-1.159-3.007-3.306-6.13-6.515-9.001-9.935-15.788-18.813-22.462-39.796-15.138-64.101.497-1.653.388-3.488.561-5.239-5.213 3.186-10.702 5.445-11.87 12.263-2.776 3.206-5.552 6.413-8.898 9.93-.505.921-1.01 1.842-1.979 2.95-.188.438-.376.876-1.058 1.805-.458 1.01-.915 2.02-1.35 3.056 0 0-.02-.023-.477.153m174.95-224.403-.386.808c.19-.184.378-.367.387-.808m95.061 95.162-.216.09s.213.094.216-.09z"/>
  <path fill="#FEFDFD" d="M371.313 91.395c-7.182-34.276 14.962-64.3 45.24-70.612 31.414-6.549 62.41 13.236 69.478 44.466 7.05 31.16-11.962 62.214-42.875 70.03-31.196 7.89-62.788-10.544-71.211-41.551-.175-.642-.354-1.284-.632-2.333m32.732 21.07c2.797 3.414 5.595 6.827 8.723 10.642l56.31-83.861-1.205-.935-58.49 55.708-28.7-13.086-1.162 1.57c8.028 9.802 16.056 19.604 24.524 29.963z"/>
  <path fill="#FDFDFD" d="M224.756 377.039c-1.696-.72-3.392-1.44-5.471-2.418-.383-.257-.524-.624-.403-.97-.947-1.232-1.923-2.266-3.096-2.978-9.948-6.04-18.328-13.866-25.73-22.75-9.601-11.525-15.547-25.09-21.264-38.768-.768-1.838-1.815-3.558-2.756-5.734-.64-2.422-1.254-4.441-1.908-6.826-.386-3.237-.897-6.1-1.054-8.981-1.113-20.463 1.572-40.493 6.926-60.223 4.478-16.5 8.903-33.02 9.427-50.263.363-11.96-.168-23.82-4.267-35.21-.018.037.059.007.001-.324-3.399-9.484-6.74-18.639-10.094-27.998-.012-.204-.135-.595.026-.895 2.4 1.271 4.64 2.843 6.962 4.645.295.514.577.66 1.09.96 2.718 2.45 5.276 4.606 7.931 7.034.675.747 1.253 1.222 1.98 1.997 2.06 2.439 3.973 4.578 5.99 7.048 2.93 3.695 5.756 7.06 8.609 10.416.026-.009-.031.008.199.22a62.527 62.527 0 0 1 3.291 5.298c3.884 8.686 8.104 16.867 11.424 25.398 6.515 16.743 9.682 34.273 9.305 52.202-.295 14.039-1.782 28.053-2.913 42.436-1.923 9.903-3.544 19.473-5.447 28.986-4.374 21.861-4.207 42.823 11.529 61.259 1.012.435 1.872.547 2.731.659 0 0 .058-.107-.318.197 2.173 2.778 4.723 5.252 7.272 7.726 0 0 .053.058-.094.414 4.624 4.231 9.396 8.106 14.167 11.98-4.08-.116-7.823-1.132-11.604-1.984-4.129-.93-8.292-1.709-12.44-2.553zM334.242 225.993c5.952-3.487 11.906-6.971 17.853-10.466 1.068-.627 2.108-1.3 3.772-2.124 3.404-1.316 6.197-2.459 9.21-3.693l-10.431 15.234c-.564.917-1.127 1.835-1.852 3.296-1.043 1-1.924 1.454-3.107 1.892-.902.987-1.503 1.991-2.086 3.003.018.009-.003-.02-.283.21-3.465 7.074-7.66 13.644-9.628 20.823-4.391 16.012-2.386 32.167 1.312 48.12 4.094 17.656 5.253 35.023-4.79 51.374.01.025-.007-.03-.15.181a67.29 67.29 0 0 0-1.425 2.353c.024.007-.017-.01-.299.214-2.696 3.61-5.11 6.993-7.498 10.382.027.005-.023-.009-.308.165-1.722 1.79-3.158 3.406-4.904 5.128-.692 1.251-1.073 2.397-1.455 3.542l-12.786 13.492a796.985 796.985 0 0 0-5.07-10.199c-2.042-2.743-3.401-5.384-5.525-7.049-9.005-7.057-19.754-11.973-26.58-22.108-.866-1.25-1.63-2.2-2.459-3.29-.066-.137-.324-.302-.503-.534a100.028 100.028 0 0 1-2.401-4.475c-.05-.17-.322-.396-.478-.662-.866-1.79-1.576-3.314-2.268-5.254-.68-4.765-2.24-9.18-1.904-13.447.741-9.411 2.438-18.748 3.974-28.36.635-1.507 1.04-2.77 1.432-4.041-.011-.008.015.003.196-.31 2.593-5.27 5.004-10.226 7.416-15.183 0 0-.017-.064.355.062 1.092-.927 1.812-1.979 2.532-3.03 0 0 .12-.059.442.007.788-.675 1.253-1.415 1.931-2.233.452-.295.568-.565.853-1.053 4.17-3.703 7.714-7.72 11.988-10.685 11.3-7.838 22.975-15.132 34.373-22.834 3.72-2.514 7.045-5.615 10.551-8.448z"/>
  <path fill="#FCFCFC" d="M268.063 185.135c.304-.226.608-.451 1.361-.923 3.882-3.404 7.609-6.302 10.686-9.776 6.479-7.313 11.413-15.53 13.074-25.785 3.105-12.96.904-25.297-2.63-37.56l1.21-.417c7.334 8.852 14.668 17.704 22.086 26.914 6.202 10.962 9.105 22.405 7.495 34.54-2.91 21.944-14.764 38.403-32.091 51.666-9.112 6.974-17.37 15.064-26.251 22.872-5.887 7.158-11.537 14.094-17.876 21.875-.514-6.553-.676-11.708-1.36-16.792-3.075-22.847 3.927-42.17 19.804-58.642 2.049-2.126 3.02-5.29 4.492-7.972z"/>
  <path fill="#2B2521" d="M166.527 382.496c8.603 5.8 17.036 11.874 25.861 17.311 7.145 4.403 14.762 8.04 23.277 12.61-19.38 3.104-37.588 5.767-56.152 3.107-12.268-1.758-24.145-4.7-34.142-12.446-4.397-3.408-8.208-7.572-12.076-11.746.694-.633 1.18-.913 1.924-.984 5.81 7.142 12.909 12.055 20.903 15.692 22.577 10.27 46.025 7.643 68.745 5.28-12.987-8.76-26.133-17.627-39.155-26.945.176-.757.229-1.064.42-1.493.138-.122.395-.386.395-.386z"/>
  <path fill="#25211F" d="M263.24 246.444c8.644-7.586 16.902-15.676 26.014-22.65 17.327-13.263 29.18-29.722 32.091-51.666 1.61-12.135-1.293-23.578-7.432-34.602-.02-.42.105-.544.456-.55l1.755-.029c.32.376.64.751.98 1.78.274 1.434.453 2.253.798 2.995 6.914 14.846 7.346 29.983 1.94 45.333-1.365 3.876-3.09 7.624-4.65 11.431-5.404 11.12-14.013 19.44-23.57 26.916-3.748 2.931-7.574 5.761-12.04 8.758-.962.73-1.25 1.34-1.536 1.95-2.156 1.88-4.311 3.76-7.116 5.8-2.08 1.777-3.51 3.395-4.942 5.012 0 0 .007.07-.344.071-.775.011-1.199.02-1.811-.124-.189-.154-.592-.425-.592-.425z"/>
  <path fill="#25211F" d="M267.73 185.128c-1.138 2.69-2.11 5.853-4.16 7.979-15.876 16.471-22.878 35.795-19.803 58.642.684 5.084.846 10.239 1.36 16.792 6.339-7.781 11.989-14.717 17.876-21.875.238-.222.641.05.823.539.19.94.197 1.388.206 1.838 0 0-.03-.044-.242.08-.384.417-.556.711-.728 1.005 0 0-.002-.089-.21.015-.454.559-.7 1.013-.947 1.466-.418.703-.836 1.407-1.86 2.3-1.071.858-1.538 1.526-2.004 2.194-.818 1.218-1.637 2.436-2.992 3.941-.67.644-.805 1.002-.938 1.36-1.144 1.772-2.287 3.545-4.027 5.596-1.074 1.234-1.551 2.187-2.028 3.14-.513 1.15-1.027 2.297-2.096 3.66a12.53 12.53 0 0 1-2.576.19c-.103-.768-.206-1.535-.037-2.868-.014-1.412-.3-2.259-.587-3.106-.162-.466-.325-.932-.26-1.971.069-1.37-.09-2.166-.247-2.962-.057-.249-.114-.497-.203-1.3-.16-.89-.288-1.224-.416-1.56-.18-1.796-.36-3.593-.249-6.104-.111-3.126-.514-5.538-.917-7.95-.073-2.142-.146-4.285.058-7.142.431-2.788.586-4.863.74-6.937-.03-.197-.058-.395.102-.964.337-.649.27-.877-.011-1.057-.013-.511-.025-1.022.2-1.99.335-.608.416-.768.478-.937 0 0-.036-.11.266-.374.436-1.426.57-2.589.703-3.751 0 0-.007-.018.271-.246.806-2.276 1.333-4.324 1.86-6.373 0 0-.034-.229.315-.503 1.429-2.778 2.508-5.281 3.587-7.784 1.69-2.542 3.38-5.084 5.506-7.889.56-.32.79-.371.793-.436.013-.226-.052-.456-.088-.685 1.348-1.939 2.695-3.877 4.646-5.994 1.06-.567 1.514-.957 1.97-1.347 0 0 .012.136.25.019.447-.69.656-1.26.864-1.833 1.473-1.608 2.946-3.216 4.752-4.818z"/>
  <path fill="#28211C" d="M124.981 308.975c.469-6.535 5.958-8.794 11.171-11.98-.173 1.75-.064 3.586-.561 5.239-7.324 24.305-.65 45.288 15.138 64.1 2.87 3.421 5.994 6.63 9.255 10.48.556.735.857.924 1.159 1.114 0 0-.092-.022-.103.368-.066.948-.121 1.504-.493 1.929-22.678-20.137-35.67-43.883-28.944-76.206-3.13 2.338-4.873 3.641-6.61 4.955.008.011-.012.001-.012.001z"/>
  <path fill="#1A1A1A" d="M175.177 141.88c4.082 11.428 4.613 23.288 4.25 35.248-.524 17.242-4.95 33.763-9.427 50.263-5.354 19.73-8.039 39.76-6.926 60.223.157 2.882.668 5.744.73 8.759-.474-.652-.676-1.443-.852-2.24-.818-3.728-1.63-7.457-2.444-11.186-.072-5.664-.143-11.327.215-17.574.479-2.836.526-5.089.574-7.341-.027-.447-.054-.893.351-1.792 1.754-7.173 3.03-13.904 4.412-20.613 1.156-5.607 2.437-11.188 3.663-16.781 0 0 .047-.063.366-.19 1.236-4.625 2.151-9.124 3.067-13.623-.021-.173-.042-.346.296-.993 1.137-6.322 1.914-12.172 2.691-18.021-.02-.174-.039-.349.227-1.027.248-1.15.21-1.797.172-2.443-.08-.37-.159-.738.243-1.564.582-6.178 1.035-11.92.694-17.613-.429-7.184-1.505-14.33-2.302-21.491z"/>
  <path fill="#1C1918" d="M219.134 269.996c.958-14.024 2.445-28.038 2.74-42.077.377-17.929-2.79-35.459-9.305-52.202-3.32-8.531-7.54-16.712-11.192-25.592-.041-1.721-.244-2.9-.421-4.098.025-.017.074-.055.074-.055.902 1.15 1.805 2.3 2.844 4.082.711 1.43 1.285 2.228 1.86 3.027 0 0 .158.434.222.97.417 1 .769 1.464 1.12 1.93.3.447.6.894.922 2.006 1.383 3.432 2.743 6.2 4.104 8.969 0 0-.087.037-.082.348.615 1.443 1.226 2.576 1.837 3.709.062.157.123.314-.024.928 1.616 5.641 3.441 10.826 5.266 16.01 0 0-.082.055-.08.39.35 1.435.695 2.535 1.041 3.635 0 0-.056.026-.055.432 1.281 6.796 2.562 13.187 3.842 19.578.036.773.073 1.546-.117 2.774-.407.737-.346.971-.043 1.158.07.27.14.542.247 1.434.121 1.18.207 1.738.292 2.296.126 7.607.252 15.214.115 23.517-.332 1.538-.4 2.38-.468 3.223.005.286.01.572-.197 1.364-.346.807-.255 1.037.063 1.196-.054 2.519-.107 5.037-.387 8.02-.226.464-.356.597-.356.597-.078 2.183-.155 4.366-.69 7.1-1.362 2.144-2.267 3.738-3.172 5.331z"/>
  <path fill="#29231E" d="M218.96 270.355c1.079-1.952 1.984-3.546 3.196-5.251-2.219 15.03-4.726 30.173-7.276 45.31-2.893 17.17.36 32.884 10.946 47.502-.352 1.21-.644 1.784-.937 2.36-15.582-18.112-15.75-39.074-11.375-60.935 1.903-9.513 3.524-19.083 5.447-28.986z"/>
  <path fill="#302A25" d="M313.97 403.916c.97-.648 1.94-1.297 3.574-1.982 1.587-.668 2.511-1.3 3.435-1.932.227-.28.453-.558 1.28-.91 1.619-.399 2.637-.725 3.872-.958.492.262.704.49.603 1.01-6.432 3.898-12.614 7.562-20.07 11.98 6.803.709 12.295 1.371 17.804 1.837 14.96 1.264 29.757-.056 44.856-2.978 2.599-.266 4.782-.547 6.965-.827-14.798 6.932-30.549 7.823-46.516 7.313-1.65-.052-3.297-.266-5.447-.647-.8-.475-1.06-.42-1.28-.08-.809.004-1.617.008-3.04-.388-3.754-.714-6.893-1.029-10.032-1.343-2.108-.18-4.216-.36-6.828-1.037-1.176-1.068-1.849-1.639-2.521-2.21 0 0 .14-.046.563.032 4.543-2.242 8.662-4.561 12.782-6.88z"/>
  <path fill="#1B1B1B" d="M334.201 353.638c10.054-16.327 8.895-33.694 4.801-51.35-3.698-15.953-5.703-32.108-1.312-48.12 1.968-7.18 6.163-13.749 9.77-20.278.582 1.054.742 1.79.902 2.526 0 0-.038.35-.472.611-2.285 4.114-4.137 7.967-5.988 11.82 0 0 .04.078-.278.268-1.048 1.741-1.779 3.292-2.54 5.221-.158 2.457-.285 4.536-.412 6.615.006.762.012 1.524-.452 2.812-.717 4.543-1.153 8.56-1.128 12.575.012 1.905.903 3.806 1.395 5.708.11 1.07.219 2.14.05 3.915-.022 3.28-.036 5.919.546 8.419 1.3 5.593 2.898 11.117 4.375 16.67.098.445.196.89.045 1.963.194 2.428.635 4.228 1.077 6.03.03 4.02.059 8.04-.406 12.651-.632 2.329-.77 4.064-.909 5.8 0 0 .119.262-.287.569-2.27 5.507-4.134 10.707-5.997 15.906 0 0-.025.034-.495-.002a56.21 56.21 0 0 1-2.285-.329z"/>
  <path fill="#27221D" d="M166.06 303.822c.917 1.775 1.964 3.495 2.732 5.333 5.717 13.678 11.663 27.243 21.264 38.767 7.402 8.885 15.782 16.71 25.73 22.75a7.574 7.574 0 0 1 2.787 2.98c-.842.36-1.254.373-1.665.386-11.432-5.27-20.2-13.906-28.159-23.254-10.302-12.101-17.218-26.238-22.677-41.92a173.769 173.769 0 0 1-.013-5.042z"/>
  <path fill="#28201B" d="M376.638 409.098c-2.532.338-4.715.62-7.205.542 1.225-.979 2.765-1.576 4.285-2.222 15.432-6.561 26.791-17.08 32.783-33.082 3.543-9.46 2.14-18.868.809-28.525.407-.74.573-1.306.738-1.872 6.773 13.506 4.788 26.761-2.278 39.215-6.614 11.656-16.278 20.495-29.132 25.944z"/>
  <path fill="#261F1B" d="M114.961 390.14c-.486.28-.972.559-1.75.86-9.568-9.695-13.904-21.548-11.96-34.567 1.42-9.51 5.504-18.62 8.84-28.285.68-.59.828-.856.886-1.172 0 0 .02.023.265.018.415-.008.586-.011 1.109.006.585.043.819.065.93.443-10.049 18.742-15.237 42.027 1.68 62.696z"/>
  <path fill="#29211B" d="M224.898 377.373c4.007.51 8.17 1.288 12.299 2.219 3.78.852 7.524 1.868 11.604 1.985-4.771-3.875-9.543-7.75-14.135-11.957 2.828 1.014 5.493 2.33 8.124 3.712 6.825 3.588 13.635 7.206 20.82 11.272.358 1.367.346 2.274.334 3.182a29.056 29.056 0 0 1-2.942-.573c-.462-.193-.792-.261-.792-.261-10.926-2.51-21.858-4.992-32.766-7.575-.884-.209-1.607-1.097-2.546-2.004z"/>
  <path fill="#231D1A" d="M333.855 225.94c-3.119 2.886-6.443 5.987-10.164 8.501-11.398 7.702-23.073 14.996-34.373 22.834-4.274 2.964-7.817 6.982-12.004 10.292-.315-1.012-.319-1.798-.323-2.583 11.13-8.523 22.032-17.367 33.47-25.453 7.257-5.131 15.311-9.136 23.394-13.592z"/>
  <path fill="#26211D" d="M380.15 328.056c.352-11.06-.974-21.889-4.574-32.64 7.326 3.554 11.34 10.151 16.304 16.246.12.348.016.469-.472.6-.766.324-1.044.515-1.66.641-3.019-3.303-5.7-6.542-8.303-9.687.508 7.677 1.584 15.237 1.296 22.745-.182 4.757-2.395 9.436-3.714 13.724-.024-1.851-.03-3.275-.036-4.7 0 0 .01.015.277-.21.471-2.39.677-4.555.882-6.72z"/>
  <path fill="#25211F" d="M313.83 137.168c-7.398-8.79-14.732-17.642-22.067-26.494l-1.209.417c3.534 12.263 5.735 24.6 2.363 37.55-.663.32-.84.31-.994-.085-.182-2.089-.39-3.791-.597-5.494.013-.466.025-.932.508-1.885.102-5.375-.267-10.263-.636-15.152-.05-.172-.098-.344.114-1.033-.95-4.666-2.162-8.815-3.374-12.965 0 0 .063-.02.05-.287-.275-.754-.538-1.24-.8-1.727-.065-.16-.13-.32-.008-.829.467-.529.633-.784 1.062-1.14.88-.073 1.382-.119 2.197-.196.5-.123.688-.216.877-.308 0 0 .01.088.037.443.619.55 1.21.745 1.8.94.888.837 1.775 1.675 2.77 3.112.504 1.008.9 1.416 1.295 1.824 0 0-.095.074-.022.28.372.383.671.56.97.737 0 0-.1.085.002.289.406.389.71.574 1.012.759.303.096.536.28.798 1.117 1.767 2.018 3.436 3.47 5.105 4.924.258.214.515.428.86 1.19.475.947.862 1.345 1.25 1.743 0 0-.088.033-.019.244.35.414.63.616.91.818 0 0-.078.027-.043.337 1.348 1.769 2.66 3.228 3.973 4.687 0 0-.014.016.023.369.684 2.111 1.333 3.87 1.98 5.63l-.188.185z"/>
  <path fill="#27201A" d="M355.016 224.944c3.069-5.022 6.508-10.045 10.062-15.234-3.014 1.234-5.807 2.377-9.009 3.418 1.357-1.63 2.961-3.418 4.921-4.632 5.477-3.392 11.102-6.546 16.668-9.795l1.169 1.637c-7.814 8.202-15.627 16.405-23.811 24.606z"/>
  <path fill="#2F2721" d="M378.707 335.22c.29 1.19.296 2.614.331 4.79-.073 2.006.14 3.393-.327 4.49-5.591 13.115-13.62 24.465-24.79 33.35-.638-.35-1.142-.456-1.731-.65a56.421 56.421 0 0 0-.256-.263c12.176-11.69 22.36-24.654 26.773-41.718z"/>
  <path fill="#29231F" d="M268.315 350.062c6.723 9.836 17.472 14.752 26.477 21.809 2.124 1.665 3.483 4.306 5.195 6.89-11.609-9.073-25.883-15.303-34.769-28.533-.077-.362.028-.465.404-.384 1.149.126 1.921.172 2.693.218z"/>
  <path fill="#29231E" d="M261.944 293.987c-1.307 9.366-3.004 18.703-3.745 28.114-.336 4.266 1.224 8.682 1.541 13.442-.866.433-1.35.455-1.833.477-.978-6.382-1.956-12.764-2.643-19.743.195-1.14.1-1.682.004-2.224-.035-.484-.07-.969.171-1.974.398-.984.519-1.447.64-1.91 0 0-.054-.103.144-.216.255-.212.383-.349.355-.402-.1-.19-.255-.351-.388-.523-.027-.472-.053-.943.204-1.962.338-1.102.393-1.655.447-2.209 0 0 .079.073.353-.131.427-1.741.58-3.278.733-4.816 0 0 .04.074.3-.139.426-1.405.593-2.598.76-3.79 0 0 .014.019.251-.128.723-.728 1.208-1.309 1.946-1.878.422.011.59.012.76.012z"/>
  <path fill="#23211F" d="M291.898 148.941c.178.01.356.02.8.039-1.175 9.925-6.11 18.143-12.588 25.456-3.077 3.474-6.804 6.372-10.582 9.505 2.155-3.372 4.612-6.753 7.17-10.055a162.4 162.4 0 0 1 8.28-9.88c1.443-2.494 2.275-4.675 3.107-6.856 0 0-.043-.083.293-.292 1.397-2.778 2.459-5.347 3.52-7.917z"/>
  <path fill="#3B2E23" d="M175.16 141.918c.814 7.124 1.89 14.27 2.32 21.454.34 5.694-.113 11.435-.617 17.335-1.492-12.33-2.222-24.888-3.831-37.332-.732-5.657-3.206-11.089-4.605-16.816 1.102 1.748 1.923 3.687 2.735 5.63 1.355 3.244 2.705 6.49 4.057 9.736 0 0-.077.03-.06-.007z"/>
  <path fill="#322922" d="M315.43 198.21c1.321-3.53 3.047-7.28 4.412-11.155 5.406-15.35 4.974-30.487-1.94-45.333-.345-.742-.524-1.56-.755-2.743 10.714 18.343 9.686 37.152.325 55.997-.511 1.03-1.199 1.974-2.043 3.234z"/>
  <path fill="#1A1714" d="M408.065 343.547c-.182.958-.348 1.523-1.015 1.994-1.397-2.859-1.971-5.783-3.25-8.357-3.175-6.391-6.672-12.623-9.657-19.007.904-.129 1.426-.17 1.948-.212 6.042 7.424 9.274 16.185 11.974 25.582z"/>
  <path fill="#1A1A1A" d="M175.161 141.594c-1.294-2.915-2.644-6.16-4-9.405-.811-1.943-1.632-3.882-2.75-6.005-1.003-1.896-1.705-3.61-2.434-5.982-.314-1.169-.602-1.68-.89-2.192 0 0-.08-.007-.076-.458.025-1.552.046-2.652.068-3.752 3.342 9.155 6.683 18.31 10.082 27.794z"/>
  <path fill="#080808" d="M326.984 398.91c-.15-.286-.361-.514-.783-1.019-.148-.503-.15-.671-.153-.839 7.024-5.049 14.048-10.098 21.688-14.934.788.377.96.541.832.893-7.394 5.425-14.49 10.662-21.584 15.9z"/>
  <path fill="#3B2E23" d="M169.478 219.113c-.98 5.326-2.262 10.907-3.418 16.514-1.382 6.709-2.658 13.44-4.324 20.288 2.27-12.093 4.883-24.314 7.742-36.802zM166.036 303.42c.011 1.817-.001 3.232-.009 5.07-1.914-7.966-3.833-16.356-5.636-25.145.931 3.33 1.743 7.06 2.561 10.788.176.797.378 1.588.89 2.604.94 2.243 1.555 4.262 2.194 6.684z"/>
  <path fill="#1A1A1A" d="M171.972 117.116c-2.24-1.572-4.48-3.144-7.186-4.414-.875.288-1.284.273-1.754-.07-.706-1.456-1.35-2.585-2.037-4.028-.024-1.407-.008-2.5.178-3.348.726.407 1.283.571 1.84.735.904.796 1.809 1.591 2.971 2.897.569.672.88.833 1.19.995 0 0-.1.009.013.248.648.46 1.184.682 1.72.903.3.147.601.294 1.032 1.026.922 1.349 1.715 2.112 2.507 2.875 0 0 .055.134-.103.673-.23.862-.3 1.185-.371 1.508z"/>
  <path fill="#28201B" d="M115.953 318.878c2.777-3.207 5.553-6.414 8.679-9.761.35-.142.37-.132.098.107-3.004 4.506-5.737 8.774-8.54 12.97-.068-.07-.207-.21-.204-.598-.01-1.165-.021-1.942-.033-2.718z"/>
  <path fill="#4A280D" d="M264.351 387.877c-.395-.999-.383-1.906-.383-3.152 4.92 1.122 9.853 2.582 14.786 4.043a20857 20857 0 0 1-.28 1.325c-4.573-.708-9.144-1.416-14.123-2.216z"/>
  <path fill="#37291F" d="M338.592 281.587c-.597-1.443-1.488-3.344-1.5-5.25-.025-4.014.41-8.031.984-12.217.425 5.557.523 11.282.516 17.467zM343.518 310.665c-1.537-5.168-3.134-10.692-4.435-16.285-.582-2.5-.568-5.139-.614-8.018 1.844 7.77 3.477 15.843 5.05 24.303z"/>
  <path fill="#231D1A" d="M270.92 273.941a129.072 129.072 0 0 1-7.272 15.048c.586-3.325 1.506-6.56 2.426-9.797 1.516-1.839 3.033-3.678 4.846-5.25z"/>
  <path fill="#1A1A1A" d="M197.628 144.81c-2.826-3.365-5.651-6.73-8.537-10.467-.06-.372.03-.456.365-.381 1.429.379 2.523.684 3.618.988 0 0-.063.044.037.24.282.49.538.694.865.806 0 0 .025-.004.048.285.493.765.962 1.242 1.432 1.718.126.16.252.321.497 1.077.698 1.058 1.277 1.522 1.856 1.986 0 0 .15.031.143.551a73.238 73.238 0 0 1-.324 3.197z"/>
  <path fill="#1B1B1B" d="M324.813 366.787c2.414-3.384 4.829-6.768 7.617-9.913.43 1.181.485 2.123.54 3.066 0 0 .032.052-.322.099-.768.729-1.18 1.412-1.594 2.095-.176.544-.353 1.088-1.115 1.785-1.04.778-1.497 1.404-1.953 2.03 0 0 .012.056-.233.177-.39.414-.536.71-.68 1.004 0 0-.008-.099-.362-.108-.87-.084-1.384-.16-1.898-.235z"/>
  <path fill="#3B2E23" d="M176.04 186.41c-.674 5.458-1.45 11.308-2.524 17.376.61-5.515 1.515-11.249 2.524-17.375z"/>
  <path fill="#3E3128" d="M223.896 211.563c-1.33-5.968-2.61-12.359-3.872-19.18a542.995 542.995 0 0 1 3.872 19.18z"/>
  <path fill="#332820" d="M265.813 279.398c-.66 3.03-1.58 6.266-2.346 9.904.153.4.127.39-.21.305-1 1.395-1.663 2.876-2.326 4.356-.485.581-.97 1.162-1.704 1.887 1.942-5.319 4.134-10.782 6.586-16.452z"/>
  <path fill="#3E3128" d="M219.106 187.545c-1.832-4.778-3.657-9.963-5.255-15.351 1.905 4.845 3.583 9.895 5.255 15.351z"/>
  <path fill="#37291F" d="M337.252 353.76a217.411 217.411 0 0 1 5.64-15.581c-1.575 4.997-3.472 10.185-5.64 15.581z"/>
  <path fill="#3C2F25" d="M291.143 126.453c.424 4.46.793 9.35.848 14.407-.51-4.547-.707-9.263-.848-14.407z"/>
  <path fill="#29211B" d="M235.1 368.978c-2.921-2.27-5.47-4.744-7.703-7.506a46.44 46.44 0 0 1 7.702 7.506z"/>
  <path fill="#3C2F25" d="M291.923 148.556c-1.086 2.955-2.148 5.524-3.5 8.287.705-4.202 1.703-8.597 2.802-13.386.309 1.308.516 3.01.698 5.099z"/>
  <path fill="#1A1A1A" d="M180.98 125.069c-2.559-2.157-5.117-4.314-7.67-6.966.69-.416 1.375-.338 2.06-.26 1.477 1.129 2.954 2.257 4.654 4.003.467 1.486.712 2.354.956 3.223zM188.987 134.012c-1.958-2.097-3.87-4.236-5.653-6.788.66-.693 1.189-.972 1.719-1.252 1.142 1.557 2.284 3.114 3.687 5.232.3 1.268.34 1.975.38 2.683l-.133.125z"/>
  <path fill="#342921" d="M313.608 403.965a198.87 198.87 0 0 1-12.367 6.882c3.755-2.295 7.88-4.563 12.367-6.882z"/>
  <path fill="#3B2E23" d="M172.893 205.306a119.16 119.16 0 0 1-2.842 13.36c.621-4.271 1.6-8.679 2.842-13.36z"/>
  <path fill="#3C2F25" d="M287.95 112.432c1.2 3.745 2.411 7.894 3.392 12.293-1.28-3.796-2.33-7.842-3.391-12.293z"/>
  <path fill="#403228" d="M342.16 248.625a144.635 144.635 0 0 1 5.624-11.458c-1.57 3.664-3.467 7.45-5.623 11.458z"/>
  <path fill="#29231E" d="M263.054 346.94c-1.618-3.075-3.236-6.15-4.562-9.405 1.54 1.057 2.787 2.295 4.035 3.533 0 0 .273.225.088.71.092 1.973.37 3.461.595 5.002l-.156.16z"/>
  <path fill="#25211D" d="M318.502 375.647c.053-1.165.434-2.31 1.491-3.56 1.402-.153 2.128-.203 2.884-.22l.09.099c-1.379 1.234-2.757 2.468-4.465 3.681z"/>
  <path fill="#1C1918" d="M184.908 125.672c-.385.58-.915.86-1.723 1.252-.856-.362-1.434-.837-2.109-1.584-.34-1.14-.585-2.008-.923-3.206 1.474.86 3.042 2.049 4.755 3.538z"/>
  <path fill="#3E3128" d="M212.08 166.584c-1.339-2.397-2.7-5.165-4.042-8.317 1.352 2.393 2.686 5.169 4.042 8.317z"/>
  <path fill="#23211F" d="M290.126 107.88c-.502.045-1.004.091-2.101.043-1.013-.37-1.43-.647-1.847-.924.052-.671.104-1.343.807-2.016a66.412 66.412 0 0 0 2.105-.073s-.037.095.05.292c.361.388.637.58.913.771 0 0-.055.023-.05.324.045.728.084 1.155.123 1.582z"/>
  <path fill="#28211C" d="M248.773 208.314c-.815 2.3-1.894 4.803-3.236 7.504.816-2.302 1.894-4.801 3.236-7.504z"/>
  <path fill="#101010" d="M262.371 340.802c-1.092-.972-2.339-2.21-3.865-3.624-.361-.33-.443-.484-.562-.898.447-.282.93-.304 1.777-.32 1.074 1.528 1.784 3.051 2.65 4.842z"/>
  <path fill="#342921" d="M310.261 414.28c2.852.045 5.991.36 9.362.935-2.87-.048-5.972-.358-9.362-.936z"/>
  <path fill="#403228" d="M349.988 230.15a45.02 45.02 0 0 0 2.86-1.574 36.018 36.018 0 0 1-2.626 5.19c-.31.144-.43.02-.356-.335.09-1.331.106-2.307.122-3.282z"/>
  <path fill="#28211C" d="M240.38 246.55c.49 2.031.894 4.443 1.065 7.117-.54-2.07-.846-4.403-1.065-7.117z"/>
  <path fill="#322922" d="M314.369 136.976c-1-1.753-1.648-3.512-2.323-5.629 1.301 1.402 2.63 3.161 4.018 5.26-.408.348-.876.355-1.695.369z"/>
  <path fill="#2B2119" d="m159.02 105.939-2.947-4.242.624-.742c1.046.79 2.091 1.58 3.027 2.833a42.211 42.211 0 0 1-.705 2.151z"/>
  <path fill="#2F2721" d="M379.91 328.355c.035 1.865-.17 4.03-.651 6.418-.047-1.89.18-4.004.65-6.418z"/>
  <path fill="#26211D" d="M396.043 317.625c-.474.382-.996.423-1.877.544-.36.08-.404.096-.349-.268-.603-2.167-1.262-3.969-1.921-5.77 0 0 .103-.12.157-.18a68.5 68.5 0 0 1 3.99 5.674z"/>
  <path fill="#3B2E23" d="M161.185 258.416c.064 1.868.017 4.121-.346 6.507-.132-1.952.05-4.037.346-6.507z"/>
  <path fill="#37291F" d="M344.647 318.668c-.509-1.427-.95-3.227-1.196-5.314.552 1.456.907 3.198 1.196 5.314z"/>
  <path fill="#28211C" d="M241.15 232.454a51.472 51.472 0 0 1-.53 6.122c.017-1.744.215-3.751.53-6.122z"/>
  <path fill="#332820" d="M276.698 265.11c.297.66.301 1.445.322 2.622.025.716-.09.986-.954 1.228a21.13 21.13 0 0 1-2.265-.195c.868-1.176 1.736-2.352 2.897-3.655z"/>
  <path fill="#28211C" d="M266.295 246.823c1.124-1.518 2.555-3.136 4.326-4.788-1.114 1.54-2.566 3.114-4.326 4.788z"/>
  <path fill="#322922" d="M304.915 121.684a41.764 41.764 0 0 1-4.855-4.432c1.551 1.148 3.12 2.65 4.855 4.432z"/>
  <path fill="#2A241F" d="M160.864 380.357c.055-.557.11-1.113.214-2.089 1.27.413 2.49 1.245 3.832 2.39.122.314.024.404-.259.4-.733.292-1.182.587-1.901.819-.809-.549-1.348-1.035-1.886-1.52z"/>
  <path fill="#3C2F25" d="M287.839 157.38a41.012 41.012 0 0 1-2.575 6.456c.56-1.98 1.445-4.103 2.575-6.456z"/>
  <path fill="#241E1A" d="M163.094 112.96c.408.015.817.03 1.532.043.306-.002.429.389.44.593-.009 1.304-.03 2.404-.051 3.916-.644-.736-1.288-1.883-1.944-3.585-.012-.556.023-.967.023-.967z"/>
  <path fill="#342921" d="M300.288 410.79c1.01.545 1.682 1.116 2.536 1.957-.95.222-2.098.267-3.207.08-.45-.077-.815-.659-1.219-1.01.518-.334 1.036-.667 1.89-1.026z"/>
  <path fill="#322922" d="M311.957 130.658c-1.255-1.133-2.568-2.592-3.89-4.393 1.27 1.127 2.551 2.597 3.89 4.393z"/>
  <path fill="#28211C" d="M244.856 216.587c-.248 1.86-.775 3.908-1.571 6.183.251-1.847.772-3.92 1.57-6.183z"/>
  <path fill="#1C1918" d="M189.456 133.962c-.375-.783-.415-1.49-.457-2.553 1.25.76 2.503 1.874 3.915 3.265-.935-.028-2.029-.333-3.458-.712z"/>
  <path fill="#37291F" d="M338.795 260.575c.004-1.703.13-3.782.507-6.222.248-.361.687-.355.687-.355a273.208 273.208 0 0 1-1.194 6.577z"/>
  <path fill="#403228" d="M340.241 253.769c-.252.229-.69.223-.909.206.513-1.568 1.244-3.119 2.25-4.846-.179 1.353-.634 2.882-1.34 4.64z"/>
  <path fill="#28201B" d="M112.84 323.452c.189-.438.377-.876 1.15-1.392 1.054-.078 1.523-.077 1.993-.077 0 0 .139.141.121.548-.877 1.77-1.737 3.135-2.746 3.91-.271-1.388-.394-2.189-.517-2.99z"/>
  <path fill="#080808" d="M348.096 382.085c.227-1.131.71-2.016 2.166-2.921 1.432.057 1.89.134 2.098.505a149.543 149.543 0 0 1-3.493 3.154l-.77-.738z"/>
  <path fill="#37291F" d="M343.48 337.191c-.076-1.433.062-3.168.505-5.074.107 1.477-.09 3.124-.504 5.074z"/>
  <path fill="#29211B" d="M225.043 360.6c.139-.9.43-1.474.856-2.344.829.591 1.525 1.478 2.048 2.683-1.032.208-1.892.096-2.904-.34z"/>
  <path fill="#2B2119" d="M163.032 112.632c.062.328.027.739.03.944a21.424 21.424 0 0 1-2.48-4.287.611.611 0 0 1 .454-.37c.645 1.128 1.29 2.257 1.996 3.713z"/>
  <path fill="#28211C" d="M243.315 274.299c.742-.301 1.415-.293 2.425-.27-.288.845-.914 1.676-1.54 2.507-.318-.642-.636-1.285-.885-2.237z"/>
  <path fill="#241E1A" d="M160.995 108.604c.041.315-.277.356-.436.368-.602-.774-1.045-1.56-1.513-2.689.171-.907.37-1.47.829-2.196.26-.163.708-.067.92.222.213.29.208.703.208.703-.016 1.093-.032 2.185-.008 3.592z"/>
  <path fill="#231D1A" d="M273.949 270.826c-.565 1.464-1.285 2.516-2.345 3.44-.617-.588-.896-1.048-.621-1.926a31.794 31.794 0 0 0 1.938-1.805c.29-.04.582-.08 1.028.291z"/>
  <path fill="#2B2119" d="M175.266 117.507c-.58.258-1.265.18-2.116.303-.518.195-.8.05-1.095-.464-.012-.553.059-.876.306-1.669 1.051.185 1.926.84 2.905 1.83z"/>
  <path fill="#2A241F" d="M115.986 321.596c-.473.387-.942.386-1.765.37.153-.936.658-1.857 1.448-2.933.296.621.307 1.398.317 2.563z"/>
  <path fill="#28211C" d="M242.617 268.295c.43.568.716 1.415.803 2.445-.449-.6-.698-1.382-.803-2.445z"/>
  <path fill="#25211D" d="M324.84 366.792c.487.07 1.002.146 1.906.264-.11.93-.61 1.818-1.432 2.824-.321.117-.416.024-.382-.366a48.948 48.948 0 0 0-.115-2.73s.05.013.023.008z"/>
  <path fill="#332820" d="M257.639 300.154c.135 1.294-.018 2.83-.499 4.574-.148-1.307.032-2.819.499-4.574z"/>
  <path fill="#3E3128" d="M213.867 170.679c-.62-.799-1.232-1.932-1.817-3.412.626.794 1.226 1.936 1.817 3.412z"/>
  <path fill="#342921" d="M325.723 397.06c.327.16.33.328.262.738-1.089.569-2.107.895-3.45 1.244.738-.643 1.8-1.309 3.188-1.982z"/>
  <path fill="#332820" d="M258.717 296.212c.103.961-.064 2.154-.532 3.553-.113-.97.074-2.146.532-3.553z"/>
  <path fill="#2B2119" d="M172.383 114.607c-.73-.435-1.522-1.198-2.334-2.313.743.427 1.507 1.206 2.334 2.313z"/>
  <path fill="#342921" d="M320.647 400.043c-.592.59-1.516 1.223-2.808 1.842.58-.61 1.528-1.206 2.808-1.842z"/>
  <path fill="#29231E" d="M265.088 349.918c-.65-.763-1.248-1.577-1.94-2.685-.094-.294.01-.4.447-.415a9.449 9.449 0 0 0 1.834-.647s.258.165.09.65a23.529 23.529 0 0 0-.273 2.942l-.158.155z"/>
  <path fill="#231D1A" d="M273.815 268.781c.533.057 1.08.13 2.039.257-.055.793-.52 1.533-1.292 2.143-.484-.127-.66-.124-.796-.796.055-.967.07-1.259.086-1.55 0 0-.022-.037-.037-.054z"/>
  <path fill="#28211C" d="M248.328 269.96c.205-.773.682-1.726 1.475-2.804-.19.792-.696 1.708-1.475 2.805z"/>
  <path fill="#2A241F" d="M112.594 323.697c.37.555.493 1.356.736 2.753.12.597.074.634-.127.433-.535-.102-.87-.003-1.204.096-.171.004-.342.007-.769.002.202-1.018.66-2.028 1.364-3.284z"/>
  <path fill="#1C1918" d="M197.655 144.801c.08-.883.185-1.776.27-3.116.618.266 1.255.98 1.991 2 .1.305.012.395-.398.424-.905.252-1.4.476-1.894.7 0 0 .057-.017.03-.008z"/>
  <path fill="#3E3128" d="M205.744 152.773c-.585-.49-1.159-1.29-1.734-2.426.58.481 1.163 1.3 1.734 2.426zM220.072 191.61c-.358-.734-.704-1.834-1.022-3.308.362.73.698 1.836 1.022 3.307z"/>
  <path fill="#25211D" d="M333.22 359.775c-.305-.778-.36-1.72-.508-3.126-.092-.463-.051-.446.269-.23.855.306 1.39.394 1.977.534l.159.152c-.55.835-1.098 1.67-1.897 2.67z"/>
  <path fill="#1E1814" d="M224.11 246.256c-.169-.71-.1-1.553.043-2.631a7.488 7.488 0 0 1-.042 2.63z"/>
  <path fill="#25211D" d="M334.211 353.662c.595.074 1.2.171 2.265.286.023.948-.413 1.879-1.104 2.983-.255.174-.362.073-.392-.405-.279-1.284-.527-2.09-.775-2.895 0 0 .016.056.006.031z"/>
  <path fill="#28211C" d="M242.727 223.239c.143.94.01 2.103-.37 3.513-.133-.932-.02-2.112.37-3.513z"/>
  <path fill="#25211D" d="M325.04 370.044c-.472.622-.99 1.196-1.79 1.846-.283.076-.343.01-.28-.315.684-.773 1.306-1.222 1.928-1.671l.142.14zM328.262 365.863c.18-.54.636-1.166 1.41-1.827-.166.556-.65 1.148-1.41 1.827zM331.32 362.003c.147-.552.56-1.235 1.298-1.974-.127.578-.58 1.21-1.298 1.974z"/>
  <path fill="#28211C" d="M264.3 248.927c-.277-.334-.285-.783-.286-1.569.431-.345.855-.354 1.595-.368-.136.603-.589 1.212-1.31 1.937z"/>
  <path fill="#1E1814" d="M224.37 219.435c-.23-.345-.315-.904-.444-1.664.166.35.376.9.443 1.664z"/>
  <path fill="#3C2F25" d="M285.56 102.878c-.098.312-.287.495-.476.679.13-.27.258-.539.477-.679z"/>
  <path fill="#28211C" d="M242.15 263.428c.26.451.419 1.247.404 2.246-.284-.499-.395-1.2-.404-2.246z"/>
  <path fill="#3C2F25" d="M288.993 104.638c-.388.296-.872.32-1.72.324.299-.212.96-.404 1.72-.324z"/>
  <path fill="#1C1918" d="M161.173 105.256c-.17-.244-.165-.658-.164-.865.594.216 1.188.638 1.893 1.33-.446.106-1.003-.058-1.73-.465zM195.428 137.735c-.442-.212-.911-.69-1.403-1.442.444.209.91.693 1.403 1.442zM197.77 140.779c-.54-.18-1.119-.645-1.737-1.408.54.175 1.118.65 1.736 1.408z"/>
  <path fill="#28211C" d="M258.305 255.967c.202-.532.669-1.2 1.475-1.894-.176.57-.693 1.164-1.475 1.894z"/>
  <path fill="#403228" d="M348.562 236.201c-.36-.521-.52-1.257-.822-2.54-.142-.545-.12-.517.175-.27.822.297 1.35.346 1.876.396l.18.185c-.363.712-.786 1.363-1.41 2.23z"/>
  <path fill="#3C2F25" d="M286.147 107.291c.448-.015.865.262 1.5.659.166.45 0 .705-.497.976-.49-.388-.762-.865-1.003-1.635z"/>
  <path fill="#27201A" d="M380.53 198.003c-.001.092-.214-.001-.214-.001s.216-.091.214 0z"/>
  <path fill="#3C2F25" d="M292.995 108.672c-.432.056-1.023-.139-1.672-.656.466-.08.99.162 1.672.656z"/>
  <path fill="#28211C" d="M261.558 191.784c-.15.366-.605.756-1.388 1.15.143-.372.613-.75 1.388-1.15zM262.7 190.08c.07.438-.139 1.01-.65 1.68-.079-.45.147-.998.65-1.68z"/>
  <path fill="#3B2E23" d="M176.376 182.82c.204.375.242 1.021.06 1.917-.223-.382-.224-1.013-.06-1.917z"/>
  <path fill="#3E3128" d="M207.05 155.671c-.325-.156-.677-.62-1.035-1.397.332.155.671.622 1.036 1.397z"/>
  <path fill="#1C1918" d="M200.06 143.946c.332.446.62.935.939 1.725.031.301-.018.339-.27.178-.435-.697-.618-1.233-.801-1.77l.132-.133z"/>
  <path fill="#2B2521" d="M165.082 380.93c.415.346.78.737 1.295 1.347.15.22-.107.483-.487.442-.572-.579-.764-1.118-.956-1.657 0 0 .098-.09.148-.133z"/>
  <path fill="#3C2F25" d="M287.157 110.308c.293.192.556.678.806 1.453-.287-.193-.562-.676-.806-1.453zM297.165 113.575c-.342-.124-.738-.532-1.153-1.248.353.117.727.54 1.153 1.248z"/>
  <path fill="#322922" d="M307.141 124.615c-.336-.115-.723-.513-1.148-1.206.341.11.718.516 1.148 1.206z"/>
  <path fill="#241E1A" d="M165.081 118.318c.294.204.582.715.86 1.538-.295-.202-.58-.716-.86-1.538z"/>
  <path fill="#28211C" d="M255.077 199.203c.207.127.272.357.26.583-.004.065-.234.116-.516.203-.221-.258-.14-.496.256-.786z"/>
  <path fill="#2B2119" d="M168.774 110.777c-.403.036-.939-.186-1.572-.694.415-.045.927.196 1.572.694z"/>
  <path fill="#29231E" d="M217.07 374.288c.25-.263.661-.277 1.382-.29.31 0 .45.366.481.557-.546.121-1.124.052-1.864-.267z"/>
  <path fill="#28211C" d="M278.317 235.935c.016-.435.303-1.045.942-1.736.01.467-.33 1.013-.942 1.736zM262.165 251.542c-.013-.386.233-.84.731-1.39.01.379-.23.851-.73 1.39z"/>
  <path fill="#3C2F25" d="M290.439 107.848c-.352-.396-.391-.823-.416-1.573.4.035.787.393 1.232 1.008-.128.35-.316.442-.816.565z"/>
  <path fill="#28211C" d="M241.53 260.423c.232.136.36.47.528.979-.184-.145-.407-.462-.527-.98z"/>
  <path fill="#332820" d="M272.594 270.595c-.135.402-.596.864-1.414 1.352.125-.414.606-.854 1.414-1.352zM255.202 314.368c.162.227.257.77.162 1.455-.204-.286-.216-.713-.162-1.455zM256.596 305.025c.19.386.136.94-.113 1.696-.174-.374-.153-.951.113-1.696zM255.847 310.29c.11.342-.01.805-.302 1.438-.091-.326-.01-.821.302-1.438z"/>
  <path fill="#3C2F25" d="M298.077 114.632c-.21.067-.509-.11-.867-.551.22-.074.5.116.867.551z"/>
  <path fill="#0D0D0D" d="M352.612 379.375c-.46-.077-.918-.154-2.068-.337-.53-.408-.299-.642.636-.558.898.496 1.162.744 1.401.965-.024-.026.031-.07.031-.07z"/>
  <path fill="#342921" d="M323.276 415.802c-.01-.4.25-.455.627-.08.079.142-.397.14-.627.08z"/>
  <path fill="#2B2119" d="M167.07 109.638c-.207.083-.517-.078-.931-.49.207-.084.517.08.931.49z"/>
  <path fill="#4A280D" d="M260.257 387.091c-.047-.14.283-.071.36-.053.075.019-.04.285-.04.285s-.273-.093-.32-.232z"/>
  <path fill="#3C2F25" d="M289.979 105.725c-.202.057-.478-.135-.832-.573.2-.056.479.134.832.573z"/>
  <path fill="#28211C" d="M241.3 230.28c.338-.031.405.197.148.556-.11.082-.204-.345-.147-.556z"/>
  <path fill="#332820" d="M256.114 309.274c.21-.074.363.087.464.277.028.053-.1.19-.3.382-.176-.076-.208-.244-.164-.66zM273.604 268.98c.233.146.217.438.078 1.153-.191-.053-.259-.53-.078-1.152z"/>
  <path fill="#28211C" d="M254.328 261.22c-.084-.174.05-.532.427-1.049.091.182-.06.524-.427 1.05z"/>
  <path fill="#2A241F" d="M110.749 327.064c.17.228.021.493-.413.834-.212-.226-.086-.517.413-.834z"/>
  <path fill="#1E1814" d="M223.116 257.619c-.12-.054.01-.187.013-.229.002-.042.242.06.242.06s-.134.222-.255.169z"/>
  <path fill="#28211C" d="M263.303 250.025c-.069-.19.103-.485.51-.89.068.187-.101.487-.51.89z"/>
  <path fill="#1E1814" d="M223.795 248.727c-.374.062-.465-.168-.217-.557.113-.09.273.337.217.557z"/>
  <path fill="#3C2F25" d="M299.066 115.685c-.189.054-.492-.131-.872-.58.2-.063.479.14.872.58z"/>
  <path fill="#28211C" d="M241.865 227.18c.108.131.027.291-.155.544-.276-.124-.253-.326.155-.543z"/>
  <path fill="#1E1814" d="M223.767 215.706c-.383.025-.444-.209-.142-.571.12-.081.221.36.142.571z"/>
  <path fill="#25211D" d="M327.307 367.026c-.09-.19.056-.486.418-.905.083.184-.05.492-.418.905z"/>
  <path fill="#1C1918" d="M193.886 135.762c-.237.122-.493-.081-.764-.608.166-.03.42.171.764.608z"/>
  <path fill="#322922" d="M307.997 125.711c-.194.047-.474-.155-.821-.616.2-.05.467.159.821.616z"/>
  <path fill="#2A241F" d="M161.041 377.678c-.2.06-.501-.13-.9-.575.2-.061.5.132.9.575z"/>
  <path fill="#2F2721" d="M351.405 378.372c-.253-.649-.097-.94.294-1.334.235-.101.406.074.417.723.142 1.004.272 1.36.422 1.681.02-.033.067.03.067.03-.263-.248-.527-.496-1.2-1.1z"/>
  <path fill="#9B3924" d="M403.825 112.187a79042.75 79042.75 0 0 0-24.304-29.685l1.161-1.569 28.7 13.086 58.491-55.708 1.204.935-56.309 83.861c-3.128-3.815-5.926-7.228-8.943-10.92z"/>
  <path fill="#1A1A1A" d="M199.518 144.109c.593.507.776 1.043 1.186 1.758.429 1.357.632 2.537.603 3.91-1.229-1.385-2.226-2.965-3.453-4.756.264-.436.759-.66 1.664-.912z"/>
  <path fill="#1B1B1B" d="M324.932 369.514c-.656.839-1.278 1.288-1.992 2.028-.819.342-1.545.392-2.637.44 1.07-1.62 2.507-3.236 4.229-5.025.335.607.384 1.387.4 2.557z"/>
  <path fill="#101010" d="M265.25 345.939c-.286.442-.752.652-1.603.825-.662-1.525-.94-3.013-.983-4.815.958 1.042 1.682 2.4 2.586 3.99z"/>
  <path fill="#231D1A" d="M261.184 293.975a13.351 13.351 0 0 1 2.085-4.36c-.056 1.356-.461 2.619-1.096 4.127-.398.245-.567.244-.989.233z"/>
  <path fill="#101010" d="M265.622 349.844c-.34-.9-.306-1.718-.036-2.884.996.602 1.76 1.553 2.626 2.803-.669.253-1.441.207-2.59.08z"/>
  <path fill="#1B1B1B" d="M349.866 233.43c-.602.307-1.129.258-1.97-.047.288-1.26.89-2.264 1.791-3.25.285.991.27 1.967.179 3.298zM334.061 353.843c.392.593.64 1.399.866 2.632-.556.338-1.091.25-1.97-.063.09-.934.526-1.645 1.104-2.569z"/>
  <path fill="#FCFDFC" d="M113.478 327.038c.889-1.372 1.749-2.736 2.695-4.437a430.126 430.126 0 0 1 8.549-13.388c2.008-1.553 3.752-2.856 6.88-5.194-6.725 32.323 6.267 56.07 28.945 76.206.855.617 1.394 1.103 2.397 1.925 1.19 1.117 1.917 1.896 2.643 2.675l39.28 26.495c-22.72 2.363-46.168 4.99-68.745-5.28-7.994-3.637-15.092-8.55-20.903-15.692-17.175-20.878-11.987-44.163-1.96-62.92.1-.368.145-.344.145-.344s.046-.037.074-.046z"/>
  <path fill="#28211C" d="M165.712 384.375c-.851-.329-1.578-1.108-2.498-2.161.255-.569.704-.864 1.437-1.155.475.542.667 1.081 1.1 1.783.19.469.137.776-.04 1.533z"/>
  <path fill="#FCFDFC" d="M352.581 379.445c.024.026-.023-.036.141-.068.553-.449.942-.866 1.33-1.283 11.038-9.129 19.068-20.48 24.659-33.593.467-1.098.254-2.485.345-4.063 1.29-5.04 3.503-9.72 3.685-14.477.288-7.508-.788-15.068-1.296-22.745 2.603 3.145 5.284 6.384 8.517 9.918 1.635 1.907 2.717 3.52 3.8 5.131l.021-.008c3.345 6.304 6.842 12.536 10.017 18.927 1.279 2.574 1.853 5.498 3.008 8.532 1.832 9.752 3.236 19.16-.307 28.62-5.992 16.002-17.351 26.52-32.783 33.082-1.52.646-3.06 1.243-4.7 2.207-14.793 3.28-29.59 4.6-44.55 3.336-5.509-.466-11-1.128-17.803-1.836 7.455-4.419 13.637-8.083 20.07-11.98a3702.586 3702.586 0 0 1 21.833-16.134 77.1 77.1 0 0 0 3.792-3.342c.252-.294.197-.25.221-.224z"/>
  <path fill="#28201B" d="M113.203 326.883c.2.201.156.177.178.191-.211-.009-.445-.031-1.03-.074-.018-.12.317-.219.852-.117z"/>
  <path fill="#1A1714" d="M393.817 317.9c-1.138-1.247-2.22-2.86-3.517-4.702.064-.421.342-.612 1.108-.935 1.147 1.67 1.806 3.471 2.41 5.638z"/>
  <path fill="#080808" d="M353.92 377.85c-.256.661-.645 1.078-1.218 1.56-.314-.29-.444-.645-.5-1.56.577-.456 1.081-.35 1.718 0z"/>
</svg>
