<svg xmlns="http://www.w3.org/2000/svg" viewBox="0 0 512 512" xml:space="preserve">
  <path fill="#FEFEFE" d="M1 141V1h512v512H1V141m468.3-12.6a65 65 0 0 0 11.4-88 65.1 65.1 0 0 0-70.3-23.8 77.6 77.6 0 0 0-34.5 22.8c-6.2-3-12.3-6.3-18.7-8.7-13.7-5.2-27.4-10.4-41.3-14.6-15.2-4.6-31-6-46.8-6.6-22.4-.8-44.6 0-66.5 5.2-23.8 5.6-46.6 14-67.9 26a215.3 215.3 0 0 0-45 32.5 314 314 0 0 0-31.1 34.1 238.5 238.5 0 0 0-25.2 40 323.4 323.4 0 0 0-17.5 47.5 143.3 143.3 0 0 0-6.6 35.1c-.8 20.2-.6 40.6 1 60.7 1 13.3 4.4 26.6 8.4 39.3 7 22.2 15.8 43.7 29.3 62.9 7.5 10.7 15 21.6 24 31.2 9.1 10 19.9 18.4 30 27.5 14 12.5 30 21.9 46.9 29.7 12.1 5.6 24.9 10.3 37.8 14A244.5 244.5 0 0 0 303 501c19.7-4 39.1-9 57.2-18 18.7-9.3 36.3-20 52.6-33.1a234.7 234.7 0 0 0 48.7-52.6c14.4-21.6 27-44.5 32.9-70.3 3.1-14 6.8-28 8.3-42 2.4-23 2.5-46.3-1.9-69.1-2.5-13.5-5.7-27-9.7-40.1-5-16.7-13.4-31.9-22-47.4z"/>
  <path fill="#150F0B" d="M469 129c8.8 15 17.1 30.1 22.2 46.8 4 13.1 7.2 26.6 9.7 40 4.4 23 4.3 46.1 1.9 69.1-1.5 14.2-5.2 28.1-8.3 42-5.8 25.9-18.5 48.8-33 70.4a234.7 234.7 0 0 1-48.6 52.6 287.6 287.6 0 0 1-52.6 33 233 233 0 0 1-57.2 18 244.9 244.9 0 0 1-116.4-5.8 259.4 259.4 0 0 1-37.8-14c-16.9-7.7-33-17.1-47-29.6-10-9-20.8-17.5-30-27.5-8.8-9.6-16.4-20.5-23.9-31.2a225.4 225.4 0 0 1-29.3-62.9c-4-12.7-7.3-26-8.4-39.3a505.4 505.4 0 0 1-1-60.7c.5-11.8 3.1-23.7 6.6-35.1a323.4 323.4 0 0 1 17.5-47.6c6.8-14 15.7-27.4 25.2-39.9a314 314 0 0 1 31-34.1c13.4-13 28.9-23.4 45.1-32.6 21.3-12 44-20.3 67.9-26 21.9-5 44-6 66.5-5.1 15.9.5 31.6 2 46.8 6.6 14 4.2 27.6 9.4 41.3 14.6 6.4 2.4 12.5 5.8 18.9 9.3-.3 1.2-.7 1.7-1.5 2a243 243 0 0 0-169.7-24.7A244.8 244.8 0 0 0 11.9 278c4.3 51.7 22.9 97.8 56.6 137.1 55.1 64.1 125.8 93 209.7 86.3 68.2-5.5 124.6-36 168-89 36.8-45 55-96.8 55-155.4 0-45.4-11.6-87.1-34.3-126.3l2-1.8z"/>
  <path fill="#9C3C27" d="M374.9 42.2c.5-.5 1-1 1.4-2a69.4 69.4 0 0 1 34-23.6 65.1 65.1 0 0 1 70.4 23.7 65.2 65.2 0 0 1-14.1 90.5l-4.4 2.5a63 63 0 0 1-83.4-14.2 62 62 0 0 1-14-49.2c1.3-10 5.6-18.9 10.1-27.7m-3.5 49.6.5 2a58.7 58.7 0 1 0-.5-2z"/>
  <path fill="#D87A26" d="M374.6 42c-4.2 9-8.5 17.9-9.9 28a62 62 0 0 0 14.1 49 63 63 0 0 0 83.4 14.3c1.3-.8 2.6-1.5 4.3-2.2 23.1 38.9 34.8 80.6 34.8 126 0 58.6-18.3 110.4-55.1 155.4a234.6 234.6 0 0 1-168 89c-83.9 6.6-154.6-22.2-209.7-86.3a235.9 235.9 0 0 1-56.7-137.1 244.8 244.8 0 0 1 193-260.8A243 243 0 0 1 374.7 42m-24 336.2-1.3 1c-.5.9-1 1.8-2.2 2.7-7 5-14 10.1-21.7 15.2-1 .6-2.1 1.3-3.7 2-.3.3-.5.6-1.4 1-1 .6-1.9 1.2-3.4 1.9-1 .6-2 1.3-3.7 2-4 2.3-8.2 4.6-12.4 6.7l-.8.1-1.6 1c.4.4.8 1 1.2 1 1.1.2 2.3.2 4 .7 2.2.2 4.3.3 7 1 3 .4 6.2.7 10 1.3h3l1.2.3 5 .4c16 .5 31.7-.4 47.2-7.5a59.7 59.7 0 0 0 28.8-25.8c7-12.5 9-25.8 2.3-40-2.7-9-6-17.8-12.1-26l-4.2-5.9c-4.9-5.7-8.9-12.3-16.2-15.9A83.7 83.7 0 0 1 379 335l-.6.5a85.4 85.4 0 0 1-27 41.6c0 .3-.2.6-.9 1.1M298.1 115l-.1-.6-.9-.5v-.6c-.4-.4-.7-.9-1.3-1.9-.9-.8-1.8-1.6-3-3l-1.5-.8-.1-.6-1.2-1-.1-.5-.8-.5-.2-.6-2.6.6-.2 2.6c.3.5.6 1 .9 2l.1 1 .9 1.4v.8l3 12.7v1.4c.3 4.7.5 9.4.4 14.8 0 .4 0 .9-.3 2.2l-3 13.2-.5.5c-.9 2.1-1.8 4.3-3.2 6.7l-7.7 9.6c-2.6 3.3-5 6.7-7.7 10.6-.3.2-.6.4-1.6.6l-5 5.1-.5 1.7h-.6l-2 1.4c-1.4 2-2.7 3.9-4.4 6l-.8 1.2-5.6 8-3.4 7.7s0 .2-.5.6L243 223l-.6.5c0 1.1-.2 2.3-.4 3.5l-.3.2c-.2.2-.3.4-.4 1.3v2l-.1 1-.2 1.3-.8 7c.1 2 .2 4.2 0 7.1.4 2.4.7 4.7.9 8 .2 1.7.4 3.5.3 5.7.3.3.5.7.7 1.7v1.5l.2 2.8c.1.5.3 1 .2 2 .2.8.5 1.5.6 3 0 .9.2 1.6.1 3l1 2 2.3-3c.5-1.2 1-2.3 2.1-3.8a103 103 0 0 1 7-10c.8-1.3 1.6-2.5 3-4 .5-.6 1-1.2 2-2 .5-.8.9-1.5 1.8-2.3l.7-1.5s0 .1.4 0l.5-1 .6-.2 1.4-1.8.6-.3a63 63 0 0 1 5-5l7-6c.3-.5.7-1 1.7-1.7l11.3-8.6a81.3 81.3 0 0 0 24-27.5c.7-1 1.4-1.9 1.9-3a57.4 57.4 0 0 0-.4-56.8c-.3-.4-.7-.8-1.1-1.8l-4-5.3-.1-.7a141 141 0 0 0-3.9-4.3v-.5l-.9-.6v-.6c-.4-.4-.8-.8-1.2-1.7-.3-.2-.6-.4-1.2-1.2a88 88 0 0 1-4.8-5l-1-1c-.2-.2-.5-.4-.8-.4m-42 195s0 .2-.5.4l-.4 2.2v2l-.2 2.3a22702.5 22702.5 0 0 1 3.2 20.8l5 9.8 2.1 3c8.8 13 23 19.2 35.3 29l4.8 9.6c4.4-4.7 8.6-9 13.4-13.4 1.4-1.3 2.8-2.5 4.7-3.9.6-.6 1-1.1 2.1-2l1.5-2.8s0 .1.4 0l.5-1 .5-.2c.5-.6 1-1.2 2-2 .2-.6.4-1.1 1-2l1.5-1.8.5-.4c.5-.8 1-1.7 2.1-2.8l1.4-2.8.5-.4 5.9-15.8s-.1-.3.3-1c.2-1.6.4-3.2 1-5.7v-12.8c-.3-1.7-.7-3.5-1-6l-.1-2c-1.7-8-3.3-16.2-4.8-25 0-1.1-.2-2.2-.1-4.2-.1-5.7-.2-11.4 0-17.9l.2-3c.4-2 .7-4.1 1.6-6.7l1.4-4.6.5-.5c2-3.8 3.8-7.6 6-11.6 0 0 0-.4.4-.8l1.7-2.4c.9-1.7 1.7-3.5 2.5-5.9.5-1 1-1.8 2.4-2.8l23.4-24.6-1.1-1.6c-5.6 3.2-11.2 6.4-16.7 9.8-2 1.2-3.6 3-5.7 5l-3.2 2c-6 3.5-12 7-18.6 10.4-7.7 4.5-15.8 8.5-23 13.6-11.5 8.1-22.4 17-34.1 25.7a151 151 0 0 0-2.6 3.6l-.4.3c0 .5 0 1 .3 2h.5s-.1.1-.4-.7c-.3 0-.6 0-1.5.3-.5.4-1 .8-1.9 2l.8 1.4-.6-.4-5 6L259 296l-.6.4-.4 3.6-.6.4-.5 4.5-.5.3c0 .6 0 1.1-.3 2.4v2.5M167 109.4c-.3-.2-.7-.3-1.3-1-.9-.8-1.8-1.6-3-3l-2.1-1.4s-.5 0-.8-.7l-3.1-2.3-.6.7c1 1.4 2 2.8 3 5 .4.7.9 1.5 1.3 3a116.6 116.6 0 0 1 4.6 9c.4.4.6 1 1 2.2.7 1.7 1.4 3.4 2.1 5.9 1.7 5.5 4.2 11 5 16.6 1.5 12.4 2.3 25 3.2 38 0 .4.2.8 0 1.7 0 .6 0 1.3-.2 2.4l-.2 1.3-2.8 17.7c0 .2 0 .4-.5 1-1 4.5-2 8.9-2.8 13.3l-.6.6-8 37.3-.1 2.1-.8 7.2v17.7l5.8 26c5.4 14.8 12.3 29 22.6 41 8 9.4 16.8 18 28.5 23.8l2.5.4c1.7.7 3.4 1.4 5.3 2.8.8.6 1.6 1.5 2.4 1.7 11 2.6 21.9 5 32.9 7.8l.3.1s0-.2.9.1l3.3.6 13.7 2 .3-1.2-15.6-4.7-20.4-10.8-8-4 .7-.5-7.7-7.6.3-.6c-.7-.9-1.4-1.8-2.2-3.3a58.2 58.2 0 0 1-11-46.9c2.5-15.1 5-30.3 7.9-46.3 0-2.2.1-4.4.4-6.4l.2-.3s-.3 0 .2-.9c0-2.5 0-5 .3-8 0 0-.2-.4 0-1.3 0-.2 0-.5.4-1 0-1 0-1.9.3-3.7-.1-7.6-.2-15.2 0-23.3-.3-.5-.5-1-.7-2.5v-1.2s-.2-.4 0-1.2v-3.2L220 192v-.8l-1-3.2.1-.9a738.2 738.2 0 0 1-5.2-16.8 56 56 0 0 0-1.9-3.3s.1 0 0-.8a197.7 197.7 0 0 1-5-10.8c-.3-.5-.7-1-1.1-1.9 0 0-.2-.4-.1-1l-2-3a129.4 129.4 0 0 1-4-6c-.6-.8-1.3-1.5-1.8-2.4 0 0-.2 0-.3-.6-.5-.5-1.1-1-1.9-2l-.4-1-1.4-1.5-.2-.5-.8-.5-.2-.6-4.3-3.8c-1.2-1.5-2.3-3-3.7-5.2-1.6-1.2-3.2-2.4-5-4.2-1.5-1.1-3-2.2-4.6-4l-2.7-2.1-.2-.8-2.5-2.8c-.3-.2-.6-.3-1.2-1l-1.5-.6-.1-.5m-56.5 217.8c-.3.2-.4.5-.8 1.3-3 9.3-7 18.4-8.4 28-2 13 2.3 24.8 11.8 35.2 4 3.8 7.9 8 12.3 11.4a70 70 0 0 0 34.1 12.4c18.6 2.7 36.8 0 56.2-3-8.5-4.7-16.2-8.3-23.3-12.7-8.8-5.4-17.3-11.5-26.2-17.7l-1.4-1.8-3.7-2.4-.2-.5c-.3-.2-.6-.4-1.2-1.1-3-3.3-6.1-6.5-9-10-15.8-18.8-22.4-39.8-15.1-64 .5-1.7.4-3.6.6-5.3-5.3 3.2-10.8 5.4-12 12.3-2.7 3.2-5.5 6.4-8.8 9.9-.5 1-1 1.8-2 3l-1 1.7-1.4 3.1-.5.2m175-224.5-.4.9c.2-.2.4-.4.4-.9m95 95.2-.2.1h.2z"/>
  <path fill="#FEFDFD" d="M371.3 91.4a58.9 58.9 0 1 1 .6 2.3l-.6-2.3m32.7 21 8.8 10.7L469 39.2l-1.2-.9L409.4 94l-28.7-13-1.2 1.5 24.5 30z"/>
  <path fill="#FDFDFD" d="m224.8 377-5.5-2.4c-.4-.2-.5-.6-.4-1-1-1.2-2-2.2-3.1-3-10-6-18.3-13.8-25.7-22.7-9.6-11.5-15.6-25-21.3-38.7-.8-1.9-1.8-3.6-2.8-5.8l-1.9-6.8c-.4-3.2-.9-6.1-1-9a189.4 189.4 0 0 1 6.9-60.2c4.5-16.5 8.9-33 9.4-50.3a94 94 0 0 0-4.2-35.2v-.3l-10.1-28c0-.2-.2-.6 0-.9 2.4 1.3 4.6 2.8 7 4.6.2.6.5.7 1 1l8 7 2 2c2 2.5 4 4.6 6 7 2.9 3.8 5.7 7.1 8.6 10.5l.2.2c1.2 1.8 2.2 3.4 3.2 5.3 4 8.7 8.1 16.9 11.5 25.4 6.5 16.8 9.7 34.3 9.3 52.2-.3 14-1.8 28-3 42.5-1.9 9.9-3.5 19.4-5.4 29-4.4 21.8-4.2 42.8 11.5 61.2 1 .4 2 .5 2.8.7l-.3.2a78 78 0 0 0 7.2 7.7v.4c4.6 4.2 9.3 8.1 14.1 12-4-.1-7.8-1.2-11.6-2-4.1-1-8.3-1.7-12.4-2.6zM334.2 226l17.9-10.5c1-.6 2.1-1.3 3.8-2.1l9.2-3.7-10.5 15.2-1.8 3.3a8 8 0 0 1-3.1 2c-1 1-1.5 2-2.1 3l-.3.1c-3.4 7.1-7.6 13.7-9.6 20.9a97 97 0 0 0 1.3 48c4.1 17.7 5.3 35.1-4.8 51.5l-.1.1-1.5 2.4-.3.2-7.5 10.4-.3.2c-1.7 1.7-3.1 3.4-4.9 5-.7 1.3-1 2.5-1.4 3.6l-12.8 13.5a797 797 0 0 0-5-10.2c-2.1-2.7-3.5-5.4-5.6-7-9-7-19.8-12-26.6-22.1l-2.4-3.3-.6-.6-2.4-4.4-.4-.7c-.9-1.8-1.6-3.3-2.3-5.3-.7-4.7-2.2-9.1-1.9-13.4.7-9.4 2.4-18.7 4-28.4l1.4-4 .2-.3 7.4-15.2h.4c1-.9 1.8-2 2.5-3h.4c.8-.6 1.3-1.4 2-2.2.4-.3.5-.6.8-1 4.2-3.7 7.7-7.8 12-10.7 11.3-7.9 23-15.2 34.4-22.9 3.7-2.5 7-5.6 10.5-8.4z"/>
  <path fill="#FCFCFC" d="m268 185.1 1.4-.9c4-3.4 7.6-6.3 10.7-9.8a50.6 50.6 0 0 0 13-25.7 72 72 0 0 0-2.5-37.6l1.2-.4 22 26.9c6.3 11 9.2 22.4 7.5 34.5-2.9 22-14.7 38.4-32 51.7-9.2 7-17.4 15-26.3 22.9l-17.9 21.8c-.5-6.5-.6-11.7-1.3-16.8-3.1-22.8 3.9-42.1 19.8-58.6 2-2.1 3-5.3 4.5-8z"/>
  <path fill="#2B2521" d="M166.5 382.5c8.6 5.8 17 11.9 25.9 17.3 7.1 4.4 14.8 8 23.3 12.6-19.4 3.1-37.6 5.8-56.2 3.1a70 70 0 0 1-34.1-12.4c-4.4-3.4-8.2-7.6-12.1-11.8.7-.6 1.2-.9 2-1 5.7 7.2 12.8 12.1 20.8 15.7 22.6 10.3 46 7.7 68.8 5.3-13-8.7-26.2-17.6-39.2-27l.4-1.4.4-.4z"/>
  <path fill="#25211F" d="M263.2 246.4c8.7-7.5 17-15.6 26-22.6 17.4-13.3 29.2-29.7 32.1-51.7a55 55 0 0 0-7.4-34.6c0-.4.1-.5.5-.5h1.7c.3.3.7.7 1 1.7.3 1.5.5 2.3.8 3a58 58 0 0 1 2 45.4c-1.4 3.8-3.1 7.6-4.7 11.4a78.3 78.3 0 0 1-23.6 26.9c-3.7 3-7.6 5.8-12 8.8-1 .7-1.3 1.3-1.6 2a98 98 0 0 1-7 5.7 47 47 0 0 0-5 5h-2.2l-.6-.5z"/>
  <path fill="#25211F" d="M267.7 185.1c-1.1 2.7-2 5.9-4.1 8a67.6 67.6 0 0 0-19.8 58.6c.7 5.1.8 10.3 1.3 16.8l17.9-21.8c.2-.3.6 0 .8.5l.2 1.8-.2.1-.7 1h-.2l-1 1.5c-.4.7-.8 1.4-1.9 2.3-1 .9-1.5 1.5-2 2.2-.8 1.2-1.6 2.4-3 4a49.2 49.2 0 0 1-5 7c-1 1.1-1.5 2-2 3-.5 1.2-1 2.3-2 3.7l-2.6.2c-.1-.8-.2-1.5 0-2.9 0-1.4-.4-2.2-.6-3-.2-.5-.4-1-.3-2 0-1.4 0-2.2-.2-3l-.3-1.3a38.7 38.7 0 0 1-.7-7.7c0-3.1-.4-5.5-.8-8-.1-2-.2-4.2 0-7 .5-2.9.6-5 .8-7v-1c.4-.6.3-.9 0-1 0-.5 0-1 .3-2l.4-1 .3-.3c.4-1.5.6-2.6.7-3.8l.3-.2a72 72 0 0 0 1.8-6.4s0-.2.4-.5a121 121 0 0 0 3.5-7.8l5.5-7.9.8-.4v-.7a52 52 0 0 1 4.6-6l2-1.3s0 .1.2 0c.5-.7.7-1.3.9-1.9l4.7-4.8z"/>
  <path fill="#28211C" d="M125 309c.4-6.6 6-8.8 11.2-12-.2 1.7-.1 3.6-.6 5.2-7.3 24.3-.7 45.3 15.1 64.1 2.9 3.5 6 6.7 9.3 10.5.5.7.8 1 1.1 1.1v.4c-.1 1-.2 1.5-.6 2-22.6-20.2-35.6-44-28.9-76.3a1383 1383 0 0 0-6.6 5z"/>
  <path fill="#1A1A1A" d="M175.2 141.9c4 11.4 4.6 23.3 4.2 35.2-.5 17.3-5 33.8-9.4 50.3-5.4 19.7-8 39.8-7 60.2.2 2.9.7 5.8.8 8.8-.5-.7-.7-1.5-.8-2.3l-2.5-11.2c0-5.6-.1-11.3.2-17.5.5-2.9.5-5.1.6-7.4 0-.4 0-.9.3-1.8 1.8-7.1 3-13.9 4.5-20.6l3.6-16.8.4-.1c1.2-4.7 2.1-9.2 3-13.7 0-.1 0-.3.4-1 1-6.3 1.9-12.1 2.6-18l.3-1c.2-1.2.2-1.8.1-2.5 0-.3-.1-.7.3-1.5.6-6.2 1-12 .7-17.6-.4-7.2-1.5-14.4-2.3-21.5z"/>
  <path fill="#1C1918" d="M219.1 270c1-14 2.5-28 2.8-42 .4-18-2.8-35.5-9.3-52.3-3.4-8.5-7.6-16.7-11.2-25.6 0-1.7-.3-2.9-.4-4v-.1c1 1.1 1.8 2.3 2.9 4 .7 1.5 1.3 2.3 1.8 3l.3 1 1 2c.4.4.7.9 1 2 1.4 3.4 2.7 6.2 4.1 9v.3c.5 1.4 1.1 2.6 1.8 3.7v1c1.5 5.6 3.4 10.8 5.2 16v.3c.3 1.5.6 2.6 1 3.7l-.1.4 3.8 19.6v2.8c-.5.7-.4 1-.1 1.1l.2 1.5.3 2.2c.2 7.7.3 15.3.1 23.6-.3 1.5-.4 2.3-.4 3.2l-.2 1.4c-.4.8-.3 1 0 1.1 0 2.6 0 5-.3 8l-.4.7c0 2.1-.2 4.3-.7 7l-3.2 5.4z"/>
  <path fill="#29231E" d="M219 270.4c1-2 2-3.6 3.2-5.3-2.3 15-4.8 30.2-7.3 45.3a60.3 60.3 0 0 0 11 47.5l-1 2.4c-15.6-18.1-15.8-39.1-11.4-61 2-9.5 3.5-19 5.5-29z"/>
  <path fill="#302A25" d="M314 404c1-.7 2-1.4 3.5-2 1.6-.7 2.6-1.4 3.5-2 .2-.3.4-.6 1.3-1l3.8-.9c.5.3.7.5.6 1-6.4 4-12.6 7.6-20 12l17.8 1.9c15 1.2 29.7 0 44.8-3l7-.8a99.5 99.5 0 0 1-52 6.6c-.8-.5-1-.4-1.3 0-.8 0-1.6 0-3-.4-3.7-.8-6.9-1-10-1.4-2.1-.2-4.2-.3-6.9-1l-2.5-2.2h.6a261 261 0 0 0 12.8-6.9z"/>
  <path fill="#1B1B1B" d="M334.2 353.6c10-16.3 8.9-33.7 4.8-51.3a97 97 0 0 1-1.3-48.1c2-7.2 6.2-13.8 9.8-20.3.5 1 .7 1.8.9 2.5 0 0 0 .4-.5.6-2.3 4.1-4.1 8-6 11.8l-.3.3c-1 1.8-1.8 3.3-2.5 5.2l-.4 6.7a76.8 76.8 0 0 0-1.6 15.4c0 1.8.9 3.7 1.4 5.6.1 1.1.2 2.2 0 4 0 3.2 0 5.9.6 8.4 1.3 5.6 2.9 11.1 4.4 16.6 0 .5.2 1 0 2 .2 2.4.6 4.2 1 6 .1 4 .1 8-.3 12.7-.7 2.3-.8 4-1 5.8 0 0 .2.3-.2.6-2.3 5.5-4.2 10.7-6 15.9h-.5l-2.3-.4z"/>
  <path fill="#27221D" d="M166 303.8c1 1.8 2 3.5 2.8 5.4a147.5 147.5 0 0 0 21.3 38.7c7.4 9 15.7 16.7 25.7 22.8 1.2.7 2.1 1.7 2.8 3-.9.3-1.3.3-1.7.3a84 84 0 0 1-28.2-23.2 128 128 0 0 1-22.6-42v-5z"/>
  <path fill="#28201B" d="M376.6 409.1c-2.5.3-4.7.6-7.2.5 1.3-1 2.8-1.5 4.3-2.2a56.7 56.7 0 0 0 32.8-33c3.5-9.5 2.1-19 .8-28.6.4-.7.6-1.3.7-1.9 6.8 13.5 4.8 26.8-2.2 39.3a59.4 59.4 0 0 1-29.2 25.9z"/>
  <path fill="#261F1B" d="m115 390.1-1.8.9a39.5 39.5 0 0 1-12-34.6c1.5-9.5 5.6-18.6 8.9-28.3.7-.5.8-.8.9-1.1h1.4c.5 0 .8 0 .9.4-10 18.8-15.3 42 1.7 62.7z"/>
  <path fill="#29211B" d="M224.9 377.4c4 .5 8.2 1.3 12.3 2.2 3.8.8 7.5 1.9 11.6 2-4.8-3.9-9.5-7.8-14.1-12 2.8 1 5.5 2.3 8 3.7 7 3.6 13.7 7.2 21 11.3.3 1.4.3 2.3.2 3.2a29 29 0 0 1-2.9-.6l-.8-.2-32.8-7.6c-.8-.2-1.6-1.1-2.5-2z"/>
  <path fill="#231D1A" d="M333.9 226c-3.2 2.8-6.5 6-10.2 8.4-11.4 7.7-23 15-34.4 22.9-4.3 3-7.8 7-12 10.3a8 8 0 0 1-.3-2.6c11.1-8.5 22-17.4 33.5-25.5 7.2-5.1 15.3-9.1 23.4-13.6z"/>
  <path fill="#26211D" d="M380.2 328c.3-11-1-21.8-4.6-32.6 7.3 3.6 11.3 10.2 16.3 16.3.1.3 0 .4-.5.6-.8.3-1 .5-1.7.6-3-3.3-5.7-6.5-8.3-9.7.6 7.7 1.6 15.3 1.3 22.8-.1 4.7-2.4 9.4-3.7 13.7V335l.3-.2.9-6.7z"/>
  <path fill="#25211F" d="m313.8 137.2-22-26.5-1.2.4a69.3 69.3 0 0 1 2.3 37.5c-.6.4-.8.4-1 0l-.6-5.5c0-.5 0-1 .5-2 .1-5.3-.2-10.2-.6-15 0-.2-.1-.4.1-1.1-1-4.7-2.2-8.8-3.4-13v-.3l-.7-1.7c0-.1-.1-.3 0-.8l1-1.2c1 0 1.4 0 2.2-.2.5 0 .7-.2 1-.3v.5c.6.5 1.2.7 1.8 1 .8.8 1.7 1.6 2.7 3 .5 1 1 1.5 1.3 1.9v.2l1 .8v.3l1 .7a49.4 49.4 0 0 0 5.9 6c.2.3.5.5.8 1.3.5.9 1 1.3 1.3 1.7 0 0-.1 0 0 .2.3.5.6.7.9.9v.3c1.3 1.8 2.6 3.2 4 4.7 0 0-.1 0 0 .4.6 2 1.3 3.8 2 5.6l-.3.2z"/>
  <path fill="#27201A" d="M355 225c3-5 6.5-10.1 10-15.3a125 125 0 0 1-9 3.4c1.4-1.6 3-3.4 5-4.6 5.5-3.4 11-6.6 16.7-9.8l1.1 1.6c-7.8 8.2-15.6 16.4-23.8 24.6z"/>
  <path fill="#2F2721" d="M378.7 335.2c.3 1.2.3 2.6.3 4.8 0 2 .2 3.4-.3 4.5a83.5 83.5 0 0 1-24.8 33.3l-1.7-.6-.3-.3a88.6 88.6 0 0 0 26.8-41.7z"/>
  <path fill="#29231F" d="M268.3 350c6.7 9.9 17.5 14.8 26.5 21.9 2.1 1.6 3.5 4.3 5.2 6.9-11.6-9.1-25.9-15.3-34.8-28.6 0-.3 0-.4.4-.4l2.7.3z"/>
  <path fill="#29231E" d="M262 294c-1.4 9.4-3 18.7-3.8 28.1-.3 4.3 1.2 8.7 1.5 13.4-.8.5-1.3.5-1.8.5-1-6.4-2-12.7-2.6-19.7.2-1.2 0-1.7 0-2.2 0-.5-.1-1 .1-2l.7-2 .1-.1.4-.4-.4-.6.2-2c.3-1 .4-1.6.4-2.1l.4-.2c.4-1.7.6-3.3.7-4.8l.3-.1c.5-1.4.6-2.6.8-3.8l.2-.1c.8-.8 1.2-1.4 2-2h.7z"/>
  <path fill="#23211F" d="M291.9 149h.8a46.6 46.6 0 0 1-12.6 25.4c-3 3.5-6.8 6.4-10.6 9.5A138.2 138.2 0 0 1 285 164c1.4-2.5 2.3-4.7 3-6.8l.4-.3c1.4-2.8 2.4-5.4 3.5-8z"/>
  <path fill="#3B2E23" d="M175.2 142c.8 7 1.9 14.2 2.3 21.4a120 120 0 0 1-.6 17.3c-1.5-12.3-2.3-24.9-3.9-37.3-.7-5.7-3.2-11.1-4.6-16.8 1.1 1.7 2 3.6 2.8 5.6l4 9.7z"/>
  <path fill="#322922" d="m315.4 198.2 4.4-11.1a58 58 0 0 0-1.9-45.4l-.8-2.7c10.8 18.3 9.7 37.1.4 56-.5 1-1.2 2-2 3.2z"/>
  <path fill="#1A1714" d="M408 343.5c-.1 1-.3 1.6-1 2-1.3-2.8-2-5.7-3.2-8.3-3.2-6.4-6.7-12.6-9.7-19l2-.2c6 7.4 9.3 16.1 12 25.5z"/>
  <path fill="#1A1A1A" d="m175.2 141.6-4-9.4c-.9-2-1.7-3.9-2.8-6-1-2-1.7-3.6-2.4-6a8 8 0 0 0-1-2.2v-4.2a4948 4948 0 0 1 10.2 27.8z"/>
  <path fill="#080808" d="m327 399-.8-1.1-.2-.8c7-5.1 14.1-10.1 21.7-15 .8.4 1 .6.9 1L327 398.8z"/>
  <path fill="#3B2E23" d="m169.5 219.1-3.4 16.5c-1.4 6.7-2.7 13.5-4.4 20.3 2.3-12 5-24.3 7.8-36.8zM166 303.4v5c-1.9-7.9-3.8-16.3-5.6-25 1 3.3 1.7 7 2.6 10.7.1.8.3 1.6.8 2.6 1 2.3 1.6 4.3 2.2 6.7z"/>
  <path fill="#1A1A1A" d="M172 117.1c-2.3-1.6-4.5-3.1-7.2-4.4-.9.3-1.3.3-1.8 0l-2-4.1c0-1.4 0-2.5.2-3.3.7.4 1.3.5 1.8.7 1 .8 1.8 1.6 3 2.9.6.7.9.8 1.2 1 0 0-.1 0 0 .2.6.5 1.2.7 1.7 1 .3 0 .6.2 1 1 1 1.3 1.8 2 2.5 2.8v.7l-.4 1.5z"/>
  <path fill="#28201B" d="M116 318.9a339.7 339.7 0 0 1 8.7-9.7l-8.5 13s-.2-.2-.2-.6v-2.7z"/>
  <path fill="#4A280D" d="M264.4 387.9c-.4-1-.4-2-.4-3.2 4.9 1.1 9.8 2.6 14.8 4l-.3 1.4-14.1-2.2z"/>
  <path fill="#37291F" d="M338.6 281.6c-.6-1.5-1.5-3.4-1.5-5.3 0-4 .4-8 1-12.2.4 5.6.5 11.3.5 17.5zM343.5 310.7c-1.5-5.2-3.1-10.7-4.4-16.3-.6-2.5-.6-5.2-.6-8a506 506 0 0 1 5 24.3z"/>
  <path fill="#231D1A" d="M271 274a129 129 0 0 1-7.4 15c.6-3.3 1.6-6.6 2.5-9.8 1.5-1.8 3-3.7 4.8-5.3z"/>
  <path fill="#1A1A1A" d="M197.6 144.8c-2.8-3.4-5.6-6.7-8.5-10.5 0-.3 0-.4.4-.3l3.6 1v.2c.3.5.5.7.9.8v.3l1.5 1.7.5 1c.7 1.1 1.2 1.6 1.8 2a73.2 73.2 0 0 1-.2 3.7z"/>
  <path fill="#1B1B1B" d="M324.8 366.8c2.4-3.4 4.8-6.8 7.6-10 .5 1.3.5 2.2.6 3.1l-.4.1c-.7.8-1.1 1.5-1.5 2.1-.2.6-.4 1.1-1.2 1.8-1 .8-1.5 1.4-2 2 0 0 .1.1-.1.2l-.7 1h-.4l-1.9-.3z"/>
  <path fill="#3B2E23" d="M176 186.4z"/>
  <path fill="#3E3128" d="M223.9 211.6z"/>
  <path fill="#332820" d="M265.8 279.4c-.6 3-1.6 6.3-2.3 9.9.1.4 0 .4-.2.3-1 1.4-1.7 2.9-2.4 4.4l-1.7 1.8c2-5.3 4.2-10.7 6.6-16.4z"/>
  <path fill="#3E3128" d="M219.1 187.5c-1.8-4.7-3.7-10-5.2-15.3 1.9 4.8 3.5 9.9 5.2 15.3z"/>
  <path fill="#37291F" d="M337.3 353.8c1.5-5 3.4-10.2 5.6-15.6-1.6 5-3.5 10.2-5.6 15.6z"/>
  <path fill="#3C2F25" d="M291.1 126.5c.5 4.4.8 9.3.9 14.4-.5-4.6-.7-9.3-.9-14.4z"/>
  <path fill="#29211B" d="M235.1 369c-3-2.3-5.5-4.8-7.7-7.5 2.9 2.2 5.5 4.7 7.7 7.5z"/>
  <path fill="#3C2F25" d="M292 148.6c-1.2 3-2.2 5.5-3.6 8.2.7-4.2 1.7-8.6 2.8-13.3.3 1.3.5 3 .7 5z"/>
  <path fill="#1A1A1A" d="M181 125a96.7 96.7 0 0 1-7.7-6.9c.7-.4 1.4-.3 2-.3 1.5 1.2 3 2.3 4.7 4l1 3.3zM189 134c-2-2-3.9-4.2-5.7-6.8.7-.7 1.2-1 1.8-1.2a124 124 0 0 1 3.6 5.2c.3 1.3.4 2 .4 2.7l-.1.1z"/>
  <path fill="#342921" d="M313.6 404c-3.7 2.2-7.9 4.6-12.4 6.8 3.8-2.2 8-4.5 12.4-6.8z"/>
  <path fill="#3B2E23" d="M172.9 205.3c-.7 4.2-1.6 8.7-2.8 13.4.6-4.3 1.6-8.7 2.8-13.4z"/>
  <path fill="#3C2F25" d="M288 112.4a141 141 0 0 1 3.3 12.3 141 141 0 0 1-3.3-12.3z"/>
  <path fill="#403228" d="M342.2 248.6c1.6-3.6 3.4-7.5 5.6-11.4-1.6 3.6-3.5 7.4-5.6 11.4z"/>
  <path fill="#29231E" d="M263 347c-1.6-3.1-3.2-6.2-4.5-9.5 1.5 1 2.8 2.3 4 3.6 0 0 .3.2.1.7.1 2 .4 3.4.6 5l-.1.1z"/>
  <path fill="#25211D" d="M318.5 375.6c0-1.1.4-2.3 1.5-3.5a31.3 31.3 0 0 1 3-.1 49.6 49.6 0 0 1-4.5 3.6z"/>
  <path fill="#1C1918" d="M185 125.7c-.5.6-1 .8-1.8 1.2-.9-.3-1.4-.8-2.1-1.6l-1-3.2c1.5.9 3 2 4.8 3.6z"/>
  <path fill="#3E3128" d="M212 166.6z"/>
  <path fill="#23211F" d="M290.1 107.9h-2c-1-.3-1.5-.6-2-.9.1-.7.2-1.3.9-2h2l.1.2 1 .8-.1.3.1 1.6z"/>
  <path fill="#28211C" d="M248.8 208.3z"/>
  <path fill="#101010" d="m262.4 340.8-3.9-3.6c-.4-.4-.4-.5-.6-1 .5-.2 1-.2 1.8-.2 1 1.5 1.8 3 2.7 4.8z"/>
  <path fill="#342921" d="M310.3 414.3c2.8 0 6 .3 9.3 1-2.8-.1-6-.4-9.3-1z"/>
  <path fill="#403228" d="m350 230.1 2.8-1.5a36 36 0 0 1-2.6 5.2c-.3.1-.4 0-.3-.4v-3.3z"/>
  <path fill="#28211C" d="M240.4 246.6c.5 2 .9 4.4 1 7-.5-2-.8-4.3-1-7z"/>
  <path fill="#322922" d="M314.4 137c-1-1.8-1.7-3.5-2.4-5.7 1.3 1.4 2.7 3.2 4 5.3-.3.4-.8.4-1.6.4z"/>
  <path fill="#2B2119" d="m159 106-3-4.3.7-.7c1 .7 2 1.5 3 2.8l-.7 2.1z"/>
  <path fill="#2F2721" d="M380 328.4c0 1.8-.3 4-.7 6.4 0-2 .1-4 .6-6.4z"/>
  <path fill="#26211D" d="M396 317.6c-.4.4-1 .4-1.8.6-.4 0-.4 0-.4-.3-.6-2.2-1.2-4-1.9-5.8l.2-.1 4 5.6z"/>
  <path fill="#3B2E23" d="M161.2 258.4c0 1.9 0 4.1-.4 6.5 0-2 0-4 .4-6.5z"/>
  <path fill="#37291F" d="M344.6 318.7c-.5-1.5-.9-3.3-1.1-5.3.5 1.4.9 3.2 1.1 5.3z"/>
  <path fill="#28211C" d="M241.1 232.5z"/>
  <path fill="#332820" d="M276.7 265.1c.3.7.3 1.5.3 2.6 0 .7 0 1-1 1.3l-2.2-.2c.9-1.2 1.7-2.4 2.9-3.7z"/>
  <path fill="#28211C" d="M266.3 246.8c1.1-1.5 2.6-3.1 4.3-4.8a35.5 35.5 0 0 1-4.3 4.8z"/>
  <path fill="#322922" d="M305 121.7a41.8 41.8 0 0 1-5-4.4c1.6 1.1 3.2 2.6 5 4.4z"/>
  <path fill="#2A241F" d="M160.9 380.4c0-.6 0-1.2.2-2.1 1.2.4 2.5 1.2 3.8 2.4.1.3 0 .4-.2.4-.8.2-1.2.5-2 .8l-1.8-1.5z"/>
  <path fill="#3C2F25" d="M287.8 157.4a41 41 0 0 1-2.5 6.4 41 41 0 0 1 2.5-6.4z"/>
  <path fill="#241E1A" d="M163 113h1.6c.3 0 .5.4.5.6v4a12 12 0 0 1-2-3.7v-1z"/>
  <path fill="#342921" d="M300.3 410.8c1 .5 1.7 1.1 2.5 2-1 .2-2 .2-3.2 0-.4 0-.8-.6-1.2-1 .5-.3 1-.7 1.9-1z"/>
  <path fill="#322922" d="M312 130.7a29.2 29.2 0 0 1-4-4.4c1.3 1 2.6 2.6 4 4.4z"/>
  <path fill="#28211C" d="M244.9 216.6c-.3 1.8-.8 3.9-1.6 6.2.2-1.9.8-4 1.6-6.2z"/>
  <path fill="#1C1918" d="M189.5 134a6 6 0 0 1-.5-2.6c1.2.8 2.5 1.9 4 3.3-1 0-2.1-.4-3.5-.7z"/>
  <path fill="#37291F" d="M338.8 260.6c0-1.7.1-3.8.5-6.2.3-.4.7-.4.7-.4l-1.2 6.6z"/>
  <path fill="#403228" d="M340.2 253.8c-.2.2-.6.2-.9.2a25 25 0 0 1 2.3-4.9c-.2 1.4-.7 3-1.4 4.7z"/>
  <path fill="#28201B" d="M112.8 323.5c.2-.5.4-1 1.2-1.4l2-.1.1.5c-.9 1.8-1.7 3.2-2.7 4l-.6-3z"/>
  <path fill="#080808" d="M348.1 382c.2-1 .7-2 2.2-2.8 1.4 0 1.9.1 2 .5l-3.4 3.1-.8-.7z"/>
  <path fill="#37291F" d="M343.5 337.2c-.1-1.4 0-3.2.5-5 0 1.4-.1 3-.5 5z"/>
  <path fill="#29211B" d="M225 360.6c.2-.9.5-1.5.9-2.3.8.5 1.5 1.4 2 2.6-1 .2-1.8.1-2.9-.3z"/>
  <path fill="#2B2119" d="M163 112.6v1c-.8-1.2-1.7-2.6-2.4-4.3.1-.3.4-.4.4-.4l2 3.7z"/>
  <path fill="#28211C" d="M243.3 274.3c.8-.3 1.4-.3 2.4-.3-.2.9-.9 1.7-1.5 2.5-.3-.6-.6-1.2-.9-2.2z"/>
  <path fill="#241E1A" d="M161 108.6c0 .3-.3.4-.4.4a11 11 0 0 1-1.6-2.7c.2-1 .4-1.5.9-2.2.2-.2.7 0 .9.2.2.3.2.7.2.7v3.6z"/>
  <path fill="#231D1A" d="M274 270.8a8.2 8.2 0 0 1-2.4 3.5c-.6-.6-.9-1-.6-2l2-1.8c.2 0 .5 0 1 .3z"/>
  <path fill="#2B2119" d="M175.3 117.5c-.6.3-1.3.2-2.1.3-.6.2-.9 0-1.1-.5 0-.5 0-.8.3-1.6 1 .2 1.9.8 2.9 1.8z"/>
  <path fill="#2A241F" d="M116 321.6c-.5.4-1 .4-1.8.4a7 7 0 0 1 1.5-3c.3.7.3 1.4.3 2.6z"/>
  <path fill="#28211C" d="M242.6 268.3c.4.6.7 1.4.8 2.4-.4-.6-.7-1.3-.8-2.4z"/>
  <path fill="#25211D" d="m324.8 366.8 2 .3c-.2.9-.7 1.8-1.5 2.8-.3.1-.4 0-.4-.4a49 49 0 0 0 0-2.7z"/>
  <path fill="#332820" d="M257.6 300.2c.2 1.2 0 2.8-.5 4.5-.1-1.3 0-2.8.5-4.5z"/>
  <path fill="#3E3128" d="M213.9 170.7a14 14 0 0 1-1.9-3.4c.7.8 1.3 1.9 1.9 3.4z"/>
  <path fill="#342921" d="M325.7 397c.4.2.4.4.3.8-1.1.6-2.1.9-3.5 1.2.8-.6 1.8-1.3 3.2-2z"/>
  <path fill="#332820" d="M258.7 296.2c.1 1 0 2.2-.5 3.6-.1-1 0-2.2.5-3.6z"/>
  <path fill="#2B2119" d="M172.4 114.6a8.4 8.4 0 0 1-2.4-2.3c.8.4 1.6 1.2 2.4 2.3z"/>
  <path fill="#342921" d="M320.6 400c-.5.6-1.5 1.3-2.8 1.9.6-.6 1.6-1.2 2.8-1.9z"/>
  <path fill="#29231E" d="m265 350-1.9-2.8c0-.3 0-.4.5-.4l1.8-.6s.3.1.1.6l-.3 3-.1.1z"/>
  <path fill="#231D1A" d="m273.8 268.8 2 .2c0 .8-.5 1.6-1.2 2.2-.5-.1-.7-.1-.8-.8v-1.6z"/>
  <path fill="#28211C" d="M248.3 270c.2-.8.7-1.8 1.5-2.8-.2.7-.7 1.7-1.5 2.8z"/>
  <path fill="#2A241F" d="M112.6 323.7c.4.6.5 1.4.7 2.8.2.5.1.6-.1.4h-2c.2-1 .7-2 1.4-3.2z"/>
  <path fill="#1C1918" d="m197.7 144.8.2-3.1c.6.3 1.3 1 2 2 .1.3 0 .4-.4.4l-1.9.7z"/>
  <path fill="#3E3128" d="M205.7 152.8a7.7 7.7 0 0 1-1.7-2.5c.6.5 1.2 1.3 1.7 2.5zM220 191.6l-1-3.3c.4.7.7 1.8 1 3.3z"/>
  <path fill="#25211D" d="M333.2 359.8c-.3-.8-.3-1.7-.5-3.2 0-.4 0-.4.3-.2l2 .6.1.1c-.5.8-1 1.7-1.9 2.7z"/>
  <path fill="#1E1814" d="M224.1 246.3c-.2-.8 0-1.6 0-2.7.2.7.2 1.6 0 2.7z"/>
  <path fill="#25211D" d="m334.2 353.7 2.3.2c0 1-.4 2-1.1 3-.3.2-.4.1-.4-.4l-.8-2.9z"/>
  <path fill="#28211C" d="M242.7 223.2c.2 1 0 2.1-.3 3.6-.2-1 0-2.2.3-3.6z"/>
  <path fill="#25211D" d="M325 370c-.4.7-1 1.2-1.8 1.9-.2 0-.3 0-.2-.3.7-.8 1.3-1.2 1.9-1.7l.1.1zM328.3 365.9c.1-.6.6-1.2 1.4-1.9-.2.6-.7 1.2-1.4 1.9zM331.3 362c.2-.5.6-1.2 1.3-2-.1.6-.6 1.2-1.3 2z"/>
  <path fill="#28211C" d="M264.3 249c-.3-.4-.3-.9-.3-1.6.4-.4.9-.4 1.6-.4-.1.6-.6 1.2-1.3 2z"/>
  <path fill="#1E1814" d="M224.4 219.4c-.3-.3-.3-.9-.5-1.6.2.3.4.9.5 1.6z"/>
  <path fill="#3C2F25" d="m285.6 102.9-.5.7c.1-.3.2-.6.5-.7z"/>
  <path fill="#28211C" d="M242.2 263.4c.2.5.4 1.3.4 2.3-.3-.5-.4-1.2-.4-2.3z"/>
  <path fill="#3C2F25" d="M289 104.6c-.4.3-.9.4-1.7.4.3-.3 1-.4 1.7-.4z"/>
  <path fill="#1C1918" d="M161.2 105.3c-.2-.3-.2-.7-.2-1 .6.3 1.2.7 1.9 1.4-.4.1-1 0-1.7-.4zM195.4 137.7a4 4 0 0 1-1.4-1.4c.5.2 1 .7 1.4 1.4zM197.8 140.8c-.6-.2-1.1-.7-1.8-1.4.6.1 1.2.6 1.8 1.4z"/>
  <path fill="#28211C" d="M258.3 256a5 5 0 0 1 1.5-2 5 5 0 0 1-1.5 2z"/>
  <path fill="#403228" d="M348.6 236.2c-.4-.5-.6-1.3-.9-2.5-.1-.6 0-.6.2-.3.8.3 1.4.3 1.9.4l.2.2-1.4 2.2z"/>
  <path fill="#3C2F25" d="M286.1 107.3c.5 0 1 .3 1.5.6.2.5 0 .8-.4 1a3 3 0 0 1-1-1.6z"/>
  <path fill="#27201A" d="M380.5 198h-.2.2z"/>
  <path fill="#3C2F25" d="M293 108.7c-.4 0-1-.2-1.7-.7.5 0 1 .2 1.7.7z"/>
  <path fill="#28211C" d="M261.6 191.8c-.2.3-.6.7-1.4 1.1.1-.3.6-.7 1.4-1.1zM262.7 190c0 .5-.1 1-.7 1.8 0-.5.2-1 .7-1.7z"/>
  <path fill="#3B2E23" d="M176.4 182.8c.2.4.2 1 0 2-.2-.4-.2-1 0-2z"/>
  <path fill="#3E3128" d="M207 155.7c-.3-.2-.6-.6-1-1.4.3.1.7.6 1 1.4z"/>
  <path fill="#1C1918" d="M200 144c.4.4.7.9 1 1.7 0 .3 0 .3-.3.1-.4-.6-.6-1.2-.8-1.7l.2-.2z"/>
  <path fill="#2B2521" d="M165 381c.5.3.9.7 1.4 1.3.1.2-.1.5-.5.4a4 4 0 0 1-1-1.6l.2-.2z"/>
  <path fill="#3C2F25" d="M287.2 110.3c.3.2.5.7.8 1.5-.3-.2-.6-.7-.8-1.5zM297.2 113.6c-.4-.1-.8-.6-1.2-1.3.4.1.7.6 1.2 1.3z"/>
  <path fill="#322922" d="M307.1 124.6c-.3-.1-.7-.5-1.1-1.2.3.1.7.5 1.1 1.2z"/>
  <path fill="#241E1A" d="M165 118.3c.4.2.7.7 1 1.6-.4-.2-.6-.8-1-1.6z"/>
  <path fill="#28211C" d="M255 199.2c.3.1.3.4.3.6l-.5.2c-.2-.3-.1-.5.3-.8z"/>
  <path fill="#2B2119" d="M168.8 110.8c-.4 0-1-.2-1.6-.7.4 0 1 .2 1.6.7z"/>
  <path fill="#29231E" d="M217 374.3c.3-.3.7-.3 1.5-.3.3 0 .4.4.4.6a3 3 0 0 1-1.8-.3z"/>
  <path fill="#28211C" d="M278.3 236c0-.5.3-1.1 1-1.8 0 .5-.4 1-1 1.7zM262.2 251.5c0-.3.2-.8.7-1.3 0 .3-.2.8-.7 1.3z"/>
  <path fill="#3C2F25" d="M290.4 107.8c-.3-.3-.4-.8-.4-1.5.4 0 .8.4 1.3 1-.2.3-.4.4-.9.5z"/>
  <path fill="#28211C" d="M241.5 260.4c.3.2.4.5.6 1-.2-.1-.4-.5-.6-1z"/>
  <path fill="#332820" d="M272.6 270.6c-.1.4-.6.9-1.4 1.3.1-.4.6-.8 1.4-1.3zM255.2 314.4c.2.2.3.7.2 1.4-.2-.3-.3-.7-.2-1.4zM256.6 305c.2.4.1 1-.1 1.7-.2-.4-.2-1 .1-1.7zM255.8 310.3c.2.3 0 .8-.3 1.4 0-.3 0-.8.3-1.4z"/>
  <path fill="#3C2F25" d="M298 114.6c-.1.1-.4 0-.8-.5.2 0 .5.1.9.5z"/>
  <path fill="#0D0D0D" d="m352.6 379.4-2-.4c-.6-.4-.4-.6.6-.5.9.5 1.1.7 1.4 1v-.1z"/>
  <path fill="#342921" d="M323.3 415.8c0-.4.2-.5.6 0h-.6z"/>
  <path fill="#2B2119" d="M167 109.6c-.1.1-.4 0-.9-.5.2 0 .6.1 1 .5z"/>
  <path fill="#4A280D" d="M260.3 387h.3v.3s-.3 0-.3-.2z"/>
  <path fill="#3C2F25" d="M290 105.7c-.2 0-.5-.1-.9-.5.2-.1.5 0 .9.5z"/>
  <path fill="#28211C" d="M241.3 230.3c.3 0 .4.2.1.5 0 .1-.2-.3-.1-.5z"/>
  <path fill="#332820" d="M256.1 309.3c.2-.1.4 0 .5.3l-.3.3c-.2 0-.2-.2-.2-.6zM273.6 269c.2.1.2.4 0 1.1-.1 0-.2-.5 0-1.1z"/>
  <path fill="#28211C" d="M254.3 261.2c0-.2 0-.5.5-1 0 .2-.1.5-.5 1z"/>
  <path fill="#2A241F" d="M110.7 327c.2.3 0 .6-.4.9-.2-.2 0-.5.4-.8z"/>
  <path fill="#1E1814" d="M223.1 257.6c-.1 0 0-.2 0-.2h.3s-.2.3-.3.2z"/>
  <path fill="#28211C" d="M263.3 250c0-.2.1-.5.5-.9 0 .2 0 .5-.5 1z"/>
  <path fill="#1E1814" d="M223.8 248.7c-.4 0-.5-.1-.2-.5 0-.1.3.3.2.5z"/>
  <path fill="#3C2F25" d="M299 115.7c-.1 0-.4-.1-.8-.6.2 0 .5.1.9.6z"/>
  <path fill="#28211C" d="M241.9 227.2c0 .1 0 .3-.2.5-.3-.1-.2-.3.2-.5z"/>
  <path fill="#1E1814" d="M223.8 215.7c-.4 0-.5-.2-.2-.6l.2.6z"/>
  <path fill="#25211D" d="M327.3 367c0-.2 0-.5.4-.9.1.2 0 .5-.4 1z"/>
  <path fill="#1C1918" d="M193.9 135.8c-.3 0-.5-.1-.8-.6.2 0 .4.1.8.6z"/>
  <path fill="#322922" d="M308 125.7c-.2 0-.5-.1-.8-.6.2 0 .4.2.8.6z"/>
  <path fill="#2A241F" d="M161 377.7c-.2 0-.5-.2-.9-.6.2 0 .5.1 1 .6z"/>
  <path fill="#2F2721" d="M351.4 378.4c-.2-.7 0-1 .3-1.4.2 0 .4.1.4.8l.4 1.6h.1l-1.2-1z"/>
  <path fill="#9B3924" d="m403.8 112.2-24.3-29.7 1.2-1.6L409.4 94l58.5-55.7 1.2 1-56.3 83.8-9-11z"/>
  <path fill="#1A1A1A" d="M199.5 144.1c.6.5.8 1 1.2 1.8.4 1.3.6 2.5.6 3.9-1.2-1.4-2.2-3-3.4-4.8.2-.4.7-.6 1.6-.9z"/>
  <path fill="#1B1B1B" d="M325 369.5c-.7.9-1.3 1.3-2 2-.9.4-1.6.4-2.7.5a37 37 0 0 1 4.2-5c.4.6.4 1.3.4 2.5z"/>
  <path fill="#101010" d="M265.2 346c-.2.4-.7.6-1.6.8-.6-1.6-.9-3-1-4.9 1 1 1.7 2.4 2.6 4z"/>
  <path fill="#231D1A" d="M261.2 294c.4-1.5 1-3 2-4.4 0 1.4-.4 2.6-1 4.1-.4.3-.6.3-1 .3z"/>
  <path fill="#101010" d="M265.6 349.8c-.3-.9-.3-1.7 0-2.8 1 .6 1.7 1.5 2.6 2.8-.7.2-1.4.2-2.6 0z"/>
  <path fill="#1B1B1B" d="M349.9 233.4c-.6.3-1.2.3-2 0a7 7 0 0 1 1.8-3.3c.3 1 .3 2 .2 3.3zM334 353.8c.5.6.7 1.4 1 2.7-.6.3-1.2.2-2 0 0-1 .5-1.7 1-2.7z"/>
  <path fill="#FCFDFC" d="m113.5 327 2.7-4.4c2.8-4.6 5.5-8.9 8.5-13.4l6.9-5.2c-6.7 32.3 6.3 56 29 76.2l2.3 2c1.2 1 2 1.8 2.7 2.6l39.3 26.5c-22.8 2.4-46.2 5-68.8-5.3-8-3.6-15-8.5-20.9-15.7-17.2-20.8-12-44.1-2-62.9l.2-.3z"/>
  <path fill="#28211C" d="M165.7 384.4a7.2 7.2 0 0 1-2.5-2.2c.3-.6.7-.9 1.5-1.1l1 1.7c.2.5.2.8 0 1.6z"/>
  <path fill="#FCFDFC" d="M352.6 379.4h.1l1.4-1.3a87 87 0 0 0 24.6-33.6c.5-1.1.3-2.5.4-4 1.2-5.1 3.5-9.8 3.6-14.5.3-7.5-.7-15.1-1.3-22.8 2.6 3.2 5.3 6.4 8.6 10 1.6 1.8 2.7 3.5 3.8 5 3.3 6.4 6.8 12.6 10 19 1.3 2.6 1.9 5.5 3 8.5a51.8 51.8 0 0 1-.3 28.6c-6 16-17.4 26.6-32.8 33.1l-4.7 2.2a147.2 147.2 0 0 1-44.5 3.4l-17.8-1.9c7.4-4.4 13.6-8 20-12l21.9-16 3.8-3.4.2-.3z"/>
  <path fill="#28201B" d="m113.2 326.9.2.2-1-.1c0-.1.3-.2.8-.1z"/>
  <path fill="#1A1714" d="M393.8 317.9c-1.1-1.2-2.2-2.9-3.5-4.7 0-.4.3-.6 1.1-1 1.2 1.7 1.8 3.5 2.4 5.7z"/>
  <path fill="#080808" d="M354 377.8c-.3.7-.7 1.1-1.3 1.6-.3-.3-.4-.6-.5-1.6.6-.4 1-.3 1.7 0z"/>
</svg>
