<svg xmlns="http://www.w3.org/2000/svg" viewBox="0 0 512 512" xml:space="preserve">
  <path fill="#FEFEFE" d="M1 141V1h512v512H1V141m468.29-12.57c26.8-21.79 31.19-60.9 11.46-88.12C465.12 18.75 436 8.87 410.36 16.64c-13.86 4.2-24.8 12.4-34.47 22.77-6.24-2.93-12.31-6.28-18.74-8.7-13.65-5.17-27.33-10.37-41.3-14.6-15.17-4.6-30.9-6.08-46.78-6.65-22.41-.8-44.6.08-66.52 5.23-23.8 5.6-46.5 13.92-67.83 25.96-16.24 9.18-31.77 19.5-45.11 32.51-11 10.73-21.73 21.97-31.01 34.17-9.51 12.5-18.39 25.82-25.21 39.92-7.33 15.14-12.64 31.39-17.52 47.55-3.43 11.37-6.1 23.34-6.58 35.14-.82 20.2-.6 40.56 1.02 60.7 1.06 13.25 4.38 26.54 8.38 39.29 6.95 22.16 15.86 43.66 29.31 62.84 7.54 10.74 15.08 21.66 23.95 31.27 9.17 9.92 19.92 18.38 30.03 27.43 13.97 12.52 30.03 21.93 46.9 29.72a259.36 259.36 0 0 0 37.8 13.96c13.57 3.85 27.5 7.18 41.5 8.62 24.99 2.56 50.12 2.35 74.9-2.78 19.68-4.08 39.12-9.06 57.26-18.08 18.63-9.26 36.26-19.93 52.59-33.04 18.9-15.18 35.32-32.68 48.62-52.6 14.43-21.6 27.14-44.48 32.92-70.3 3.13-13.96 6.83-27.9 8.32-42.06 2.42-22.99 2.47-46.18-1.87-69.03a390.31 390.31 0 0 0-9.74-40.12c-5.03-16.63-13.41-31.84-21.9-47.33z"/>
  <path fill="#150F0B" d="M468.94 129c8.83 14.92 17.2 30.13 22.24 46.76a390.31 390.31 0 0 1 9.74 40.12c4.34 22.85 4.29 46.04 1.87 69.03-1.49 14.16-5.19 28.1-8.32 42.05-5.78 25.83-18.49 48.7-32.92 70.32-13.3 19.91-29.72 37.41-48.62 52.6-16.33 13.1-33.96 23.77-52.6 33.03-18.13 9.02-37.57 14-57.25 18.08-24.78 5.13-49.91 5.34-74.9 2.78-14-1.44-27.93-4.77-41.5-8.62a259.36 259.36 0 0 1-37.8-13.96c-16.87-7.79-32.93-17.2-46.9-29.72-10.1-9.05-20.86-17.5-30.03-27.43-8.87-9.61-16.4-20.53-23.95-31.27-13.45-19.18-22.36-40.68-29.31-62.84-4-12.75-7.32-26.04-8.38-39.3a505.37 505.37 0 0 1-1.02-60.69c.48-11.8 3.15-23.77 6.58-35.14 4.88-16.16 10.19-32.41 17.52-47.55 6.82-14.1 15.7-27.43 25.2-39.92 9.29-12.2 20.01-23.44 31.02-34.17 13.34-13.01 28.87-23.33 45.11-32.51 21.32-12.04 44.04-20.37 67.83-25.96 21.92-5.15 44.1-6.02 66.52-5.23 15.88.57 31.61 2.05 46.78 6.65 13.97 4.23 27.65 9.43 41.3 14.6 6.43 2.42 12.5 5.77 18.94 9.32-.26 1.12-.73 1.64-1.52 2.01-53.8-28.83-110.45-37.27-169.7-24.77C83.78 42.8 1.42 154.52 11.82 278.09c4.36 51.73 22.97 97.85 56.72 137.12 55.09 64.1 125.8 92.93 209.67 86.24 68.14-5.43 124.58-35.94 167.94-88.92 36.83-45 55.12-96.8 55.11-155.4 0-45.43-11.65-87.13-34.33-126.36.73-.78 1.37-1.27 2-1.77z"/>
  <path fill="#9C3C27" d="M374.9 42.18c.46-.51.93-1.03 1.44-1.9 9.22-11.24 20.16-19.44 34.02-23.64 25.65-7.77 54.76 2.1 70.39 23.67 19.73 27.22 15.33 66.33-11.64 88.4-.81.79-1.45 1.28-2.53 2.1-1.74 1.03-3.05 1.72-4.33 2.46-9.63 5.5-19.84 9.41-31 9.64-21.19.44-39.05-7.46-52.42-23.85-11.56-14.16-16.61-30.6-14.1-49.13 1.35-10.07 5.7-18.9 10.17-27.75M371.4 91.8l.53 1.93a58.72 58.72 0 0 0 71.22 41.55 58.79 58.79 0 0 0 42.87-70.03c-7.07-31.23-38.06-51.02-69.48-44.47-30.27 6.32-52.42 36.34-45.14 71.02z"/>
  <path fill="#D87A26" d="M374.57 42.04c-4.14 9-8.49 17.82-9.85 27.89-2.5 18.52 2.55 34.97 14.1 49.13 13.38 16.39 31.24 24.3 52.44 23.85 11.15-.23 21.36-4.15 30.99-9.64 1.28-.74 2.6-1.43 4.24-2.17 23.12 38.9 34.76 80.6 34.77 126.03.01 58.6-18.28 110.4-55.1 155.4-43.37 52.98-99.8 83.49-167.95 88.92-83.87 6.7-154.58-22.14-209.67-86.24-33.75-39.27-52.36-85.39-56.72-137.12C1.42 154.52 83.78 42.81 204.87 17.27c59.25-12.5 115.9-4.06 169.7 24.77m-24.02 336.2c-.3.16-.54.39-1.26.94-.48.89-.97 1.77-2.17 2.72-7.02 5.05-14.05 10.1-21.72 15.17-1.06.66-2.13 1.33-3.74 2.1-.23.27-.45.55-1.34.91-.95.6-1.9 1.2-3.44 1.9-.97.64-1.94 1.29-3.63 2.03-4.13 2.27-8.25 4.54-12.49 6.7 0 0-.14.05-.8.1l-1.56 1c.4.36.77.94 1.22 1.02 1.1.18 2.25.14 4.03.64 2.1.18 4.22.36 6.9 1.08 3.1.3 6.2.62 10.07 1.2.8 0 1.62 0 2.89.11 0 0 .47 0 1.32.2 1.65.14 3.3.36 4.94.4 15.97.52 31.72-.37 47.22-7.42a59.71 59.71 0 0 0 28.78-25.89c7.07-12.45 9.05-25.7 2.31-40-2.72-9-5.95-17.76-12.09-25.87-1.3-1.8-2.59-3.6-4.23-5.97-4.84-5.74-8.86-12.34-16.18-15.9a83.72 83.72 0 0 1 4.09 33.24c-.23 2.12-.46 4.23-.67 6.35l-.58.45c-4.13 16.83-14.31 29.8-26.96 41.69-.15.3-.3.58-.91 1.1m-52.48-263.28s.1-.08-.08-.57c-.28-.2-.56-.38-.87-.46 0 0 .1-.07 0-.64a8.64 8.64 0 0 1-1.3-1.86 46.51 46.51 0 0 1-2.98-3.01 11.3 11.3 0 0 1-1.51-.8l-.13-.6c-.39-.35-.78-.71-1.2-1.02 0 0 .05-.03-.1-.52-.27-.2-.55-.38-.85-.47 0 0 .04-.1-.15-.64-.67.19-1.33.38-2.57.61l-.21 2.6c.27.48.54.96.87 1.95.07.16.13.32.14 1.07.27.48.55.97.87 1.4 0 0-.06.03-.04.84 1.05 4.04 2.1 8.09 3.09 12.67.05.17.1.34.04 1.37.2 4.72.39 9.43.27 14.78 0 .47-.02.94-.24 2.2-1 4.39-2 8.78-3.08 13.2 0 0 .04.09-.45.55-.88 2.12-1.77 4.25-3.22 6.7-2.56 3.2-5.17 6.34-7.67 9.58-2.56 3.3-5.02 6.68-7.72 10.57-.3.22-.61.45-1.58.66a79.81 79.81 0 0 1-4.98 5.1c-.22.54-.45 1.09-.54 1.68 0 0-.02-.14-.63-.1-.47.38-.94.76-1.96 1.48-1.35 1.94-2.7 3.88-4.38 6.02-.23.2-.31.43-.8 1.19-1.7 2.54-3.38 5.08-5.6 8.03-1.08 2.5-2.16 5-3.4 7.65 0 0 .02.23-.53.6-.52 2.08-1.04 4.15-1.58 6.23 0 0 0 .02-.55.46-.11 1.18-.23 2.36-.45 3.57 0 0 .03.11-.3.19-.24.18-.27.38-.38 1.32.01.5.02 1.02-.08 1.95 0 0 .1.43-.06 1 .03.2.06.4-.15 1.33-.2 2-.4 4.01-.78 6.92.07 2.14.15 4.29.04 7.2.3 2.32.62 4.66.8 7.9.18 1.79.36 3.59.34 5.78.22.32.44.64.65 1.72.06.25.12.5-.03 1.43.1.7.22 1.4.22 2.85.17.46.33.93.2 1.95.25.79.5 1.57.6 3.12.1.76.21 1.53.18 2.92l.95 1.93c.63-.83 1.25-1.67 2.32-2.95.5-1.15 1.02-2.3 2.08-3.8.5-.93 1.01-1.84 2.08-3.07a102.9 102.9 0 0 1 3.86-5.68c.16-.34.3-.69 1.05-1.28.81-1.22 1.63-2.44 2.98-3.93.52-.6 1.03-1.19 2.08-2.11.42-.7.84-1.4 1.78-2.24.24-.48.48-.95.63-1.44 0 0 0 .09.48-.12.17-.3.34-.6.46-.92 0 0 .03.04.57-.19.45-.6.9-1.22 1.43-1.82 0 0-.01-.07.6-.27a63.05 63.05 0 0 1 4.98-4.97c2.15-1.88 4.31-3.76 7-6 .35-.54.69-1.08 1.68-1.71 3.79-2.88 7.61-5.7 11.36-8.64 9.56-7.47 18.17-15.8 24.05-27.47.6-.98 1.3-1.92 1.8-2.95 9.36-18.85 10.4-37.66-.38-56.9-.33-.38-.65-.76-1.09-1.81a681.1 681.1 0 0 0-4-5.27s.01-.02-.1-.67A140.91 140.91 0 0 0 308 126s.08-.03-.09-.53c-.27-.2-.53-.41-.8-.53 0 0 .08-.03-.02-.6-.38-.4-.76-.81-1.23-1.72a6.15 6.15 0 0 1-1.11-1.2c-1.57-1.5-3.14-3.01-4.87-4.93-.16-.28-.4-.46-.93-1.03-.28-.2-.56-.4-.88-.49m-42.04 195.1s.05.1-.42.35c-.08.5-.16 1-.45 2.19.04.48.07.97-.02 2.08 0 .43.02.86-.17 2.2l3.01 19.66c.08.15.16.3.22 1.18 1.62 3.07 3.24 6.14 5.04 9.8.6.82 1.2 1.64 2.06 3.07 8.8 12.87 23.08 19.1 35.35 28.88l4.74 9.65c4.45-4.7 8.62-9.1 13.44-13.45a50.78 50.78 0 0 1 4.7-3.86c.52-.57 1.04-1.14 2.1-2.05.5-.89 1-1.77 1.43-2.73 0 0 .01.1.48-.1.13-.32.27-.63.46-.92 0 0-.01-.06.54-.23.48-.6.97-1.19 1.98-2.01.18-.55.36-1.1 1.07-1.9.45-.63.9-1.26 1.41-1.88 0 0-.03-.05.47-.38.55-.83 1.1-1.67 2.16-2.85.43-.93.87-1.86 1.33-2.76 0 0 .02-.03.56-.45 1.9-5.19 3.8-10.37 5.86-15.8 0 0-.11-.26.32-.86.2-1.65.4-3.3.97-5.79-.03-4.02-.06-8.04.04-12.8-.35-1.75-.7-3.49-.96-5.91-.1-.45-.2-.9-.17-2.11-1.63-8.07-3.27-16.15-4.76-25.02-.11-1.07-.22-2.14-.12-4.13-.1-5.73-.2-11.45-.01-17.9 0-.76-.01-1.52.23-3.03.36-2.07.71-4.13 1.57-6.66.46-1.53.91-3.06 1.45-4.62 0 0-.04-.07.48-.52 1.9-3.78 3.8-7.57 5.9-11.63 0 0 .04-.35.44-.78.42-.65.85-1.3 1.77-2.37.85-1.75 1.7-3.5 2.43-5.92a8.11 8.11 0 0 1 2.43-2.76l23.44-24.6-1.17-1.64c-5.57 3.25-11.2 6.4-16.67 9.8-1.96 1.21-3.56 3-5.73 5.07-1.06.66-2.1 1.33-3.16 1.96-5.95 3.5-11.9 6.98-18.63 10.36-7.7 4.5-15.75 8.51-23 13.64-11.45 8.09-22.35 16.93-34.07 25.7-.86 1.18-1.73 2.36-2.57 3.57 0 0 .02.03-.47.33.06.47.13.95.36 1.93.18 0 .36 0 .5.12 0 0-.12.06-.43-.77-.29.04-.58.08-1.52.24-.48.44-.97.88-1.84 2.1.28.47.56.93.77 1.4 0 0 .02.06-.58-.47a157.85 157.85 0 0 1-5.07 5.93c-2.19 5.46-4.38 10.92-6.55 16.39 0 0-.01-.02-.55.44a51.21 51.21 0 0 0-.48 3.54s-.04-.07-.62.42a65.28 65.28 0 0 0-.43 4.53s-.08-.07-.57.26c-.02.58-.04 1.16-.24 2.42.03.48.05.95-.07 1.91.03.17.06.34-.01.55m-89.06-200.68c-.31-.16-.62-.33-1.24-1.01-.9-.8-1.81-1.6-2.94-2.93-.6-.42-1.19-.84-2.2-1.43 0 0-.45-.1-.76-.7l-3.13-2.36-.63.74c.99 1.41 1.97 2.82 3 4.93.44.78.89 1.57 1.38 2.99.87 1.39 1.74 2.77 2.63 4.86.65 1.15 1.3 2.3 1.93 3.52 0 0 .08.01.07.63.28.51.57 1.02.92 2.23.7 1.71 1.4 3.43 2.14 5.9 1.69 5.53 4.16 10.96 4.9 16.62 1.6 12.44 2.33 25 3.26 38.06.08.37.16.74-.09 1.65 0 .63 0 1.26-.12 2.4.01.18.03.35-.15 1.31-.9 5.74-1.81 11.47-2.85 17.71.02.18.04.35-.46 1.07-.98 4.4-1.96 8.81-2.86 13.2l-.54.6a13497.7 13497.7 0 0 1-8.01 37.31c.02.45.05.9-.15 2.11-.18 2.09-.36 4.17-.78 7.16.07 5.66.15 11.32-.02 17.78 1.92 8.4 3.84 16.78 5.85 25.92 5.41 14.89 12.33 29.02 22.63 41.12 7.96 9.35 16.73 17.99 28.48 23.76.58.07 1.16.14 2.44.34 1.7.72 3.39 1.44 5.37 2.83.8.57 1.52 1.46 2.4 1.67 10.91 2.58 21.84 5.06 32.86 7.85l.28.1s.11-.27.88.08c.83.12 1.66.25 3.3.56l13.71 2.12.28-1.32c-4.93-1.46-9.86-2.92-15.5-4.63-6.82-3.6-13.63-7.22-20.46-10.8-2.63-1.4-5.3-2.7-8-4.1 0 0-.06-.06.68-.47-2.58-2.53-5.17-5.06-7.64-7.62l.29-.53c-.7-.89-1.4-1.77-2.23-3.34-10.65-13.98-13.9-29.7-11.01-46.87 2.55-15.13 5.06-30.28 7.88-46.3.08-2.18.16-4.36.48-6.44l.13-.22s-.24-.1.2-.95c.06-2.51.12-5.03.28-8 0 0-.16-.42.04-1.25 0-.29-.01-.58.46-1.13-.04-.9-.08-1.82.25-3.65-.12-7.6-.25-15.21-.09-23.25-.2-.55-.42-1.1-.61-2.49a2.74 2.74 0 0 1-.05-1.24s-.1-.44.1-1.19a31.8 31.8 0 0 1 0-3.16c-1.3-6.4-2.6-12.8-3.95-19.14 0 0 .06-.02.08-.76-.33-1.1-.67-2.2-1.06-3.23 0 0 .08-.06.1-.87a738.24 738.24 0 0 1-5.08-15.66 3.17 3.17 0 0 1-.16-1.14c-.6-1.14-1.2-2.28-1.86-3.35 0 0 .08-.03.04-.78a197.66 197.66 0 0 1-4.08-8.89c-.3-.44-.6-.9-.96-1.96-.33-.46-.67-.93-1.13-1.84 0 0-.16-.44-.13-1.06a44.37 44.37 0 0 1-2.02-3.04c-.9-1.15-1.8-2.3-2.77-4.05-.29-.49-.58-.98-1.15-1.99-.64-.71-1.28-1.43-1.86-2.29 0 0-.15-.03-.23-.6a8.7 8.7 0 0 1-1.9-2c-.12-.17-.25-.33-.43-1.02-.47-.48-.93-.97-1.4-1.48 0 0-.02 0-.2-.46-.26-.2-.51-.4-.79-.54 0 0 .06-.04-.26-.6-1.25-1.1-2.5-2.22-4.27-3.75a127.35 127.35 0 0 1-3.72-5.27c-1.57-1.19-3.13-2.38-4.96-4.14-1.48-1.13-2.95-2.26-4.64-4.06-.87-.65-1.75-1.3-2.66-2.1 0 0-.05-.13-.18-.8a31.5 31.5 0 0 1-2.51-2.8c-.3-.14-.6-.29-1.17-.95a9.54 9.54 0 0 0-1.57-.63s.1 0-.1-.5m-56.45 217.76c-.27.23-.4.52-.87 1.37-2.9 9.3-6.98 18.4-8.4 27.91-1.94 13.02 2.4 24.87 11.84 35.26 4.07 3.82 7.88 7.98 12.28 11.39 10 7.74 21.88 10.69 34.14 12.44 18.57 2.66 36.78 0 56.15-3.1-8.51-4.57-16.13-8.21-23.27-12.61-8.83-5.44-17.26-11.51-26.16-17.75-.37-.4-.73-.78-1.44-1.72a75.18 75.18 0 0 0-3.74-2.43s.1.02-.11-.48c-.3-.2-.6-.39-1.21-1.16-3-3.3-6.13-6.51-9-9.94-15.79-18.8-22.46-39.8-15.14-64.1.5-1.65.39-3.48.56-5.23-5.21 3.18-10.7 5.44-11.87 12.26a273.7 273.7 0 0 1-8.9 9.93c-.5.92-1 1.84-1.97 2.95-.2.44-.38.87-1.06 1.8-.46 1.01-.92 2.02-1.35 3.06 0 0-.02-.02-.48.15m174.95-224.4-.39.8c.2-.18.38-.36.4-.8m95.05 95.16-.21.1s.2.08.21-.1z"/>
  <path fill="#FEFDFD" d="M371.31 91.4c-7.18-34.28 14.97-64.3 45.24-70.62 31.42-6.55 62.41 13.24 69.48 44.47a58.79 58.79 0 0 1-42.87 70.03 58.72 58.72 0 0 1-71.22-41.55l-.63-2.34m32.73 21.08 8.73 10.64 56.3-83.86-1.2-.94-58.49 55.7-28.7-13.08-1.16 1.57c8.03 9.8 16.06 19.6 24.52 29.97z"/>
  <path fill="#FDFDFD" d="M224.76 377.04c-1.7-.72-3.4-1.44-5.48-2.42-.38-.26-.52-.62-.4-.97a11.67 11.67 0 0 0-3.1-2.98c-9.94-6.04-18.32-13.86-25.72-22.75-9.6-11.52-15.55-25.09-21.27-38.77-.77-1.83-1.81-3.55-2.75-5.73-.64-2.42-1.26-4.44-1.91-6.83-.39-3.23-.9-6.1-1.06-8.98-1.1-20.46 1.58-40.49 6.93-60.22 4.48-16.5 8.9-33.02 9.43-50.26.36-11.96-.17-23.82-4.27-35.21-.02.04.06 0 0-.33-3.4-9.48-6.74-18.63-10.1-28 0-.2-.13-.59.03-.89a48.29 48.29 0 0 1 6.97 4.65c.29.51.57.66 1.08.96 2.72 2.45 5.28 4.6 7.94 7.03.67.75 1.25 1.22 1.98 2 2.06 2.44 3.97 4.57 5.99 7.04 2.93 3.7 5.75 7.07 8.6 10.42.03 0-.03 0 .2.22a62.53 62.53 0 0 1 3.3 5.3c3.88 8.69 8.1 16.87 11.42 25.4a135.34 135.34 0 0 1 9.3 52.2c-.3 14.04-1.78 28.05-2.9 42.43-1.93 9.9-3.55 19.48-5.46 29-4.37 21.85-4.2 42.81 11.53 61.25 1.02.44 1.87.55 2.73.66 0 0 .06-.1-.31.2a77.91 77.91 0 0 0 7.27 7.72s.05.06-.1.42c4.63 4.23 9.4 8.1 14.17 11.98-4.08-.12-7.82-1.14-11.6-1.99-4.13-.93-8.3-1.7-12.44-2.55zM334.24 226c5.95-3.5 11.9-6.98 17.86-10.47 1.06-.63 2.1-1.3 3.77-2.13 3.4-1.31 6.2-2.46 9.2-3.69l-10.42 15.23c-.57.92-1.13 1.84-1.86 3.3a8.09 8.09 0 0 1-3.1 1.9c-.9.98-1.5 1.98-2.09 3 .02 0 0-.02-.28.2-3.47 7.08-7.66 13.65-9.63 20.83-4.4 16.01-2.39 32.16 1.31 48.12 4.1 17.65 5.26 35.02-4.79 51.37.01.03 0-.03-.15.18a67.3 67.3 0 0 0-1.42 2.36c.02 0-.02-.01-.3.21-2.7 3.6-5.11 7-7.5 10.38.03 0-.02 0-.3.17-1.73 1.79-3.17 3.4-4.91 5.12-.7 1.26-1.08 2.4-1.46 3.55l-12.78 13.49c-1.75-3.55-3.24-6.6-5.07-10.2-2.05-2.74-3.4-5.38-5.53-7.05-9-7.06-19.75-11.97-26.58-22.1-.86-1.26-1.63-2.2-2.46-3.3-.06-.13-.32-.3-.5-.53-.9-1.6-1.63-2.95-2.4-4.48-.05-.17-.32-.4-.48-.66a49.67 49.67 0 0 1-2.27-5.25c-.68-4.77-2.24-9.18-1.9-13.45.74-9.41 2.44-18.75 3.97-28.36a41.2 41.2 0 0 0 1.44-4.04c-.02 0 .01 0 .2-.31 2.58-5.27 5-10.23 7.4-15.18 0 0-.01-.07.36.06 1.1-.93 1.81-1.98 2.53-3.03 0 0 .12-.06.45 0 .78-.67 1.25-1.4 1.93-2.23.45-.3.56-.56.85-1.05 4.17-3.7 7.71-7.72 11.99-10.69 11.3-7.83 22.97-15.13 34.37-22.83 3.72-2.51 7.05-5.61 10.55-8.45z"/>
  <path fill="#FCFCFC" d="M268.06 185.13c.3-.22.61-.45 1.36-.92 3.89-3.4 7.61-6.3 10.69-9.77 6.48-7.32 11.41-15.53 13.07-25.79 3.1-12.96.9-25.3-2.63-37.56l1.21-.42c7.34 8.86 14.67 17.7 22.09 26.92 6.2 10.96 9.1 22.4 7.5 34.54-2.92 21.94-14.77 38.4-32.1 51.66-9.1 6.98-17.37 15.07-26.25 22.88-5.88 7.15-11.53 14.09-17.87 21.87-.52-6.55-.68-11.7-1.36-16.8-3.08-22.84 3.92-42.16 19.8-58.63 2.05-2.13 3.02-5.3 4.5-7.98z"/>
  <path fill="#2B2521" d="M166.53 382.5c8.6 5.8 17.03 11.87 25.86 17.3 7.14 4.41 14.76 8.05 23.27 12.62-19.37 3.1-37.58 5.76-56.15 3.1-12.26-1.75-24.14-4.7-34.14-12.44-4.4-3.41-8.2-7.57-12.08-11.75.7-.63 1.19-.91 1.93-.98 5.81 7.14 12.9 12.05 20.9 15.69 22.58 10.27 46.03 7.64 68.75 5.28a1712.66 1712.66 0 0 1-39.16-26.94c.18-.76.23-1.07.42-1.5l.4-.38z"/>
  <path fill="#25211F" d="M263.24 246.44c8.64-7.58 16.9-15.67 26.01-22.65 17.33-13.26 29.18-29.72 32.1-51.66 1.6-12.14-1.3-23.58-7.44-34.6-.02-.42.1-.55.46-.55l1.75-.03c.32.37.64.75.98 1.78.28 1.43.46 2.25.8 3 6.92 14.84 7.35 29.98 1.94 45.32-1.36 3.88-3.09 7.63-4.65 11.44-5.4 11.12-14.01 19.44-23.57 26.91a199.63 199.63 0 0 1-12.04 8.76 4.49 4.49 0 0 0-1.53 1.95 97.96 97.96 0 0 1-7.12 5.8 47.08 47.08 0 0 0-4.94 5.01s0 .07-.35.07c-.77.01-1.2.02-1.8-.12l-.6-.43z"/>
  <path fill="#25211F" d="M267.73 185.13c-1.14 2.69-2.11 5.85-4.16 7.98-15.88 16.47-22.88 35.8-19.8 58.64.68 5.08.84 10.24 1.36 16.8 6.34-7.79 11.99-14.73 17.87-21.88.24-.23.64.05.83.54.19.93.2 1.38.2 1.83 0 0-.03-.04-.24.08-.38.42-.56.71-.73 1 0 0 0-.08-.2.02a8.6 8.6 0 0 0-.96 1.47c-.41.7-.83 1.4-1.85 2.3-1.08.86-1.54 1.52-2 2.2-.83 1.21-1.65 2.43-3 3.93-.67.65-.8 1-.94 1.36a49.18 49.18 0 0 1-4.03 5.6c-1.07 1.23-1.55 2.19-2.02 3.14-.52 1.15-1.03 2.3-2.1 3.66-1.23.2-1.9.2-2.58.19-.1-.77-.2-1.54-.03-2.87a8.87 8.87 0 0 0-.59-3.1 4.27 4.27 0 0 1-.26-1.98 10.6 10.6 0 0 0-.25-2.96 9.8 9.8 0 0 1-.2-1.3 7.36 7.36 0 0 0-.42-1.56c-.18-1.8-.36-3.59-.24-6.1a57.4 57.4 0 0 0-.92-7.95c-.07-2.14-.15-4.29.06-7.14.43-2.8.58-4.87.74-6.94-.03-.2-.06-.4.1-.96.33-.65.27-.88-.01-1.06a6.83 6.83 0 0 1 .2-2c.33-.6.41-.76.47-.93 0 0-.03-.1.27-.37.44-1.43.57-2.6.7-3.75 0 0 0-.02.28-.25a72 72 0 0 0 1.85-6.37s-.03-.23.32-.5a121 121 0 0 0 3.59-7.79c1.69-2.54 3.38-5.08 5.5-7.89.56-.32.8-.37.8-.43 0-.23-.06-.46-.1-.69a52 52 0 0 1 4.65-6c1.06-.56 1.52-.95 1.97-1.34 0 0 .02.14.25.02.45-.69.66-1.26.87-1.83a63.13 63.13 0 0 1 4.75-4.82z"/>
  <path fill="#28211C" d="M124.98 308.98c.47-6.54 5.96-8.8 11.17-11.98-.17 1.75-.06 3.58-.56 5.23-7.32 24.3-.65 45.3 15.14 64.1 2.87 3.43 6 6.63 9.25 10.48.56.74.86.93 1.16 1.12 0 0-.09-.02-.1.37-.07.94-.12 1.5-.5 1.92-22.67-20.13-35.66-43.88-28.94-76.2l-6.6 4.95c0 .02-.02 0-.02 0z"/>
  <path fill="#1A1A1A" d="M175.18 141.88c4.08 11.43 4.61 23.29 4.25 35.25-.53 17.24-4.95 33.76-9.43 50.26-5.35 19.73-8.04 39.76-6.93 60.22.16 2.89.67 5.75.73 8.76a5.83 5.83 0 0 1-.85-2.24l-2.44-11.18c-.07-5.67-.15-11.33.21-17.58.48-2.83.53-5.09.58-7.34a3.2 3.2 0 0 1 .35-1.79c1.75-7.17 3.03-13.9 4.41-20.61 1.16-5.61 2.44-11.2 3.66-16.78 0 0 .05-.07.37-.2 1.23-4.62 2.15-9.12 3.07-13.62-.03-.17-.05-.34.3-.99 1.13-6.32 1.9-12.17 2.68-18.02-.02-.18-.04-.35.23-1.03.25-1.15.21-1.8.17-2.44-.08-.37-.16-.74.25-1.57.58-6.17 1.03-11.91.69-17.6-.43-7.2-1.5-14.34-2.3-21.5z"/>
  <path fill="#1C1918" d="M219.13 270c.96-14.03 2.45-28.04 2.74-42.08a135.34 135.34 0 0 0-9.3-52.2c-3.32-8.53-7.54-16.71-11.2-25.6-.03-1.72-.24-2.9-.41-4.1l.07-.05c.9 1.15 1.8 2.3 2.84 4.08.71 1.43 1.29 2.23 1.86 3.03 0 0 .16.44.23.97.41 1 .76 1.47 1.12 1.93.3.45.6.9.92 2 1.38 3.44 2.74 6.2 4.1 8.98 0 0-.08.03-.08.34a42.51 42.51 0 0 0 1.84 3.71c.06.16.12.32-.03.93 1.62 5.64 3.44 10.83 5.27 16.01 0 0-.08.06-.08.4.35 1.43.7 2.53 1.04 3.63 0 0-.06.02-.06.43 1.29 6.8 2.57 13.19 3.85 19.58.03.77.07 1.54-.12 2.77-.4.74-.35.97-.04 1.16.07.27.14.54.24 1.43.13 1.18.21 1.74.3 2.3.12 7.6.25 15.21.11 23.52-.33 1.53-.4 2.38-.47 3.22 0 .28.01.57-.2 1.36-.34.8-.25 1.04.07 1.2-.05 2.52-.1 5.04-.39 8.02-.22.46-.35.6-.35.6-.08 2.18-.16 4.36-.7 7.1a113.81 113.81 0 0 0-3.17 5.33z"/>
  <path fill="#29231E" d="M218.96 270.35a51.8 51.8 0 0 1 3.2-5.25 2262.18 2262.18 0 0 1-7.28 45.31c-2.9 17.17.36 32.89 10.95 47.5a11.7 11.7 0 0 1-.94 2.37c-15.58-18.12-15.75-39.08-11.38-60.94 1.9-9.51 3.53-19.08 5.45-28.99z"/>
  <path fill="#302A25" d="M313.97 403.92c.97-.65 1.94-1.3 3.57-1.99 1.6-.66 2.52-1.3 3.44-1.93.23-.28.45-.56 1.28-.9 1.62-.4 2.64-.73 3.87-.97.5.27.7.5.6 1.01-6.43 3.9-12.61 7.57-20.07 11.98 6.8.71 12.3 1.38 17.8 1.84 14.97 1.26 29.77-.05 44.86-2.98 2.6-.26 4.79-.54 6.97-.82-14.8 6.93-30.55 7.82-46.52 7.3-1.65-.04-3.3-.26-5.44-.64-.8-.47-1.06-.42-1.28-.08-.81 0-1.62.01-3.04-.39-3.76-.71-6.9-1.02-10.04-1.34-2.1-.18-4.21-.36-6.82-1.04-1.18-1.06-1.85-1.63-2.53-2.2 0 0 .14-.05.57.03a261 261 0 0 0 12.78-6.88z"/>
  <path fill="#1B1B1B" d="M334.2 353.64c10.06-16.33 8.9-33.7 4.8-51.35-3.7-15.96-5.7-32.11-1.31-48.12 1.97-7.18 6.16-13.75 9.77-20.28.58 1.05.74 1.79.9 2.53 0 0-.04.35-.47.6a217.78 217.78 0 0 0-5.99 11.83s.04.07-.28.27a33.14 33.14 0 0 0-2.54 5.22l-.4 6.61a7 7 0 0 1-.46 2.81 76.82 76.82 0 0 0-1.13 12.58c.01 1.9.9 3.8 1.4 5.7.1 1.08.22 2.15.05 3.92-.03 3.28-.04 5.92.54 8.42 1.3 5.6 2.9 11.12 4.38 16.67.1.45.2.89.04 1.96.2 2.43.64 4.23 1.08 6.03.03 4.02.06 8.04-.4 12.65a28.84 28.84 0 0 0-.91 5.8s.11.27-.3.57c-2.26 5.51-4.13 10.71-5.99 15.9 0 0-.02.04-.5 0a56.21 56.21 0 0 1-2.28-.32z"/>
  <path fill="#27221D" d="M166.06 303.82c.92 1.78 1.96 3.5 2.73 5.33 5.72 13.68 11.67 27.25 21.27 38.77 7.4 8.89 15.78 16.71 25.73 22.75a7.57 7.57 0 0 1 2.78 2.98 3.9 3.9 0 0 1-1.66.39c-11.43-5.27-20.2-13.9-28.16-23.26-10.3-12.1-17.22-26.23-22.68-41.92-.04-2.2-.02-3.62-.01-5.04z"/>
  <path fill="#28201B" d="M376.64 409.1c-2.53.34-4.72.62-7.2.54 1.22-.98 2.76-1.58 4.28-2.22 15.43-6.56 26.79-17.08 32.78-33.08 3.54-9.46 2.14-18.87.81-28.53.4-.74.57-1.3.74-1.87 6.77 13.5 4.79 26.76-2.28 39.21a59.38 59.38 0 0 1-29.13 25.95z"/>
  <path fill="#261F1B" d="M114.96 390.14c-.48.28-.97.56-1.75.86-9.57-9.7-13.9-21.55-11.96-34.57 1.42-9.5 5.5-18.62 8.84-28.28.68-.6.83-.86.89-1.17a16.5 16.5 0 0 1 1.37.02c.59.04.82.07.93.44-10.05 18.74-15.24 42.03 1.68 62.7z"/>
  <path fill="#29211B" d="M224.9 377.37c4 .51 8.17 1.3 12.3 2.22 3.78.85 7.52 1.87 11.6 1.99-4.77-3.88-9.54-7.75-14.13-11.96a63.77 63.77 0 0 1 8.12 3.71c6.83 3.59 13.64 7.2 20.82 11.27.36 1.37.35 2.28.33 3.19-.82-.13-1.65-.26-2.94-.58-.46-.19-.79-.26-.79-.26-10.93-2.5-21.86-4.99-32.77-7.57-.88-.21-1.6-1.1-2.54-2z"/>
  <path fill="#231D1A" d="M333.86 225.94c-3.12 2.89-6.45 5.99-10.17 8.5-11.4 7.7-23.07 15-34.37 22.83-4.28 2.97-7.82 6.99-12 10.3a8.07 8.07 0 0 1-.33-2.59c11.13-8.52 22.03-17.36 33.47-25.45 7.26-5.13 15.31-9.14 23.4-13.6z"/>
  <path fill="#26211D" d="M380.15 328.06a92.27 92.27 0 0 0-4.57-32.64c7.32 3.55 11.34 10.15 16.3 16.24.12.35.02.47-.47.6-.77.33-1.05.52-1.66.64-3.02-3.3-5.7-6.54-8.3-9.68.5 7.67 1.58 15.23 1.3 22.74-.2 4.76-2.4 9.44-3.72 13.72-.03-1.85-.03-3.27-.04-4.7 0 0 .01.02.28-.2.47-2.4.67-4.56.88-6.72z"/>
  <path fill="#25211F" d="M313.83 137.17c-7.4-8.8-14.73-17.64-22.07-26.5l-1.2.42c3.53 12.26 5.73 24.6 2.36 37.55-.67.32-.84.31-1-.08-.18-2.1-.39-3.8-.6-5.5.02-.46.03-.93.51-1.88.1-5.38-.26-10.27-.63-15.15-.05-.18-.1-.35.11-1.04-.95-4.66-2.16-8.81-3.37-12.96 0 0 .06-.02.05-.29-.28-.75-.54-1.24-.8-1.73-.07-.16-.13-.32-.01-.83.47-.52.63-.78 1.06-1.14.88-.07 1.38-.11 2.2-.2.5-.12.69-.2.88-.3l.03.44c.62.55 1.21.75 1.8.94a18.1 18.1 0 0 1 2.77 3.11c.5 1.01.9 1.42 1.3 1.83 0 0-.1.07-.02.28.37.38.67.56.97.74 0 0-.1.08 0 .28.4.4.7.58 1.01.76.3.1.54.28.8 1.12a49.43 49.43 0 0 0 5.1 4.92c.26.22.52.43.86 1.2.48.94.87 1.34 1.25 1.74 0 0-.09.03-.02.24.35.42.63.62.91.82 0 0-.07.03-.04.34a72.48 72.48 0 0 0 3.97 4.68s-.01.02.03.37c.68 2.11 1.33 3.87 1.98 5.63l-.2.19z"/>
  <path fill="#27201A" d="M355.02 224.94c3.06-5.02 6.5-10.04 10.06-15.23-3.02 1.23-5.8 2.38-9.01 3.42 1.36-1.63 2.96-3.42 4.92-4.63 5.48-3.4 11.1-6.55 16.67-9.8l1.17 1.64c-7.82 8.2-15.63 16.4-23.81 24.6z"/>
  <path fill="#2F2721" d="M378.7 335.22c.3 1.19.3 2.61.34 4.8-.08 2 .14 3.38-.33 4.48-5.59 13.11-13.62 24.47-24.79 33.35-.64-.35-1.14-.46-1.73-.65l-.26-.26c12.18-11.7 22.36-24.66 26.78-41.72z"/>
  <path fill="#29231F" d="M268.32 350.06c6.72 9.84 17.47 14.75 26.47 21.81 2.13 1.67 3.48 4.3 5.2 6.9-11.61-9.08-25.89-15.31-34.77-28.54-.08-.36.03-.47.4-.39 1.15.13 1.92.18 2.7.22z"/>
  <path fill="#29231E" d="M261.94 293.99c-1.3 9.36-3 18.7-3.74 28.11-.34 4.27 1.22 8.68 1.54 13.44-.87.44-1.35.46-1.83.48a359.56 359.56 0 0 1-2.65-19.74c.2-1.14.1-1.68 0-2.23-.03-.48-.06-.97.18-1.97.4-.98.52-1.45.64-1.91 0 0-.05-.1.14-.22.26-.2.39-.35.36-.4-.1-.19-.26-.35-.39-.52-.03-.47-.05-.94.2-1.96.34-1.1.4-1.66.45-2.21 0 0 .08.07.35-.13.43-1.75.58-3.28.74-4.82 0 0 .04.07.3-.14.42-1.4.59-2.6.76-3.79 0 0 .01.02.25-.13.72-.73 1.2-1.3 1.94-1.88l.76.02z"/>
  <path fill="#23211F" d="m291.9 148.94.8.04c-1.18 9.93-6.11 18.14-12.59 25.46-3.08 3.47-6.8 6.37-10.58 9.5A162.4 162.4 0 0 1 284.98 164c1.44-2.49 2.27-4.67 3.1-6.85 0 0-.04-.08.3-.3 1.4-2.77 2.46-5.34 3.52-7.9z"/>
  <path fill="#3B2E23" d="M175.16 141.92c.81 7.12 1.89 14.27 2.32 21.45.34 5.7-.11 11.44-.62 17.34-1.49-12.33-2.22-24.9-3.83-37.33-.73-5.66-3.2-11.1-4.6-16.82a37.83 37.83 0 0 1 2.73 5.63l4.06 9.73s-.08.04-.06 0z"/>
  <path fill="#322922" d="M315.43 198.21c1.32-3.53 3.05-7.28 4.41-11.16 5.4-15.34 4.98-30.48-1.94-45.33-.34-.74-.52-1.56-.75-2.74 10.71 18.34 9.68 37.15.32 56-.5 1.03-1.2 1.97-2.04 3.23z"/>
  <path fill="#1A1714" d="M408.07 343.55c-.19.95-.35 1.52-1.02 2-1.4-2.87-1.97-5.8-3.25-8.37-3.18-6.39-6.67-12.62-9.66-19 .9-.13 1.43-.17 1.95-.21 6.04 7.42 9.27 16.18 11.98 25.58z"/>
  <path fill="#1A1A1A" d="M175.16 141.6c-1.3-2.92-2.64-6.17-4-9.41a71.59 71.59 0 0 0-2.75-6c-1-1.9-1.7-3.62-2.43-5.99a8.1 8.1 0 0 0-.9-2.19s-.07 0-.07-.46l.07-3.75c3.34 9.16 6.68 18.31 10.08 27.8z"/>
  <path fill="#080808" d="M326.98 398.91c-.15-.29-.36-.51-.78-1.02-.15-.5-.15-.67-.15-.84 7.02-5.05 14.05-10.1 21.69-14.93.78.38.96.54.83.9-7.4 5.42-14.5 10.65-21.59 15.89z"/>
  <path fill="#3B2E23" d="M169.48 219.11c-.98 5.33-2.26 10.91-3.42 16.52-1.38 6.7-2.66 13.44-4.32 20.29a951.63 951.63 0 0 1 7.74-36.8zM166.04 303.42l-.01 5.07a765.87 765.87 0 0 1-5.64-25.14c.93 3.33 1.74 7.06 2.56 10.78.18.8.38 1.6.9 2.6a48.47 48.47 0 0 1 2.19 6.7z"/>
  <path fill="#1A1A1A" d="M171.97 117.12c-2.24-1.58-4.48-3.15-7.18-4.42-.88.29-1.29.27-1.76-.07-.7-1.45-1.35-2.58-2.03-4.03-.03-1.4-.01-2.5.17-3.34.73.4 1.29.57 1.84.73.9.8 1.81 1.6 2.97 2.9.57.67.88.83 1.2 1 0 0-.1 0 0 .24.66.46 1.2.68 1.73.9.3.15.6.3 1.03 1.03.92 1.35 1.71 2.11 2.5 2.88 0 0 .06.13-.1.67-.23.86-.3 1.18-.37 1.5z"/>
  <path fill="#28201B" d="M115.95 318.88a339.7 339.7 0 0 1 8.68-9.76c.35-.14.37-.13.1.1-3 4.51-5.74 8.78-8.54 12.97-.07-.07-.2-.2-.2-.6l-.04-2.71z"/>
  <path fill="#4A280D" d="M264.35 387.88c-.4-1-.38-1.9-.38-3.15 4.92 1.12 9.85 2.58 14.78 4.04l-.28 1.32c-4.57-.7-9.14-1.41-14.12-2.21z"/>
  <path fill="#37291F" d="M338.6 281.59c-.6-1.45-1.5-3.35-1.5-5.25a86 86 0 0 1 .98-12.22c.42 5.56.52 11.28.51 17.47zM343.52 310.66a279.7 279.7 0 0 1-4.44-16.28c-.58-2.5-.57-5.14-.61-8.02a506.01 506.01 0 0 1 5.05 24.3z"/>
  <path fill="#231D1A" d="M270.92 273.94a129.07 129.07 0 0 1-7.27 15.05 98.3 98.3 0 0 1 2.42-9.8 42.8 42.8 0 0 1 4.85-5.25z"/>
  <path fill="#1A1A1A" d="M197.63 144.81a321.69 321.69 0 0 1-8.54-10.47c-.06-.37.03-.45.37-.38 1.43.38 2.52.69 3.61.99 0 0-.06.04.04.24.28.5.54.7.87.8 0 0 .02 0 .04.3.5.76.97 1.23 1.44 1.7.12.17.25.33.5 1.09.7 1.05 1.27 1.52 1.85 1.98 0 0 .15.03.14.55-.11 1.42-.22 2.3-.32 3.2z"/>
  <path fill="#1B1B1B" d="M324.81 366.79c2.42-3.39 4.83-6.77 7.62-9.92.43 1.19.49 2.13.54 3.07 0 0 .03.05-.32.1-.77.73-1.18 1.41-1.6 2.1a3.55 3.55 0 0 1-1.11 1.78 8.28 8.28 0 0 0-1.95 2.03s0 .06-.24.18c-.39.41-.53.7-.68 1 0 0 0-.1-.36-.1l-1.9-.24z"/>
  <path fill="#3B2E23" d="M176.04 186.41c-.67 5.46-1.45 11.3-2.52 17.38a333.9 333.9 0 0 1 2.52-17.38z"/>
  <path fill="#3E3128" d="M223.9 211.56a543 543 0 0 1-3.88-19.18 543 543 0 0 1 3.88 19.18z"/>
  <path fill="#332820" d="M265.81 279.4c-.66 3.03-1.58 6.26-2.34 9.9.15.4.12.4-.21.3-1 1.4-1.67 2.88-2.33 4.36-.48.58-.97 1.16-1.7 1.89a305.23 305.23 0 0 1 6.58-16.45z"/>
  <path fill="#3E3128" d="M219.1 187.55a209.74 209.74 0 0 1-5.25-15.36c1.9 4.85 3.58 9.9 5.26 15.36z"/>
  <path fill="#37291F" d="M337.25 353.76c1.6-4.99 3.46-10.19 5.64-15.58-1.57 5-3.47 10.18-5.64 15.58z"/>
  <path fill="#3C2F25" d="M291.14 126.45c.43 4.46.8 9.35.85 14.41-.51-4.55-.7-9.26-.85-14.4z"/>
  <path fill="#29211B" d="M235.1 368.98a46.44 46.44 0 0 1-7.7-7.5 46.44 46.44 0 0 1 7.7 7.5z"/>
  <path fill="#3C2F25" d="M291.92 148.56a84.23 84.23 0 0 1-3.5 8.28c.7-4.2 1.7-8.6 2.8-13.38.31 1.3.52 3 .7 5.1z"/>
  <path fill="#1A1A1A" d="M180.98 125.07a96.67 96.67 0 0 1-7.67-6.97c.7-.41 1.38-.33 2.06-.26a38.8 38.8 0 0 1 4.65 4c.47 1.5.72 2.36.96 3.23zM188.99 134.01a61.3 61.3 0 0 1-5.66-6.79c.66-.69 1.2-.97 1.72-1.25 1.14 1.56 2.29 3.12 3.69 5.23.3 1.27.34 1.98.38 2.69l-.13.12z"/>
  <path fill="#342921" d="M313.6 403.97a198.87 198.87 0 0 1-12.36 6.88c3.76-2.3 7.88-4.57 12.37-6.88z"/>
  <path fill="#3B2E23" d="M172.9 205.3c-.66 4.23-1.58 8.73-2.85 13.37.62-4.28 1.6-8.68 2.84-13.36z"/>
  <path fill="#3C2F25" d="M287.95 112.43c1.2 3.75 2.41 7.9 3.4 12.3a141 141 0 0 1-3.4-12.3z"/>
  <path fill="#403228" d="M342.16 248.62c1.6-3.63 3.44-7.48 5.62-11.45a144.65 144.65 0 0 1-5.62 11.45z"/>
  <path fill="#29231E" d="M263.05 346.94c-1.61-3.08-3.23-6.15-4.56-9.4 1.54 1.05 2.79 2.29 4.04 3.53 0 0 .27.22.08.7.1 1.98.37 3.47.6 5.01l-.16.16z"/>
  <path fill="#25211D" d="M318.5 375.65a5.68 5.68 0 0 1 1.5-3.56c1.4-.16 2.12-.2 2.88-.22l.09.1a49.64 49.64 0 0 1-4.47 3.68z"/>
  <path fill="#1C1918" d="M184.9 125.67c-.38.58-.9.86-1.71 1.25a5.65 5.65 0 0 1-2.11-1.58l-.93-3.2c1.48.85 3.04 2.04 4.76 3.53z"/>
  <path fill="#3E3128" d="M212.08 166.58a87.15 87.15 0 0 1-4.04-8.31 87.16 87.16 0 0 1 4.04 8.31z"/>
  <path fill="#23211F" d="M290.13 107.88c-.5.05-1 .1-2.1.04-1.02-.37-1.43-.64-1.85-.92.05-.67.1-1.34.8-2.02 1.14-.02 1.63-.05 2.11-.07 0 0-.04.1.05.3a5 5 0 0 0 .91.76s-.05.03-.05.33l.13 1.58z"/>
  <path fill="#28211C" d="M248.77 208.31c-.81 2.3-1.9 4.8-3.23 7.5.81-2.3 1.9-4.8 3.23-7.5z"/>
  <path fill="#101010" d="M262.37 340.8c-1.1-.97-2.34-2.2-3.86-3.62a1.54 1.54 0 0 1-.57-.9c.45-.28.93-.3 1.78-.32 1.07 1.53 1.79 3.05 2.65 4.84z"/>
  <path fill="#342921" d="M310.26 414.28c2.85.05 6 .36 9.36.94a62.04 62.04 0 0 1-9.36-.94z"/>
  <path fill="#403228" d="M349.99 230.15c.88-.46 1.76-.91 2.86-1.57a36.02 36.02 0 0 1-2.63 5.19c-.3.14-.43.02-.35-.34.09-1.33.1-2.3.12-3.28z"/>
  <path fill="#28211C" d="M240.38 246.55c.5 2.03.9 4.44 1.06 7.12-.53-2.07-.84-4.4-1.06-7.12z"/>
  <path fill="#322922" d="M314.37 136.98c-1-1.76-1.65-3.52-2.32-5.63a41.1 41.1 0 0 1 4.01 5.26c-.4.34-.87.35-1.7.37z"/>
  <path fill="#2B2119" d="m159.02 105.94-2.95-4.24.63-.74c1.04.79 2.09 1.58 3.02 2.83-.3 1.02-.5 1.59-.7 2.15z"/>
  <path fill="#2F2721" d="M379.9 328.36c.04 1.86-.16 4.03-.64 6.41-.05-1.89.18-4 .65-6.41z"/>
  <path fill="#26211D" d="M396.04 317.63c-.47.38-1 .42-1.87.54-.36.08-.4.1-.35-.27a73.33 73.33 0 0 0-1.92-5.77l.15-.18a68.5 68.5 0 0 1 4 5.68z"/>
  <path fill="#3B2E23" d="M161.19 258.42a35.4 35.4 0 0 1-.35 6.5 35.4 35.4 0 0 1 .35-6.5z"/>
  <path fill="#37291F" d="M344.65 318.67c-.51-1.43-.95-3.23-1.2-5.32.55 1.46.9 3.2 1.2 5.32z"/>
  <path fill="#28211C" d="M241.15 232.45c-.04 1.71-.2 3.79-.53 6.13.02-1.75.22-3.76.53-6.13z"/>
  <path fill="#332820" d="M276.7 265.11c.3.66.3 1.44.32 2.62.02.72-.1.99-.95 1.23a21.13 21.13 0 0 1-2.27-.2 47.81 47.81 0 0 1 2.9-3.65z"/>
  <path fill="#28211C" d="M266.3 246.82a35.54 35.54 0 0 1 4.32-4.79 35.54 35.54 0 0 1-4.32 4.8z"/>
  <path fill="#322922" d="M304.92 121.68a41.76 41.76 0 0 1-4.86-4.43 41.76 41.76 0 0 1 4.86 4.43z"/>
  <path fill="#2A241F" d="m160.86 380.36.22-2.1c1.27.42 2.49 1.25 3.83 2.4.12.31.02.4-.26.4-.73.29-1.18.59-1.9.82-.8-.55-1.35-1.04-1.89-1.52z"/>
  <path fill="#3C2F25" d="M287.84 157.38a41.01 41.01 0 0 1-2.58 6.46 41 41 0 0 1 2.58-6.46z"/>
  <path fill="#241E1A" d="m163.1 112.96 1.53.04c.3 0 .42.4.44.6l-.05 3.91a12.1 12.1 0 0 1-1.95-3.58c-.01-.56.02-.97.02-.97z"/>
  <path fill="#342921" d="M300.29 410.8c1 .54 1.68 1.1 2.53 1.95-.95.22-2.1.26-3.2.08-.45-.08-.82-.66-1.22-1.01.52-.34 1.03-.67 1.89-1.03z"/>
  <path fill="#322922" d="M311.96 130.66a29.16 29.16 0 0 1-3.9-4.4 29.15 29.15 0 0 1 3.9 4.4z"/>
  <path fill="#28211C" d="M244.86 216.59a31.6 31.6 0 0 1-1.57 6.18 31.6 31.6 0 0 1 1.57-6.18z"/>
  <path fill="#1C1918" d="M189.46 133.96a5.99 5.99 0 0 1-.46-2.55c1.25.76 2.5 1.87 3.91 3.26-.93-.02-2.02-.33-3.45-.7z"/>
  <path fill="#37291F" d="M338.8 260.58c0-1.7.13-3.79.5-6.23.25-.36.69-.35.69-.35a273.2 273.2 0 0 1-1.2 6.58z"/>
  <path fill="#403228" d="M340.24 253.77c-.25.23-.69.22-.9.2a25 25 0 0 1 2.24-4.84 19.63 19.63 0 0 1-1.34 4.64z"/>
  <path fill="#28201B" d="M112.84 323.45c.19-.44.38-.87 1.15-1.39 1.05-.08 1.52-.08 2-.08 0 0 .13.14.11.55-.87 1.77-1.73 3.14-2.74 3.91-.27-1.39-.4-2.19-.52-2.99z"/>
  <path fill="#080808" d="M348.1 382.09c.22-1.14.7-2.02 2.16-2.93 1.43.06 1.9.14 2.1.5-1.33 1.26-2.41 2.2-3.5 3.16l-.76-.73z"/>
  <path fill="#37291F" d="M343.48 337.2c-.08-1.44.06-3.18.5-5.08.11 1.47-.09 3.12-.5 5.07z"/>
  <path fill="#29211B" d="M225.04 360.6c.14-.9.43-1.47.86-2.34.83.59 1.52 1.47 2.05 2.68-1.04.2-1.9.1-2.9-.34z"/>
  <path fill="#2B2119" d="M163.03 112.63c.06.33.03.74.03.95a21.42 21.42 0 0 1-2.48-4.3.61.61 0 0 1 .46-.36c.64 1.13 1.29 2.26 2 3.71z"/>
  <path fill="#28211C" d="M243.32 274.3c.74-.3 1.41-.3 2.42-.27a9.83 9.83 0 0 1-1.54 2.5c-.32-.64-.64-1.28-.88-2.23z"/>
  <path fill="#241E1A" d="M161 108.6c.04.32-.28.36-.44.37-.6-.77-1.05-1.56-1.51-2.69.17-.9.37-1.47.82-2.2.27-.16.71-.06.93.23.2.29.2.7.2.7-.01 1.1-.03 2.19 0 3.6z"/>
  <path fill="#231D1A" d="M273.95 270.83a8.23 8.23 0 0 1-2.35 3.44c-.61-.6-.9-1.05-.62-1.93a31.8 31.8 0 0 0 1.94-1.8c.3-.05.58-.09 1.03.29z"/>
  <path fill="#2B2119" d="M175.27 117.5c-.58.27-1.27.19-2.12.31-.52.2-.8.05-1.1-.46 0-.56.06-.88.31-1.67 1.05.18 1.93.84 2.9 1.83z"/>
  <path fill="#2A241F" d="M115.99 321.6c-.48.38-.95.38-1.77.37.15-.94.66-1.86 1.45-2.94.3.62.3 1.4.32 2.57z"/>
  <path fill="#28211C" d="M242.62 268.3c.43.56.71 1.41.8 2.44-.45-.6-.7-1.38-.8-2.44z"/>
  <path fill="#25211D" d="m324.84 366.8 1.9.26a5.63 5.63 0 0 1-1.43 2.82c-.32.12-.41.02-.38-.37a48.95 48.95 0 0 0-.11-2.73l.02.01z"/>
  <path fill="#332820" d="M257.64 300.15c.13 1.3-.02 2.83-.5 4.58-.15-1.3.03-2.82.5-4.58z"/>
  <path fill="#3E3128" d="M213.87 170.68c-.62-.8-1.23-1.93-1.82-3.41.63.8 1.23 1.93 1.82 3.4z"/>
  <path fill="#342921" d="M325.72 397.06c.33.16.33.33.26.74-1.08.57-2.1.9-3.44 1.24.73-.64 1.8-1.3 3.18-1.98z"/>
  <path fill="#332820" d="M258.72 296.21a8.6 8.6 0 0 1-.53 3.56 8.6 8.6 0 0 1 .53-3.56z"/>
  <path fill="#2B2119" d="M172.38 114.6a8.43 8.43 0 0 1-2.33-2.3c.74.42 1.5 1.2 2.33 2.3z"/>
  <path fill="#342921" d="M320.65 400.04c-.6.6-1.52 1.23-2.81 1.84.58-.6 1.53-1.2 2.8-1.84z"/>
  <path fill="#29231E" d="M265.09 349.92a21.55 21.55 0 0 1-1.94-2.69c-.1-.3 0-.4.45-.41.9-.23 1.36-.44 1.83-.65 0 0 .26.17.09.65-.2 1.3-.24 2.12-.27 2.94l-.16.16z"/>
  <path fill="#231D1A" d="m273.82 268.78 2.03.26c-.05.8-.52 1.53-1.29 2.14-.48-.13-.66-.12-.8-.8l.1-1.55-.04-.05z"/>
  <path fill="#28211C" d="M248.33 269.96c.2-.77.68-1.73 1.47-2.8-.19.79-.7 1.7-1.47 2.8z"/>
  <path fill="#2A241F" d="M112.6 323.7c.36.55.49 1.35.73 2.75.12.6.07.63-.13.43-.53-.1-.87 0-1.2.1h-.77c.2-1.02.66-2.03 1.36-3.28z"/>
  <path fill="#1C1918" d="M197.65 144.8c.08-.88.19-1.77.28-3.12.61.27 1.25.99 1.99 2 .1.31 0 .4-.4.43-.9.25-1.4.48-1.9.7 0 0 .06-.02.03 0z"/>
  <path fill="#3E3128" d="M205.74 152.77a7.67 7.67 0 0 1-1.73-2.42c.58.48 1.16 1.3 1.73 2.42zM220.07 191.6c-.36-.72-.7-1.82-1.02-3.3.36.73.7 1.84 1.02 3.3z"/>
  <path fill="#25211D" d="M333.22 359.78c-.3-.78-.36-1.72-.5-3.13-.1-.46-.06-.45.26-.23.86.3 1.4.4 1.98.53l.16.15c-.55.84-1.1 1.68-1.9 2.68z"/>
  <path fill="#1E1814" d="M224.11 246.26c-.17-.71-.1-1.56.04-2.64.12.68.16 1.6-.04 2.64z"/>
  <path fill="#25211D" d="M334.21 353.66c.6.08 1.2.17 2.27.29.02.95-.42 1.88-1.1 2.98-.26.17-.37.07-.4-.4-.28-1.29-.53-2.1-.77-2.9v.03z"/>
  <path fill="#28211C" d="M242.73 223.24c.14.94 0 2.1-.37 3.51a8.8 8.8 0 0 1 .37-3.51z"/>
  <path fill="#25211D" d="M325.04 370.04c-.47.63-.99 1.2-1.79 1.85-.28.08-.34.01-.28-.31.68-.78 1.3-1.23 1.93-1.68l.14.14zM328.26 365.86c.18-.54.64-1.16 1.41-1.82a4.46 4.46 0 0 1-1.4 1.82zM331.32 362c.15-.55.56-1.23 1.3-1.97a4.73 4.73 0 0 1-1.3 1.97z"/>
  <path fill="#28211C" d="M264.3 248.93c-.28-.34-.28-.79-.29-1.57.44-.35.86-.36 1.6-.37-.14.6-.59 1.21-1.31 1.94z"/>
  <path fill="#1E1814" d="M224.37 219.43c-.23-.34-.31-.9-.44-1.66.16.35.37.9.44 1.66z"/>
  <path fill="#3C2F25" d="M285.56 102.88c-.1.31-.29.5-.48.68.13-.27.26-.54.48-.68z"/>
  <path fill="#28211C" d="M242.15 263.43c.26.45.42 1.25.4 2.24-.28-.5-.4-1.2-.4-2.24z"/>
  <path fill="#3C2F25" d="M289 104.64c-.4.3-.88.32-1.73.32.3-.21.96-.4 1.72-.32z"/>
  <path fill="#1C1918" d="M161.17 105.26c-.17-.25-.16-.66-.16-.87.6.22 1.19.64 1.9 1.33-.45.1-1.01-.06-1.74-.46zM195.43 137.74a3.93 3.93 0 0 1-1.4-1.45c.44.21.9.7 1.4 1.45zM197.77 140.78a4.12 4.12 0 0 1-1.74-1.4c.54.17 1.12.64 1.74 1.4z"/>
  <path fill="#28211C" d="M258.3 255.97c.2-.54.67-1.2 1.48-1.9-.18.57-.7 1.17-1.47 1.9z"/>
  <path fill="#403228" d="M348.56 236.2c-.36-.52-.52-1.26-.82-2.54-.14-.54-.12-.52.17-.27.83.3 1.35.35 1.88.4l.18.18c-.36.71-.79 1.37-1.4 2.23z"/>
  <path fill="#3C2F25" d="M286.15 107.3c.45-.02.86.25 1.5.65.16.45 0 .7-.5.98a3.04 3.04 0 0 1-1-1.64z"/>
  <path fill="#27201A" d="M380.53 198c0 .1-.21 0-.21 0s.21-.09.21 0z"/>
  <path fill="#3C2F25" d="M293 108.67c-.44.06-1.03-.14-1.68-.65.47-.08 1 .16 1.68.65z"/>
  <path fill="#28211C" d="M261.56 191.78c-.15.37-.6.76-1.39 1.15.14-.37.61-.75 1.39-1.15zM262.7 190.08c.07.44-.14 1.01-.65 1.68-.08-.45.15-1 .65-1.68z"/>
  <path fill="#3B2E23" d="M176.38 182.82c.2.37.24 1.02.06 1.92-.23-.39-.23-1.02-.06-1.92z"/>
  <path fill="#3E3128" d="M207.05 155.67c-.33-.15-.68-.62-1.04-1.4.34.16.68.63 1.04 1.4z"/>
  <path fill="#1C1918" d="M200.06 143.95c.33.44.62.93.94 1.72.03.3-.02.34-.27.18a7.67 7.67 0 0 1-.8-1.77l.13-.13z"/>
  <path fill="#2B2521" d="M165.08 380.93c.42.35.78.74 1.3 1.35.15.22-.11.48-.49.44a3.97 3.97 0 0 1-.96-1.66l.15-.13z"/>
  <path fill="#3C2F25" d="M287.16 110.3c.29.2.55.69.8 1.46-.28-.2-.56-.68-.8-1.45zM297.17 113.57c-.35-.12-.74-.53-1.16-1.24.36.11.73.54 1.16 1.24z"/>
  <path fill="#322922" d="M307.14 124.62c-.33-.12-.72-.52-1.15-1.21.34.1.72.52 1.15 1.2z"/>
  <path fill="#241E1A" d="M165.08 118.32c.3.2.58.71.86 1.54-.3-.2-.58-.72-.86-1.54z"/>
  <path fill="#28211C" d="M255.08 199.2c.2.13.27.36.26.59 0 .06-.24.11-.52.2-.22-.26-.14-.5.26-.79z"/>
  <path fill="#2B2119" d="M168.77 110.78c-.4.03-.93-.19-1.57-.7.42-.04.93.2 1.57.7z"/>
  <path fill="#29231E" d="M217.07 374.29c.25-.27.66-.28 1.38-.3.31 0 .45.37.48.56-.54.13-1.12.06-1.86-.26z"/>
  <path fill="#28211C" d="M278.32 235.93c.01-.43.3-1.04.94-1.73.01.47-.33 1.01-.94 1.73zM262.17 251.54c-.02-.38.23-.84.73-1.39 0 .38-.23.85-.73 1.4z"/>
  <path fill="#3C2F25" d="M290.44 107.85c-.35-.4-.4-.83-.42-1.58.4.04.79.4 1.24 1.01-.13.35-.32.44-.82.57z"/>
  <path fill="#28211C" d="M241.53 260.42c.23.14.36.47.53.98-.19-.14-.4-.46-.53-.98z"/>
  <path fill="#332820" d="M272.6 270.6c-.14.4-.6.86-1.42 1.35.12-.42.6-.86 1.41-1.36zM255.2 314.37c.16.23.26.77.16 1.45-.2-.28-.21-.71-.16-1.45zM256.6 305.02c.19.4.13.94-.12 1.7-.17-.37-.15-.95.12-1.7zM255.85 310.29c.1.34-.01.8-.3 1.44-.1-.33-.02-.82.3-1.44z"/>
  <path fill="#3C2F25" d="M298.08 114.63c-.21.07-.51-.1-.87-.55.22-.07.5.12.87.55z"/>
  <path fill="#0D0D0D" d="m352.61 379.37-2.07-.33c-.53-.41-.3-.64.64-.56.9.5 1.16.74 1.4.97-.02-.03.03-.08.03-.08z"/>
  <path fill="#342921" d="M323.28 415.8c-.01-.4.25-.45.62-.08.08.14-.4.14-.62.08z"/>
  <path fill="#2B2119" d="M167.07 109.64c-.2.08-.52-.08-.93-.5.2-.08.52.09.93.5z"/>
  <path fill="#4A280D" d="M260.26 387.1c-.05-.15.28-.08.36-.06.07.02-.04.28-.04.28s-.28-.09-.32-.23z"/>
  <path fill="#3C2F25" d="M289.98 105.72c-.2.06-.48-.13-.83-.57.2-.05.48.14.83.57z"/>
  <path fill="#28211C" d="M241.3 230.28c.34-.03.4.2.15.56-.11.08-.2-.35-.15-.56z"/>
  <path fill="#332820" d="M256.11 309.27c.21-.07.37.1.47.28.03.05-.1.2-.3.38-.18-.07-.21-.24-.17-.66zM273.6 268.98c.24.15.22.44.08 1.15-.19-.05-.26-.53-.08-1.15z"/>
  <path fill="#28211C" d="M254.33 261.22c-.09-.17.05-.53.42-1.05.1.18-.05.53-.42 1.05z"/>
  <path fill="#2A241F" d="M110.75 327.06c.17.23.02.5-.41.84-.22-.23-.09-.52.4-.84z"/>
  <path fill="#1E1814" d="M223.12 257.62c-.12-.06 0-.19 0-.23.01-.04.25.06.25.06s-.13.22-.25.17z"/>
  <path fill="#28211C" d="M263.3 250.02c-.07-.19.1-.48.51-.89.07.2-.1.5-.5.9z"/>
  <path fill="#1E1814" d="M223.8 248.73c-.38.06-.47-.17-.22-.56.11-.09.27.34.21.56z"/>
  <path fill="#3C2F25" d="M299.07 115.69c-.2.05-.5-.14-.88-.59.2-.06.48.14.88.59z"/>
  <path fill="#28211C" d="M241.87 227.18c.1.13.02.3-.16.54-.28-.12-.25-.32.16-.54z"/>
  <path fill="#1E1814" d="M223.77 215.7c-.39.03-.45-.2-.15-.57.13-.08.23.36.15.58z"/>
  <path fill="#25211D" d="M327.3 367.03c-.08-.2.06-.49.42-.9.09.17-.05.48-.41.9z"/>
  <path fill="#1C1918" d="M193.89 135.76c-.24.12-.5-.08-.77-.6.17-.04.42.17.77.6z"/>
  <path fill="#322922" d="M308 125.71c-.2.05-.48-.15-.82-.61.2-.05.46.15.82.61z"/>
  <path fill="#2A241F" d="M161.04 377.68c-.2.06-.5-.13-.9-.58.2-.06.5.14.9.58z"/>
  <path fill="#2F2721" d="M351.4 378.37c-.25-.65-.1-.94.3-1.33.23-.1.4.07.42.72.14 1 .27 1.36.42 1.68.02-.03.07.03.07.03-.27-.25-.53-.5-1.2-1.1z"/>
  <path fill="#9B3924" d="m403.82 112.19-24.3-29.69 1.16-1.57 28.7 13.09 58.5-55.7 1.2.93-56.31 83.86-8.95-10.92z"/>
  <path fill="#1A1A1A" d="M199.52 144.1c.6.52.77 1.05 1.18 1.77.43 1.35.64 2.53.6 3.9-1.22-1.38-2.22-2.96-3.45-4.75.27-.43.76-.66 1.67-.91z"/>
  <path fill="#1B1B1B" d="M324.93 369.51c-.65.84-1.28 1.3-1.99 2.03-.82.34-1.54.4-2.64.44a36.95 36.95 0 0 1 4.23-5.02c.34.6.39 1.38.4 2.55z"/>
  <path fill="#101010" d="M265.25 345.94c-.29.44-.75.65-1.6.82a12.28 12.28 0 0 1-.99-4.81c.96 1.04 1.69 2.4 2.59 3.99z"/>
  <path fill="#231D1A" d="M261.18 293.97c.41-1.49 1.08-2.97 2.09-4.36a11.76 11.76 0 0 1-1.1 4.13c-.4.25-.56.25-.99.23z"/>
  <path fill="#101010" d="M265.62 349.84c-.34-.9-.3-1.71-.03-2.88 1 .6 1.76 1.55 2.62 2.8-.67.26-1.44.21-2.59.08z"/>
  <path fill="#1B1B1B" d="M349.87 233.43c-.6.3-1.13.26-1.97-.05a6.98 6.98 0 0 1 1.79-3.25c.28 1 .27 1.97.18 3.3zM334.06 353.84c.4.6.64 1.4.87 2.63-.56.34-1.1.25-1.97-.06.09-.93.52-1.64 1.1-2.57z"/>
  <path fill="#FCFDFC" d="M113.48 327.04a74.75 74.75 0 0 0 2.7-4.44c2.81-4.6 5.55-8.87 8.54-13.39 2.01-1.55 3.75-2.85 6.88-5.2-6.72 32.33 6.27 56.08 28.95 76.21.85.62 1.4 1.1 2.4 1.93 1.18 1.12 1.91 1.9 2.64 2.68l39.28 26.49c-22.72 2.36-46.17 4.99-68.75-5.28-8-3.64-15.09-8.55-20.9-15.7-17.18-20.87-11.99-44.16-1.96-62.91.1-.37.14-.35.14-.35l.08-.04z"/>
  <path fill="#28211C" d="M165.71 384.38c-.85-.33-1.58-1.11-2.5-2.17.26-.56.7-.86 1.44-1.15.48.54.67 1.08 1.1 1.78.2.47.14.78-.04 1.54z"/>
  <path fill="#FCFDFC" d="M352.58 379.45c.03.02-.02-.04.14-.07.56-.45.94-.87 1.33-1.29 11.04-9.12 19.07-20.48 24.66-33.59.47-1.1.25-2.48.35-4.06 1.29-5.04 3.5-9.72 3.68-14.48.29-7.5-.79-15.07-1.3-22.74 2.6 3.14 5.29 6.38 8.52 9.91a50.5 50.5 0 0 1 3.8 5.14l.02-.01c3.35 6.3 6.84 12.53 10.02 18.92 1.28 2.58 1.85 5.5 3 8.54 1.84 9.75 3.24 19.16-.3 28.62-6 16-17.35 26.52-32.78 33.08-1.52.64-3.06 1.24-4.7 2.2-14.8 3.29-29.6 4.6-44.55 3.34-5.51-.46-11-1.13-17.8-1.84 7.45-4.41 13.63-8.08 20.06-11.98 7.35-5.47 14.44-10.7 21.84-16.13a77.1 77.1 0 0 0 3.79-3.34c.25-.3.2-.25.22-.22z"/>
  <path fill="#28201B" d="M113.2 326.88c.2.2.16.18.18.2l-1.03-.08c-.02-.12.32-.22.85-.12z"/>
  <path fill="#1A1714" d="M393.82 317.9c-1.14-1.25-2.22-2.86-3.52-4.7.06-.42.34-.61 1.1-.94a18.15 18.15 0 0 1 2.42 5.64z"/>
  <path fill="#080808" d="M353.92 377.85a3.7 3.7 0 0 1-1.22 1.56c-.31-.29-.44-.65-.5-1.56.58-.46 1.08-.35 1.72 0z"/>
</svg>
